<svg width="247" height="66" viewBox="0 0 247 66" fill="none" xmlns="http://www.w3.org/2000/svg">
<path d="M47.5929 49.0631C48.1102 49.7597 48.4691 50.561 48.6444 51.4108C48.7593 52.2763 48.5404 53.1531 48.0322 53.8631C47.7178 54.3019 47.3027 54.6589 46.8218 54.9041C47.3981 53.0127 47.6587 51.0392 47.5929 49.0631Z" fill="#8C97A4"/>
<path d="M12.4986 48.9427C11.9429 49.6713 11.5561 50.5142 11.3664 51.4106C11.2493 52.2918 11.4784 53.1841 12.0054 53.8999C12.3366 54.3494 12.7742 54.7096 13.2789 54.9483C12.6811 53.0049 12.4173 50.9743 12.4986 48.9427Z" fill="#8C97A4"/>
<path fill-rule="evenodd" clip-rule="evenodd" d="M30.2836 40.7425C36.71 36.4188 44.1247 39.3626 45.9021 46.6192C46.1314 47.844 46.2214 49.0907 46.1706 50.3356C46.2097 46.0437 43.8159 42.6701 40.3011 41.5877C40.7228 41.0132 39.9475 40.3705 39.011 40.2413C38.9226 40.2166 38.8342 40.1944 38.7459 40.1746C38.6702 40.0465 38.5502 39.9505 38.4085 39.905L38.4089 39.9036C37.2153 39.5052 35.9487 39.3737 34.6986 39.5183C33.6241 39.6315 32.6222 40.1142 31.8641 40.884L31.8358 40.9138C31.6967 40.8825 31.551 40.9017 31.4247 40.9679C31.2978 41.0345 31.1982 41.1436 31.1434 41.2761C31.0292 41.5087 30.9363 41.7512 30.8657 42.0006C30.7401 42.0621 30.6394 42.1647 30.5804 42.2915C30.4029 42.6388 30.3208 43.027 30.3423 43.4164C30.3589 43.7321 30.4291 44.0426 30.5501 44.3346C30.5253 44.4067 30.5019 44.4843 30.4807 44.5671L30.4741 44.5957C30.371 44.9375 30.3324 45.2956 30.3603 45.6516C30.378 45.7606 30.4247 45.8628 30.4956 45.9474C30.4508 46.1019 30.4101 46.2584 30.3734 46.417C30.3669 46.4442 30.3606 46.4716 30.355 46.499L30.3544 46.5012C30.333 46.5982 30.3354 46.6988 30.3613 46.7946C30.3872 46.8905 30.4358 46.9786 30.5031 47.0516C30.3828 47.6137 30.3117 48.1853 30.2908 48.7597C30.2121 48.757 30.1331 48.7554 30.0536 48.7554C29.9248 48.7554 29.7973 48.7591 29.671 48.7667C29.6496 48.1578 29.5716 47.5522 29.4381 46.9577C29.5114 46.8264 29.5347 46.673 29.5036 46.5259C29.4618 46.3366 29.414 46.1499 29.3601 45.9656C29.4286 45.884 29.4745 45.7859 29.4934 45.6811C29.5232 45.315 29.4835 44.9465 29.3763 44.5952C29.3527 44.5029 29.3293 44.4238 29.3063 44.3564C29.4273 44.065 29.4977 43.7552 29.5143 43.4401C29.5366 43.0455 29.451 42.6523 29.2667 42.3027C29.2069 42.1874 29.1109 42.095 28.9934 42.0397C28.9226 41.7845 28.8281 41.5366 28.7111 41.299C28.6664 41.1968 28.5941 41.1091 28.5023 41.0457C28.411 40.9827 28.3037 40.9469 28.1929 40.9423C28.1386 40.9397 28.0841 40.9444 28.031 40.9564L27.9994 40.9228C27.2429 40.1553 26.2434 39.6743 25.1716 39.5621L25.1696 39.5617C23.9182 39.4176 22.6505 39.5497 21.4558 39.9488C21.3143 39.9945 21.194 40.0898 21.1172 40.2171C21.0288 40.2366 20.9405 40.2588 20.8524 40.2836C19.761 40.59 19.1357 41.0265 19.3806 41.6789L19.3817 41.6792C17.9632 42.1989 16.7109 43.0911 15.7563 44.2619C14.8017 45.4328 14.18 46.8391 13.9565 48.3331C13.9638 48.2418 13.9719 48.1505 13.9807 48.0591C13.9915 47.9485 14.0034 47.8381 14.0165 47.7279L14.0179 47.7301C14.8274 42.5146 18.3857 39.1957 22.6215 38.7408C23.9235 38.5816 25.2445 38.702 26.4963 39.0939C27.7481 39.4858 28.9019 40.1402 29.8807 41.0135C29.882 41.0135 30.2328 40.7765 30.2836 40.7425ZM28.0566 49.0785C26.3827 49.6491 25.2188 50.9148 25.2188 52.3849C25.2188 54.3896 27.3833 56.0145 30.0536 56.0145C32.7234 56.0145 34.888 54.3896 34.888 52.3849C34.888 51.0421 33.9169 49.8697 32.4732 49.242C33.7787 49.6623 35.007 50.2925 36.1098 51.108C40.5963 47.8312 45.7548 50.0211 45.8648 52.8962C45.5542 54.4544 45.0197 55.9594 44.278 57.3645C42.529 60.6874 39.6807 63.3002 36.2195 64.7567C32.7736 66.2028 28.9295 66.3937 25.3573 65.2961C21.7728 64.1902 18.6847 61.8715 16.6227 58.7378C15.3761 56.8474 14.5332 54.7201 14.1467 52.4889C14.699 49.8242 19.5798 47.9881 23.8517 51.108C25.1135 50.1736 26.54 49.4851 28.0566 49.0785ZM20.3773 46.5068C20.3646 46.5896 20.3581 46.6731 20.358 46.7569C20.358 48.0273 21.8247 49.0573 23.6342 49.0573C25.4436 49.0573 26.9104 48.0273 26.9104 46.7569C26.9104 46.6637 26.9024 46.5708 26.8865 46.479C26.4908 46.0002 26.0089 45.5996 25.4658 45.2979C25.5617 45.5653 25.6102 45.8473 25.6093 46.1314C25.6093 47.2224 24.9202 48.1071 24.0701 48.1071C23.2202 48.1071 22.5309 47.2224 22.5309 46.1314C22.5257 45.6779 22.6533 45.2329 22.8981 44.8511C22.1206 44.9856 21.393 45.325 20.7904 45.8343C20.1313 45.9465 19.4539 45.816 18.8838 45.4669C19.4881 46.1672 19.986 46.5139 20.3773 46.5068ZM39.5866 46.5068C39.5994 46.5896 39.6058 46.6732 39.6056 46.757C39.6056 48.0276 38.1388 49.0575 36.3295 49.0575C34.5201 49.0575 33.0533 48.0274 33.0533 46.757C33.0534 46.6619 33.0617 46.5669 33.0781 46.4733C33.4733 45.9965 33.954 45.5976 34.4954 45.2972C34.3994 45.5648 34.3507 45.8471 34.3517 46.1314C34.3517 47.2224 35.0408 48.1071 35.8909 48.1071C36.7408 48.1071 37.4299 47.2225 37.4299 46.1314C37.4351 45.6779 37.3075 45.2328 37.0628 44.851C37.8396 44.9856 38.5664 45.3248 39.1686 45.8336C39.8283 45.947 40.5068 45.8166 41.0775 45.4669C40.4746 46.1657 39.9776 46.5123 39.5866 46.5068ZM41.3714 55.6678C39.017 60.1327 34.7382 63.1187 29.8491 63.1187C24.962 63.1187 20.6848 60.1351 18.3298 55.6732C18.3167 55.6799 18.3032 55.6861 18.2896 55.6918C18.1533 55.749 18.0012 55.7565 17.8599 55.7132C17.7181 55.6694 17.596 55.5777 17.5145 55.4538C17.4324 55.3292 17.3954 55.1803 17.4099 55.0318C17.4243 54.8833 17.4893 54.7442 17.5939 54.6379C17.7052 54.5245 17.8551 54.4571 18.0138 54.4492C18.1725 54.4413 18.3284 54.4934 18.4504 54.5952C18.5279 54.6598 18.5893 54.7415 18.6297 54.834C18.6701 54.9264 18.6885 55.0269 18.6833 55.1276C18.6782 55.2283 18.6497 55.3265 18.6001 55.4143C18.5505 55.5022 18.4812 55.5772 18.3975 55.6336C19.2139 56.7693 20.193 57.7787 21.3033 58.6293C22.4354 58.9919 23.635 59.0933 24.8119 58.9262C25.8015 58.7403 26.8137 58.708 27.8131 58.8305C28.5885 58.9781 29.316 59.3133 29.9321 59.8068C30.5403 59.2089 31.3421 58.8479 32.193 58.7888C33.0071 58.7264 33.8258 58.7626 34.6312 58.8965C35.5064 59.0258 36.3969 59.0113 37.2674 58.8536C37.8371 58.7311 38.3829 58.5159 38.8828 58.2165L38.8677 58.2511C39.7872 57.4824 40.6062 56.6008 41.3053 55.6273C41.1863 55.5438 41.0989 55.4226 41.0573 55.2832C41.0112 55.1296 41.0232 54.9643 41.0911 54.8189C41.1584 54.6742 41.2772 54.5597 41.4243 54.4977C41.5361 54.4508 41.659 54.437 41.7784 54.458C41.8978 54.4789 42.0087 54.5338 42.0978 54.6159C42.2155 54.7246 42.2892 54.8727 42.3048 55.0322C42.3203 55.1916 42.2767 55.3512 42.1821 55.4805C42.0923 55.6043 41.9608 55.6914 41.8118 55.7258C41.6628 55.7603 41.5064 55.7397 41.3714 55.6678ZM29.4742 49.4568C30.6887 49.4568 31.6733 50.0397 31.6733 50.759C31.6733 51.478 30.6887 52.0612 29.4742 52.0612C28.2596 52.0612 27.2751 51.478 27.2751 50.759C27.2751 50.0397 28.2596 49.4568 29.4742 49.4568Z" fill="#8C97A4"/>
<path fill-rule="evenodd" clip-rule="evenodd" d="M33.7618 15.2323L33.7702 15.2438C34.3539 14.534 34.9759 13.8567 35.6334 13.2147C33.3598 9.07586 31.6965 5.21635 33.6811 1.61108C29.8821 4.62459 30.9559 9.49802 33.7618 15.2323ZM30.2181 20.9706C29.1008 18.951 27.7474 17.0714 26.1864 15.3713C25.9595 9.53734 26.5817 4.05763 32.7249 1.7757C28.3172 4.65498 31.0571 12.5718 33.1151 15.8443L33.1929 15.9703C32.0139 17.5182 31.0158 19.1959 30.2181 20.9706ZM20.7217 10.6303C22.7409 7.37188 25.6041 4.72051 29.0078 2.95724C25.2435 6.85106 24.9359 10.5151 25.2449 14.3845C23.8611 12.9908 22.3464 11.7336 20.7217 10.6303Z" fill="#8C97A4"/>
<path fill-rule="evenodd" clip-rule="evenodd" d="M30.252 34.4681C28.7287 31.8514 28.9031 28.1418 30.2085 24.3556C31.6 28.1057 31.8464 31.8202 30.252 34.4681ZM30.9574 22.4497C33.2962 17.147 37.6666 12.0308 42.501 9.90564C36.9443 14.7431 39.559 19.005 38.7412 25.1426C38.1958 29.2747 35.1998 33.4103 31.5486 35.3437C31.4271 35.4081 31.3071 35.4738 31.1886 35.541C33.4685 31.6954 33.0391 26.9614 30.9574 22.4497Z" fill="#8C97A4"/>
<path fill-rule="evenodd" clip-rule="evenodd" d="M39.6548 25.8763C40.1599 22.383 39.5215 18.7865 39.9698 15.708C40.4099 12.6832 43.0678 8.95199 48.7484 7.40222C43.4952 11.0728 43.7673 14.9197 44.953 18.7395C46.3785 23.3312 48.7852 27.72 44.7349 33.1184C48.355 27.8577 46.0676 22.7731 44.5562 20.5164C45.3542 22.9322 45.9041 26.3039 44.8331 28.4404C44.9504 27.0133 44.8571 25.5766 44.5562 24.1766C44.6841 26.1112 44.3563 27.6502 43.5727 28.7935C43.8525 25.5352 43.2218 22.2632 41.751 19.3423C42.5749 22.5219 42.2458 25.9891 40.7635 29.7439C41.1735 26.2053 40.7918 23.4708 40.0389 22.1584C40.0497 23.4081 39.9208 24.6551 39.6548 25.8763Z" fill="#8C97A4"/>
<path fill-rule="evenodd" clip-rule="evenodd" d="M46.6995 20.8511C47.3393 22.1015 47.7727 23.4472 47.9827 24.8359C47.9091 23.7367 47.6865 22.6526 47.321 21.6134C48.5062 23.4701 49.245 26.7147 49.4157 31.9094C50.0993 29.862 50.0508 27.066 49.2701 23.5212C50.3249 25.6634 50.9039 28.0084 50.9674 30.3953C51.2157 27.4893 51.0413 25.1437 50.1981 23.1439L50.2547 23.2547C48.1301 17.5265 45.7 12.0871 49.1262 8.11658C43.8975 11.2849 44.715 16.5305 46.6995 20.8511Z" fill="#8C97A4"/>
<path fill-rule="evenodd" clip-rule="evenodd" d="M29.5338 35.4571C35.3382 28.9301 26.2399 13.1297 17.1313 10.149C25.419 15.9492 16.7863 25.6558 29.5338 35.4571Z" fill="#8C97A4"/>
<path fill-rule="evenodd" clip-rule="evenodd" d="M21.9037 28.6519C19.9778 24.2541 20.3944 19.379 19.7984 15.5839C19.3239 12.5622 14.8846 8.03192 10.8521 7.96619C12.2621 8.49969 13.4733 9.45492 14.3208 10.7017C15.2117 12.0479 15.2699 14.0416 14.9693 16.048C14.201 21.1768 10.6543 27.4744 13.9324 31.8093C12.1388 28.9645 12.8429 25.228 13.7076 21.8046C12.453 29.0762 14.2944 29.7024 14.7772 30.8525C14.1283 28.0231 14.8033 26.0581 15.4649 25.0808C15.6627 29.0846 16.3661 30.7002 17.1186 31.1584C15.6891 26.8157 16.5183 23.0842 17.3687 21.4716C18.2604 29.81 19.4474 30.192 20.2795 31.0028C18.8765 26.9773 18.8452 25.498 19.2828 22.5053C19.8907 24.6576 20.7714 26.7232 21.9037 28.6519Z" fill="#8C97A4"/>
<path fill-rule="evenodd" clip-rule="evenodd" d="M8.80337 31.3503L8.79248 31.4014L8.80337 31.3476V31.3503ZM10.4458 21.1194C12.5234 15.9342 14.1609 11.4502 10.2008 8.12317C16.0934 11.4417 13.9368 15.9168 12.3672 20.9823C12.2337 21.413 12.1045 21.8488 11.985 22.2882L12.0041 22.2055C10.9163 24.8156 10.5629 26.6069 10.5156 31.4577C9.98451 28.776 10.0325 26.0117 10.6563 23.35C9.63677 25.4206 9.07716 27.6872 9.01588 29.9944C8.7674 27.5802 9.74219 23.0222 10.6563 20.7782C10.5856 20.8888 10.5155 21.003 10.4458 21.1194Z" fill="#8C97A4"/>
<path fill-rule="evenodd" clip-rule="evenodd" d="M16.6643 35.8429C17.3938 35.4236 18.1876 35.1276 19.0135 34.9668C18.8926 35.6336 18.8058 36.844 18.7466 37.4441C18.7162 37.432 18.6848 37.4225 18.6529 37.4155C18.4568 37.3022 18.2711 37.1719 18.0978 37.026C17.7317 36.7464 17.2539 36.352 16.6643 35.8429ZM46.6093 45.8969C46.8268 45.1661 46.9058 44.7419 47.0447 44.2243C46.7069 44.2911 46.4607 44.3555 46.1643 44.4146C46.3307 44.8939 46.479 45.388 46.6093 45.8969ZM47.0728 43.8688C47.0659 43.4117 47.0354 42.9553 46.9816 42.5013C46.7102 43.0402 46.391 43.5536 46.0278 44.0354L46.0557 44.1108C46.4617 44.0251 46.8708 43.9135 47.0728 43.8688ZM46.8244 42.0769C46.3697 42.2897 45.9021 42.4738 45.4244 42.6281C45.5825 42.9514 45.7308 43.2848 45.8694 43.6282C46.1858 43.1806 46.4722 42.7125 46.7267 42.227C46.7518 42.1725 46.7847 42.1219 46.8244 42.0769ZM45.2596 42.3017L46.8464 41.6458C46.7933 40.9043 46.6168 40.1769 46.3243 39.4935C45.7604 40.8274 45.3995 41.7301 45.1919 42.1735L45.2209 42.2277L45.2596 42.3017ZM45.786 39.5304C44.9737 39.8033 44.3153 40.0102 43.8109 40.1514C44.2348 40.643 44.6137 41.1717 44.943 41.7312C45.2824 41.0213 45.5643 40.2854 45.786 39.5304ZM46.0152 38.8583C45.4844 37.9394 44.8277 37.0993 44.0642 36.3623C43.8867 38.0726 43.8873 37.8564 43.6684 39.681C44.3736 39.4808 45.2885 39.1057 46.0152 38.8583ZM43.6363 36.1431C42.3909 37.096 42.0283 37.3815 41.2387 37.9743C41.427 38.1085 41.6116 38.2476 41.7924 38.3915C42.3017 38.7199 42.7774 39.0977 43.2124 39.5195C43.3743 38.4146 43.4464 37.1847 43.6363 36.1431ZM42.9561 35.8497C42.2516 35.4448 41.4871 35.1546 40.6912 34.9903C40.7215 35.6247 40.7955 36.8522 40.8329 37.5568C41.2077 37.2355 41.6912 36.9661 42.9561 35.8497ZM40.0618 34.9121C40.2026 35.969 40.2809 36.6811 40.3356 37.6351C39.6896 37.3737 39.0157 37.1875 38.3271 37.0803C38.8557 36.3192 39.4353 35.5948 40.0618 34.9121ZM39.4309 34.889C38.4388 34.7898 37.4372 34.8508 36.4644 35.0697C36.5847 35.1858 36.6967 35.3101 36.7998 35.4416C37.0795 35.7643 37.4255 36.1933 37.8091 36.7006L37.8085 36.7009L37.8271 36.7267C38.3121 36.0726 38.8484 35.4581 39.4309 34.889ZM35.0888 37.0937C35.1818 37.0815 35.2749 37.0706 35.3683 37.0609C35.9935 36.9721 36.6258 36.9425 37.2566 36.9723C36.8919 36.4522 36.4811 35.966 36.029 35.5198C35.7983 35.8729 35.4771 36.3978 35.338 36.6593L35.337 36.6611L35.338 36.6617C35.2712 36.7866 35.1813 36.937 35.0888 37.0937ZM35.4179 35.3656C35.2203 35.737 34.895 36.2848 34.6323 36.8221C34.5695 36.7175 34.3696 36.3888 33.9864 35.7861C34.4555 35.6198 34.9334 35.4794 35.4179 35.3656ZM33.6764 36.3931C33.9633 36.8502 34.1701 37.2768 34.1701 37.2768C33.8785 37.3495 33.6636 37.4074 33.4984 37.4594C33.5862 37.0969 33.6252 36.6318 33.6764 36.3931ZM32.921 37.314C33.0939 36.609 33.2073 36.0301 33.2073 36.0301C32.7644 36.2527 32.3953 36.4637 32.1267 36.6173L32.921 37.314ZM31.968 37.2877L32.6009 37.843L31.774 38.2413L31.968 37.2877ZM31.2117 37.961L31.4143 36.9658L30.7179 37.461L31.2117 37.961ZM19.6462 34.9496C19.5189 35.7908 19.434 36.6378 19.392 37.4875C19.9735 37.2112 20.5832 36.9987 21.2105 36.8537C20.7748 36.2805 20.1511 35.5154 19.6462 34.9496ZM20.2833 34.8949C21.2756 34.7905 22.2784 34.8518 23.2506 35.0763C23.1304 35.1925 23.0184 35.3168 22.9153 35.4484C22.6357 35.7713 22.2897 36.2001 21.9062 36.7072L21.9067 36.7077L21.8934 36.726L21.8832 36.7273C21.3993 36.0751 20.8643 35.4624 20.2833 34.8949ZM22.6987 36.6502C23.0444 36.1957 23.4264 35.7699 23.841 35.3771C23.9793 35.7598 24.2234 36.2941 24.4391 36.756C23.8643 36.6594 23.2809 36.624 22.6987 36.6502ZM16.3544 36.3556C17.5667 37.2695 18.0683 37.7538 18.4701 37.9858C18.0758 38.2281 17.698 38.4964 17.3393 38.7889C17.0855 38.9957 16.8426 39.2156 16.6118 39.4479C16.5178 38.6184 16.3881 37.2053 16.3544 36.3556ZM13.7913 38.8025C14.3119 37.8768 14.9703 37.0358 15.7439 36.3082C15.7572 37.3814 15.8478 38.4522 16.0149 39.5124C15.7554 39.4385 15.4679 39.3515 15.1525 39.2514C14.7302 39.1173 14.2764 38.9677 13.7913 38.8025ZM24.2968 35.3713C24.6208 35.8122 24.8908 36.2903 25.1009 36.7955C25.1808 36.6638 25.3779 36.3416 25.7276 35.7915C25.2588 35.6253 24.7811 35.4851 24.2968 35.3713ZM13.9815 39.5149C14.8088 39.7925 15.4763 40.0019 15.984 40.1431C15.5653 40.656 15.1888 41.202 14.858 41.7757C14.7698 41.6241 14.6958 41.4646 14.6369 41.2994C14.4487 40.8595 14.2303 40.2647 13.9815 39.5149ZM14.5003 42.422L12.8433 41.737C12.9213 40.9996 13.0968 40.2758 13.3653 39.5847C13.6478 40.5505 14.0401 41.4808 14.5346 42.3573L14.5003 42.422ZM12.975 42.1216C13.4306 42.3306 13.8988 42.5108 14.3769 42.6613C14.2149 42.9806 14.0596 43.3064 13.9111 43.6385C13.8008 43.4972 13.6994 43.3492 13.6074 43.1954C13.4322 42.9236 13.2224 42.5748 12.993 42.1575C12.9874 42.1454 12.9813 42.1334 12.975 42.1216ZM26.1078 36.3352C25.9054 36.656 25.7497 36.9075 25.6595 37.054C25.8815 37.1255 26.1037 37.2067 26.3259 37.2976C26.2305 36.9045 26.1549 36.5589 26.1078 36.3352ZM12.647 43.7107C12.6582 43.3085 12.6875 42.9074 12.735 42.5075C13.004 43.0419 13.3201 43.5513 13.6796 44.0295C13.3301 43.9413 12.9854 43.8349 12.647 43.7107ZM13.0221 45.7748C12.8222 45.2823 12.7033 44.7606 12.6701 44.2301C12.9518 44.3517 13.2509 44.428 13.5565 44.4563C13.3748 44.8894 13.1982 45.3299 13.0221 45.7748ZM26.7931 37.3196C26.6203 36.615 26.507 36.0364 26.507 36.0364C26.9497 36.2588 27.3185 36.4698 27.587 36.6232L26.7931 37.3196ZM27.747 37.2956L27.2472 37.7339C27.4706 37.8539 27.6934 37.9844 27.9157 38.1254L27.747 37.2956ZM28.5029 37.9676L28.3007 36.9727L28.9966 37.4678L28.5029 37.9676ZM29.4925 37.918L29.4783 37.8497L28.6808 38.6568C28.894 38.8176 29.1061 38.9886 29.3174 39.1697L29.4925 37.918ZM29.9009 39.4408L30.2359 37.8433C30.7678 38.3819 31.0338 38.6511 31.0338 38.6511L30.9057 38.7543C30.5718 38.9632 30.2369 39.192 29.9009 39.4408Z" fill="#8C97A4"/>
<path fill-rule="evenodd" clip-rule="evenodd" d="M55.4103 6.66664C55.2701 6.72363 55.1354 6.79319 55.0078 6.87448C54.5827 7.14597 54.248 7.53793 54.0466 8.00038C53.8439 8.46422 53.7827 8.97758 53.8706 9.47607C53.9586 9.97457 54.1918 10.436 54.541 10.8024C54.8004 11.0741 55.1177 11.2837 55.4692 11.4159C55.8208 11.548 56.1976 11.5992 56.5717 11.5656C56.9458 11.5321 57.3075 11.4147 57.63 11.2221C57.9524 11.0295 58.2273 10.7667 58.4342 10.4533C58.7145 10.0316 58.864 9.53653 58.8638 9.03019C58.8697 8.6511 58.7903 8.27553 58.6316 7.93121C59.1211 9.36805 57.8751 11.1244 56.4374 10.9816C55.993 10.9782 55.5595 10.8439 55.191 10.5955C54.8205 10.3456 54.5307 9.99334 54.3569 9.58158C54.1821 9.16866 54.1302 8.71406 54.2075 8.27237C54.2847 7.83067 54.4877 7.42066 54.7923 7.09153C54.9754 6.9192 55.1838 6.77593 55.4103 6.66664ZM57.4038 7.03394C57.6655 7.03415 57.9175 7.13253 58.1102 7.30962C58.3039 7.48841 58.4251 7.73223 58.4506 7.99462C58.4761 8.25701 58.4043 8.51962 58.2486 8.73242C58.0948 8.94418 57.867 9.0904 57.6104 9.14209C57.3538 9.19377 57.0871 9.14714 56.8633 9.01145C56.6387 8.87463 56.4728 8.65943 56.3976 8.40743C56.3218 8.15447 56.3417 7.88249 56.4534 7.64321C56.5641 7.40513 56.7596 7.21682 57.0016 7.11494C57.129 7.06148 57.2657 7.03396 57.4038 7.03394Z" fill="#8C97A4"/>
<path fill-rule="evenodd" clip-rule="evenodd" d="M36.225 0.771318C36.2032 0.881189 36.193 0.993054 36.1946 1.10506C36.188 1.31125 36.2226 1.51669 36.2962 1.7094C36.3698 1.90211 36.4811 2.07824 36.6235 2.22751C36.7653 2.37569 36.9355 2.49376 37.1239 2.57471C37.3117 2.65528 37.514 2.69684 37.7183 2.69684C37.9227 2.69684 38.1249 2.65528 38.3127 2.57471C38.5012 2.49376 38.6714 2.37569 38.8132 2.22751C38.9556 2.07824 39.0668 1.90211 39.1405 1.7094C39.2141 1.51669 39.2486 1.31125 39.242 1.10506C39.2429 1.04952 39.2408 0.993957 39.2358 0.938635C39.1998 1.31097 39.0299 1.65761 38.7577 1.91416C38.4782 2.17821 38.1082 2.32531 37.7237 2.32531C37.3392 2.32531 36.9692 2.17821 36.6897 1.91416C36.408 1.64855 36.2362 1.28688 36.2084 0.900703C36.2122 0.85732 36.2178 0.813933 36.225 0.771318ZM38.2784 0C38.4552 0.000175231 38.6264 0.0621361 38.7623 0.175177C38.8645 0.260178 38.9431 0.370015 38.9906 0.494142C39.0382 0.618269 39.053 0.752527 39.0337 0.88404C39.0145 1.01555 38.9617 1.1399 38.8806 1.24517C38.7994 1.35044 38.6926 1.4331 38.5703 1.48521C38.4075 1.55354 38.2258 1.56258 38.057 1.51076C37.8876 1.45846 37.7417 1.34892 37.6442 1.20089C37.5462 1.05204 37.5022 0.874113 37.5194 0.696739C37.5367 0.519366 37.6142 0.353258 37.7391 0.226112C37.8096 0.15465 37.8936 0.0978669 37.9861 0.0590542C38.0787 0.0202416 38.1781 0.00017899 38.2784 0Z" fill="#8C97A4"/>
<path fill-rule="evenodd" clip-rule="evenodd" d="M1.68317 6.36926C1.52595 6.4418 1.37764 6.53229 1.24121 6.63892C0.828743 6.96228 0.540889 7.41842 0.426515 7.9299C0.311142 8.44273 0.375491 8.97962 0.608783 9.45066C0.840439 9.91928 1.22793 10.2927 1.70479 10.5069C2.17942 10.7196 2.71379 10.7585 3.2142 10.6166C3.71626 10.4738 4.15266 10.16 4.44805 9.72968C4.63978 9.45047 4.7672 9.13223 4.82115 8.79786C4.8751 8.46349 4.85422 8.1213 4.76003 7.79597C4.83681 8.14759 4.8248 8.51281 4.72507 8.85862C4.62535 9.20443 4.44105 9.51995 4.18883 9.77669C3.99314 9.97576 3.75977 10.1339 3.50233 10.2418C3.24489 10.3497 2.96854 10.4053 2.68939 10.4053C2.41024 10.4053 2.13389 10.3497 1.87645 10.2418C1.61901 10.1339 1.38564 9.97576 1.18995 9.77669C0.791906 9.37174 0.568858 8.82666 0.568858 8.25884C0.568858 7.69102 0.791906 7.14591 1.18995 6.74097C1.33535 6.59369 1.50153 6.46845 1.68317 6.36926ZM2.70466 6.54475C2.89575 6.54489 3.08077 6.61189 3.22764 6.73415C3.33807 6.82601 3.42305 6.94471 3.47443 7.07886C3.5258 7.213 3.54185 7.3581 3.52104 7.50023C3.50022 7.64236 3.44324 7.77675 3.35555 7.89053C3.26786 8.00431 3.15241 8.09365 3.02028 8.14999C2.8443 8.22384 2.64799 8.23363 2.46553 8.17765C2.28247 8.1211 2.12475 8.0027 2.01935 7.84269C1.91334 7.68186 1.86569 7.48953 1.88434 7.29781C1.90298 7.10609 1.9868 6.92657 2.12182 6.78918C2.19792 6.71185 2.28864 6.65042 2.38869 6.60846C2.48875 6.5665 2.59616 6.54484 2.70466 6.54475Z" fill="#8C97A4"/>
<path fill-rule="evenodd" clip-rule="evenodd" d="M39.5865 46.5069C39.5993 46.5897 39.6057 46.6733 39.6055 46.7571C39.6055 48.0277 38.1387 49.0576 36.3294 49.0576C34.52 49.0576 33.0532 48.0275 33.0532 46.7571C33.0532 46.662 33.0615 46.567 33.078 46.4734C33.4732 45.9966 33.9538 45.5977 34.4953 45.2973C34.3992 45.5649 34.3506 45.8472 34.3516 46.1315C34.3516 47.2225 35.0407 48.1072 35.8908 48.1072C36.7407 48.1072 37.4298 47.2226 37.4298 46.1315C37.435 45.678 37.3074 45.2329 37.0627 44.8511C37.8394 44.9857 38.5663 45.3249 39.1685 45.8337C39.8282 45.9471 40.5066 45.8167 41.0774 45.467C40.4744 46.1658 39.9775 46.5124 39.5865 46.5069Z" fill="#8C97A4"/>
<path fill-rule="evenodd" clip-rule="evenodd" d="M20.3773 46.5068C20.3646 46.5895 20.3581 46.6731 20.358 46.7568C20.358 48.0272 21.8247 49.0573 23.6342 49.0573C25.4436 49.0573 26.9104 48.0272 26.9104 46.7568C26.9104 46.6637 26.9024 46.5708 26.8865 46.479C26.4908 46.0002 26.0089 45.5995 25.4658 45.2979C25.5617 45.5653 25.6102 45.8473 25.6093 46.1313C25.6093 47.2223 24.9202 48.107 24.0701 48.107C23.2202 48.107 22.5309 47.2223 22.5309 46.1313C22.5257 45.6779 22.6533 45.2328 22.8981 44.8511C22.1206 44.9856 21.393 45.325 20.7904 45.8343C20.1313 45.9465 19.454 45.816 18.8838 45.4669C19.4881 46.1672 19.986 46.5138 20.3773 46.5068Z" fill="#8C97A4"/>
<path d="M34.7929 41.5446C34.6883 41.4449 34.622 41.3116 34.6055 41.1681C34.589 41.0246 34.6233 40.8798 34.7025 40.7589C33.9603 40.8585 33.2716 41.1998 32.7428 41.7301L32.6681 41.8075C32.5545 41.9243 32.3477 42.0698 32.3497 42.1014L32.1034 42.1172C32.0533 42.258 32.0125 42.402 31.9816 42.5482C31.963 42.6353 31.9475 42.7236 31.9351 42.8131C32.4071 42.2797 32.9842 41.8496 33.6302 41.5497L33.6721 41.5281L33.9225 42.0308C34.2056 41.8549 34.4969 41.6924 34.7929 41.5446Z" fill="#8C97A4"/>
<path d="M38.5323 41.1625C39.0389 41.11 39.5506 41.1809 40.0239 41.369C39.2823 40.8858 38.4106 40.6409 37.5258 40.6672C36.7383 40.7119 35.9597 40.8567 35.2087 41.0979C36.1247 40.5797 37.1821 40.3669 38.2273 40.4905C36.0979 39.8089 33.6529 39.8682 32.3047 41.3075C32.1539 41.4686 31.7275 41.8655 31.7453 42.1403C31.7319 41.9316 31.7183 41.7227 31.7045 41.5136C31.4142 42.1106 31.2735 42.7692 31.2945 43.4326C31.1458 43.1656 31.0885 42.8574 31.1311 42.5548C30.9989 42.8328 30.9372 43.1391 30.9512 43.4466C30.9652 43.7541 31.0546 44.0535 31.2115 44.3184C31.152 44.4482 31.1043 44.5831 31.0688 44.7214C30.9824 44.989 30.9456 45.2702 30.9603 45.551C31.1405 45.0137 31.3936 44.5036 31.7124 44.035C32.5215 43.0368 32.8096 42.6577 33.9466 42.0767C33.0476 42.5362 32.9549 42.849 32.3264 43.6488C31.6484 44.5276 31.1771 45.5479 30.9473 46.6338C31.6315 43.5652 35.6954 41.1797 38.5323 41.1625Z" fill="#8C97A4"/>
<path d="M21.329 41.1942C20.8224 41.1418 20.3107 41.2126 19.8374 41.4007C20.5791 40.9176 21.4508 40.6727 22.3356 40.6989C23.1232 40.7437 23.9018 40.8884 24.6528 41.1297C23.7367 40.6115 22.6793 40.3987 21.6341 40.5222C23.7637 39.8407 26.2086 39.8999 27.5566 41.339C27.7076 41.5003 28.1338 41.8972 28.1161 42.172C28.1296 41.9632 28.1431 41.7543 28.1568 41.5455C28.4471 42.1424 28.588 42.8009 28.5672 43.4644C28.7157 43.1973 28.773 42.8891 28.7304 42.5865C28.8626 42.8645 28.9243 43.1708 28.9103 43.4783C28.8963 43.7859 28.8069 44.0852 28.65 44.3501C28.7095 44.4799 28.7572 44.6148 28.7927 44.7531C28.879 45.0208 28.9158 45.3019 28.9012 45.5828C28.721 45.0454 28.4679 44.5354 28.1489 44.0668C27.34 43.0685 27.0519 42.6896 25.9148 42.1084C26.8138 42.5677 26.9066 42.8806 27.5351 43.6805C28.2131 44.5594 28.6844 45.5797 28.9142 46.6656C28.23 43.5968 24.1659 41.2115 21.329 41.1942Z" fill="#8C97A4"/>
<path d="M17.5903 3.19861L14.7002 4.57381L19.5243 5.99914L17.5903 3.19861Z" fill="#8C97A4"/>
<path d="M57.0552 22.0805L59.692 24.2017L60.9461 20.2627L57.0552 22.0805Z" fill="#8C97A4"/>
<path d="M51.8293 39.6653L54.0145 37.1122L50.1235 35.7263L51.8293 39.6653Z" fill="#8C97A4"/>
<path d="M1.94531 49.7852L4.58213 51.9064L5.83682 47.9674L1.94531 49.7852Z" fill="#8C97A4"/>
<path d="M0 44.0291L1.91589 40.0901L5.83673 44.0291H0Z" fill="#8C97A4"/>
<path d="M51.202 55.55L55.2787 57.8919L55.5841 51.7668L51.202 55.55Z" fill="#8C97A4"/>
<path fill-rule="evenodd" clip-rule="evenodd" d="M57.404 7.03383C57.6657 7.03404 57.9178 7.13242 58.1104 7.30951C58.3041 7.48831 58.4253 7.73213 58.4508 7.99451C58.4764 8.2569 58.4045 8.51952 58.2488 8.73231C58.095 8.94407 57.8672 9.0903 57.6106 9.14198C57.354 9.19366 57.0873 9.14703 56.8635 9.01134C56.6389 8.87452 56.473 8.65932 56.3978 8.40733C56.322 8.15436 56.3419 7.88238 56.4536 7.6431C56.5644 7.40503 56.7598 7.21671 57.0018 7.11484C57.1292 7.06138 57.2659 7.03385 57.404 7.03383Z" fill="#8C97A4"/>
<path d="M141.165 26.1564L145.004 21.9896L138.166 19.7295L141.165 26.1564Z" fill="#8C97A4"/>
<path d="M82.4065 57.8881C77.3335 57.8881 73.6111 56.58 71.2391 53.9637C68.8661 51.3478 67.6798 47.895 67.6803 43.6054C67.6283 39.5916 68.3707 35.6071 69.8647 31.8813C71.2373 28.4658 73.4794 25.4687 76.3685 23.1876C78.9999 21.0088 82.3035 19.8066 85.7197 19.7848C89.0736 19.7848 91.708 20.6046 93.6228 22.2441C94.5691 23.0539 95.3185 24.0686 95.8142 25.2112C96.3121 26.3578 96.5446 27.6021 96.4941 28.8511C96.5796 31.3862 95.6728 33.8547 93.9665 35.7316C93.2323 36.5859 92.3234 37.2726 91.301 37.7455C90.2823 38.2164 89.1737 38.4614 88.0514 38.4637C85.7933 38.4637 84.0425 37.9588 82.7991 36.9491C81.5549 35.939 80.9332 34.8625 80.934 33.7196C80.9157 33.1938 81.0299 32.6718 81.2662 32.2018C81.5013 31.7336 81.8514 31.3327 82.2836 31.0367C83.4697 30.3148 84.8496 29.9766 86.235 30.0681C86.0187 30.2961 85.8507 30.5654 85.7411 30.86C85.6314 31.1545 85.5825 31.4682 85.5971 31.7821C85.5846 32.4587 85.8104 33.1182 86.235 33.6451C86.4789 33.9212 86.7835 34.1369 87.1249 34.2753C87.4652 34.4131 87.8329 34.4694 88.1988 34.4398C88.7146 34.4005 89.2166 34.2543 89.6729 34.0106C90.1292 33.7669 90.5298 33.431 90.8494 33.0242C91.7644 31.9952 92.2401 30.6488 92.1745 29.2734C92.2077 28.5898 92.1007 27.9066 91.8602 27.2659C91.6197 26.6251 91.2507 26.0403 90.7759 25.5474C90.2441 25.0624 89.6202 24.6893 88.9413 24.4503C88.2624 24.2114 87.5424 24.1115 86.8241 24.1565C85.6827 24.1737 84.5569 24.4247 83.5164 24.8941C82.4724 25.3653 81.5353 26.0441 80.7621 26.8891C78.8591 28.8546 77.4391 31.2356 76.6143 33.844C75.6567 36.7103 75.1758 39.7143 75.1905 42.7362C75.1396 45.2129 75.7315 47.6605 76.9086 49.8402C77.5193 50.9219 78.4319 51.8024 79.5348 52.374C80.7999 53.0281 82.2096 53.3526 83.6334 53.3175C86.4279 53.2812 89.1406 52.3691 91.3895 50.7098C93.9235 48.9209 96.0623 46.6295 97.6725 43.9783L99.3415 47.0089C97.4948 50.0972 95.0197 52.7629 92.0766 54.833C89.2539 56.8414 85.8707 57.9102 82.4065 57.8881Z" fill="#8C97A4"/>
<path d="M117.896 57.8379C114.885 57.8379 112.889 56.778 111.908 54.6583C111.148 55.6798 110.156 56.5062 109.014 57.0695C107.877 57.6304 106.622 57.9108 105.354 57.8873C104.106 57.9164 102.865 57.6889 101.708 57.2189C100.552 56.749 99.5036 56.0465 98.6294 55.155C97.7101 54.2022 96.9944 53.0721 96.5261 51.8336C96.0577 50.5952 95.8464 49.2744 95.9051 47.9517C95.9051 43.613 97.165 40.152 99.6847 37.5685C100.924 36.2935 102.415 35.2906 104.063 34.6235C105.711 33.9565 107.48 33.64 109.257 33.6941H109.551C111.097 33.677 112.632 33.9639 114.067 34.5385C115.035 33.9525 116.152 33.6592 117.283 33.6941C118.218 33.6285 119.155 33.7993 120.007 34.1908C119.712 36.6421 119.401 39.0515 119.074 41.419C118.747 43.7872 118.518 45.468 118.387 46.4615C118.147 48.0746 117.999 49.7 117.945 51.33C117.945 52.6551 118.469 53.3173 119.516 53.3166C120.333 53.3166 121.201 52.7619 122.117 51.6525C123.254 50.0796 124.071 48.2991 124.523 46.4116C125.414 47.1876 126.09 48.1798 126.486 49.2928C125.536 52.4395 124.26 54.6502 122.657 55.925C121.337 57.0898 119.656 57.7652 117.896 57.8379ZM109.993 37.5685C109.031 37.5343 108.076 37.7356 107.21 38.1549C106.34 38.5761 105.586 39.2017 105.011 39.9782C103.784 41.585 103.055 43.9779 102.826 47.157C102.794 47.4374 102.778 47.7192 102.777 48.0014C102.704 49.3874 103.111 50.7562 103.931 51.8764C104.278 52.3343 104.729 52.7038 105.246 52.9549C105.761 53.205 106.328 53.329 106.901 53.3166C108.962 53.3166 110.517 51.843 111.564 48.8957L112.742 38.1649C111.875 37.7848 110.94 37.582 109.993 37.5685Z" fill="#8C97A4"/>
<path d="M143.47 42.388C146.055 44.3089 147.347 46.5776 147.347 49.194C147.38 50.4149 147.121 51.6259 146.59 52.7261C146.062 53.8221 145.278 54.7747 144.304 55.5032C142.099 57.1498 139.397 57.9913 136.646 57.8875C134.863 57.9542 133.109 57.4206 131.665 56.3722C131.095 55.9689 130.623 55.4438 130.282 54.835C129.765 53.9143 129.57 52.8477 129.727 51.8036C129.884 50.7595 130.384 49.7975 131.149 49.0696C132.183 48.1689 133.467 47.6057 134.831 47.4552C134.203 48.2794 133.843 49.2764 133.8 50.3117C133.785 50.7266 133.861 51.1397 134.022 51.5224C134.182 51.9037 134.425 52.2451 134.732 52.5223C135.38 53.0957 136.224 53.398 137.089 53.3667C137.535 53.3769 137.979 53.2863 138.385 53.1017C138.794 52.9163 139.156 52.642 139.445 52.2988C140.052 51.6246 140.385 50.7471 140.377 49.8395C140.356 49.0451 140.156 48.2659 139.79 47.5604C139.424 46.8549 138.904 46.2415 138.267 45.7663C137.393 45.0548 136.475 44.3992 135.518 43.8035C134.536 43.1911 134.013 42.8682 133.947 42.8348C133.824 42.7407 133.692 42.6577 133.554 42.5868C132.965 43.2822 132.115 44.2344 131.002 45.4432C129.889 46.6526 129.005 47.6213 128.351 48.3494C126.518 50.3701 125.487 52.0592 125.258 53.4167C125.175 53.9172 125.142 54.4249 125.16 54.932C125.18 55.7461 125.408 56.5415 125.823 57.2418C126.197 57.9619 126.746 58.5768 127.419 59.0305C128.002 59.4078 128.618 59.732 129.259 59.9991C129.768 60.2157 130.293 60.3901 130.83 60.5204C131.061 60.547 131.285 60.6143 131.493 60.7193C131.493 60.9507 131.132 61.2158 130.412 61.5144C129.069 62.0113 127.648 62.2635 126.216 62.2592C124.321 62.1784 122.532 61.3641 121.226 59.9884C119.912 58.6031 119.177 56.7674 119.172 54.8575C119.185 53.314 119.573 51.7968 120.301 50.4358C121.642 47.8528 124.784 44.3092 129.725 39.8048C129.175 39.3075 128.731 38.7041 128.42 38.0308C128.107 37.3552 127.934 36.6238 127.909 35.8799C127.9 35.2143 128.033 34.5545 128.3 33.9447C128.566 33.3372 128.96 32.7941 129.455 32.3526C130.438 31.4113 131.752 30.8941 133.113 30.9125C133.746 30.9135 134.371 31.0514 134.946 31.3168C135.523 31.5834 136.036 31.9706 136.451 32.4523C137.084 33.1802 137.417 34.1213 137.383 35.0854C137.329 36.3425 136.975 37.5686 136.352 38.6618C138.825 39.7015 141.206 40.948 143.47 42.388ZM132.818 36.7743C133.603 35.9469 133.996 35.3507 133.996 34.9858C133.996 34.1584 133.636 33.7113 132.916 33.6445C132.098 33.6445 131.689 34.1082 131.689 35.0355C131.735 35.3914 131.86 35.7324 132.056 36.0334C132.251 36.3343 132.512 36.5875 132.818 36.7743Z" fill="#8C97A4"/>
<path d="M161.631 51.9259L162.809 40.947C162.838 40.1458 162.596 39.3582 162.122 38.7117C161.85 38.3978 161.508 38.1528 161.123 37.9967C160.74 37.8415 160.325 37.78 159.913 37.8174C159.421 37.8133 158.934 37.9204 158.488 38.1308C158.042 38.3423 157.648 38.6511 157.336 39.0347C156.574 39.965 156.044 41.0634 155.79 42.239C155.561 44.1266 155.217 46.8837 154.759 50.5103C154.301 54.1366 154.006 56.4964 153.876 57.5895H147.347C149.703 37.288 151.127 24.8187 151.617 20.1816C152.519 19.8838 153.467 19.7492 154.416 19.7839C156.968 19.7839 158.244 20.5457 158.244 22.0692V22.3671C157.688 27.5672 157.098 32.1377 156.477 36.0786C158.058 34.5508 160.169 33.696 162.368 33.6943C164.252 33.5908 166.107 34.193 167.571 35.3832C168.187 35.9067 168.678 36.5614 169.008 37.2992C169.34 38.0398 169.503 38.8447 169.485 39.6558C169.442 40.5222 169.344 41.385 169.191 42.2389C168.438 47.2065 168.061 50.1211 168.062 50.9825C168.062 52.5395 168.569 53.3177 169.583 53.3168C170.434 53.3168 171.342 52.7457 172.308 51.6034C173.468 50.0344 174.264 48.227 174.639 46.3122C175.487 47.1175 176.17 48.0791 176.652 49.144C174.95 54.9066 171.94 57.788 167.62 57.7884C165.59 57.7884 164.085 57.1591 163.104 55.9006C162.174 54.7829 161.654 53.3802 161.631 51.9259Z" fill="#8C97A4"/>
<path d="M176.21 34.2162C177.086 33.9086 178.007 33.749 178.935 33.7441C179.742 33.7307 180.546 33.8481 181.315 34.0918C180.039 44.0612 179.401 49.0954 179.401 49.1943C179.254 49.7375 179.172 50.2962 179.156 50.8586C179.151 51.2501 179.183 51.6411 179.254 52.0262C179.384 52.8877 179.982 53.3181 181.045 53.3174C182.108 53.3174 183.09 52.6138 183.99 51.2064C184.921 49.7273 185.609 48.1089 186.028 46.4124C186.45 46.7491 186.814 47.1517 187.108 47.6046C187.476 48.0537 187.774 48.5564 187.991 49.0953C187.471 51.4911 186.318 53.7038 184.653 55.5036C183.932 56.2815 183.057 56.9004 182.083 57.3207C181.113 57.7396 180.065 57.9499 179.008 57.9378C176.815 57.9378 175.187 57.3913 174.124 56.2983C173.589 55.7368 173.173 55.0739 172.899 54.3487C172.625 53.6234 172.499 52.8507 172.529 52.076C172.529 51.7116 172.545 51.3307 172.578 50.9331L174.345 35.5826C174.773 34.9087 175.439 34.4209 176.21 34.2162ZM176.358 21.0019C176.71 20.6258 177.137 20.3273 177.611 20.1257C178.083 19.9248 178.593 19.8255 179.106 19.8343C179.623 19.8363 180.134 19.9405 180.61 20.1409C181.086 20.3412 181.517 20.6338 181.88 21.0017C182.617 21.7501 183.031 22.758 183.033 23.8085C183.033 24.4527 182.874 25.0869 182.571 25.6553C182.267 26.2236 181.829 26.7085 181.294 27.0674C180.759 27.4263 180.144 27.6481 179.503 27.7132C178.862 27.7783 178.215 27.6847 177.619 27.4407C177.146 27.244 176.717 26.9549 176.358 26.5905C175.625 25.8451 175.214 24.8415 175.214 23.7962C175.214 22.7508 175.625 21.7473 176.358 21.0019Z" fill="#8C97A4"/>
<path d="M197.808 57.5899L199.673 41.0965C199.705 40.2755 199.472 39.466 199.01 38.7865C198.726 38.4554 198.365 38.1987 197.958 38.0385C197.552 37.8784 197.113 37.8197 196.679 37.8675C196.121 37.8731 195.575 38.0248 195.094 38.3074C194.611 38.5916 194.21 38.9963 193.93 39.4819C193.232 40.5039 192.763 41.6648 192.556 42.885C191.41 51.1317 190.772 56.0333 190.641 57.5899H184.063L186.763 34.2412C187.785 33.9346 188.84 33.7512 189.905 33.6948C191.966 33.6948 193.095 34.3902 193.292 35.7811C194.723 34.4578 196.595 33.7141 198.544 33.6948C202.34 33.6948 204.762 34.8372 205.809 37.1222C206.56 36.0013 207.586 35.0926 208.79 34.4836C209.993 33.8745 211.333 33.5857 212.681 33.6448C214.569 33.5413 216.427 34.1533 217.884 35.3588C218.499 35.8884 218.99 36.5476 219.32 37.2892C219.651 38.0335 219.815 38.8416 219.799 39.6561C219.758 40.5391 219.66 41.4185 219.504 42.2886C218.751 47.2567 218.375 50.1712 218.376 51.032C218.376 52.5897 218.883 53.3681 219.897 53.3672C220.747 53.3672 221.655 52.7958 222.621 51.653C223.782 50.0845 224.578 48.2772 224.953 46.3623C225.8 47.1673 226.484 48.129 226.966 49.1942C225.264 54.9569 222.253 57.8384 217.933 57.8385C215.904 57.8385 214.399 57.2091 213.417 55.9502C212.487 54.8325 211.968 53.4301 211.945 51.9761L213.123 40.9972C213.152 40.196 212.91 39.4084 212.436 38.7619C212.168 38.4497 211.83 38.2055 211.45 38.0494C211.07 37.894 210.66 37.8316 210.251 37.8675C209.759 37.8671 209.271 37.9683 208.819 38.1649C208.367 38.3614 207.961 38.6491 207.625 39.01C206.844 39.8249 206.3 40.8386 206.055 41.9409C205.073 50.3536 204.434 55.5699 204.14 57.5899L197.808 57.5899Z" fill="#8C97A4"/>
<path d="M236.291 33.6942C237.679 33.6544 239.061 33.8932 240.355 34.3967C241.65 34.9001 242.83 35.6578 243.826 36.6251C244.799 37.5386 245.57 38.6463 246.089 39.8765C246.609 41.1106 246.867 42.4395 246.845 43.7787C246.845 48.0514 245.61 51.471 243.139 54.0376C241.996 55.2722 240.606 56.2536 239.061 56.9188C237.52 57.5812 235.857 57.9112 234.18 57.8873C230.679 57.8873 227.905 56.8773 225.86 54.8573C224.86 53.8885 224.072 52.7227 223.545 51.4337C223.017 50.1406 222.76 48.7525 222.792 47.3559C222.792 43.1824 224.052 39.8703 226.572 37.4198C227.86 36.1804 229.384 35.212 231.054 34.5721C232.723 33.9322 234.504 33.6337 236.291 33.6942ZM235.334 37.7182C233.78 37.7182 232.479 38.6123 231.432 40.4005C230.308 42.4758 229.718 44.7975 229.713 47.1572C229.649 48.8229 230.049 50.4738 230.867 51.926C231.225 52.5329 231.742 53.0303 232.362 53.3647C232.98 53.6971 233.677 53.8526 234.377 53.8141C235.948 53.8141 237.265 52.9365 238.328 51.1812C239.408 49.3646 239.961 47.2829 239.924 45.1698C240.012 43.3144 239.623 41.4672 238.795 39.8047C238.481 39.1574 237.985 38.615 237.37 38.243C236.757 37.873 236.049 37.6905 235.334 37.7182Z" fill="#8C97A4"/>
</svg>
