<svg width="316" height="62" viewBox="0 0 316 62" fill="none" xmlns="http://www.w3.org/2000/svg">
<path d="M32.52 19.9156C32.541 19.9577 32.5728 19.9935 32.6121 20.0193C32.6515 20.045 32.697 20.0598 32.744 20.0621C32.791 20.0644 32.8377 20.0542 32.8794 20.0324C32.9211 20.0107 32.9563 19.9782 32.9812 19.9383C34.5438 17.5339 36.4064 15.5832 38.5688 14.0861C38.8632 13.88 39.071 13.5726 39.152 13.2234C39.233 12.8742 39.1815 12.5081 39.0073 12.1959C37.8581 10.1393 36.1921 8.08521 34.0095 6.03367C32.5276 4.63489 31.6732 5.90513 30.5012 7.08465C29.3923 8.19863 28.4144 9.25717 27.5676 10.2603C27.383 10.4768 27.1284 10.6218 26.848 10.6702C26.5676 10.7185 26.2791 10.6671 26.0327 10.5249L25.5186 10.23C25.3889 10.1546 25.2765 10.0528 25.1886 9.93138C25.1008 9.80994 25.0395 9.67155 25.0089 9.52525C24.9782 9.37895 24.9788 9.22805 25.0106 9.0824C25.0424 8.93675 25.1047 8.79963 25.1934 8.68001C27.1694 5.97822 29.5964 3.72505 32.4747 1.9205C32.5805 1.85555 32.7025 1.82242 32.8259 1.8251C32.9494 1.82779 33.069 1.86617 33.1703 1.93562C39.1812 6.16977 45.1544 13.4888 42.7349 21.2766C42.3115 22.6527 42.0771 23.6432 42.0317 24.2481C42.0262 24.3177 42.0373 24.3877 42.0643 24.4523C42.0912 24.5168 42.1333 24.5742 42.187 24.6199C42.2407 24.6655 42.3046 24.698 42.3735 24.7149C42.4424 24.7317 42.5144 24.7324 42.5837 24.7168C45.0284 24.1674 47.5336 24.2556 50.0993 24.9815C51.2435 25.3091 51.9517 25.0142 52.2239 24.0968C53.0758 21.2539 53.5748 18.4664 53.721 15.7344C53.7339 15.5114 53.6605 15.2918 53.5158 15.1204C53.3711 14.9489 53.1659 14.8386 52.9422 14.812L46.2734 14.0559C45.9532 14.0194 45.6534 13.8796 45.4189 13.6574C45.1844 13.4352 45.028 13.1426 44.973 12.8234L44.9503 12.71C44.9234 12.5502 44.9306 12.3866 44.9715 12.2298C45.0123 12.073 45.0858 11.9266 45.1872 11.8003C45.2886 11.6739 45.4155 11.5704 45.5597 11.4965C45.7039 11.4227 45.8621 11.3801 46.0239 11.3717C49.5524 11.1953 52.8263 11.6565 55.8456 12.7554C55.9842 12.8065 56.1043 12.8979 56.1905 13.0179C56.2767 13.1378 56.3251 13.2807 56.3295 13.4283C56.6471 22.5544 54.5149 31.2646 44.6025 33.7749C44.5433 33.7897 44.488 33.8172 44.4404 33.8554C44.3929 33.8936 44.3541 33.9416 44.3268 33.9962C44.2995 34.0508 44.2844 34.1106 44.2823 34.1716C44.2803 34.2326 44.2915 34.2933 44.3151 34.3495C44.9352 35.8315 46.349 36.7161 47.2412 38.1678C47.9873 39.3877 48.5795 40.5546 49.0181 41.6685C49.1065 41.9015 49.2827 42.0905 49.5088 42.1951C49.735 42.2997 49.9931 42.3115 50.2278 42.2281C52.7582 41.3308 55.1853 40.1891 57.509 38.8029C58.6281 38.1376 58.8599 37.2378 58.2047 36.1037C57.6048 35.0653 56.7328 33.6942 55.5886 31.9905C54.7417 30.7203 54.9534 29.7197 56.2237 28.9888C56.3335 28.9261 56.4612 28.9025 56.5862 28.9217C56.7111 28.9409 56.8259 29.0019 56.9117 29.0946C59.4018 31.7763 61.1358 34.7704 62.1137 38.0771C62.1497 38.2011 62.1488 38.3329 62.1113 38.4564C62.0737 38.5799 62.0009 38.6898 61.902 38.7727C54.9686 44.5568 46.5381 48.2542 38.2966 41.9634C38.2587 41.9355 38.2141 41.9179 38.1673 41.9123C38.1205 41.9067 38.073 41.9134 38.0296 41.9317C37.9861 41.95 37.9482 41.9793 37.9194 42.0167C37.8907 42.054 37.8722 42.0982 37.8656 42.1449C37.4271 45.0483 36.545 47.74 35.2193 50.22C35.0823 50.4772 35.0474 50.7764 35.1218 51.0571C35.1962 51.3379 35.3743 51.5792 35.62 51.7322C38.4277 53.4763 41.0866 54.7238 43.5969 55.4749C43.7887 55.5328 43.9951 55.5166 44.1746 55.4297C44.3541 55.3427 44.4935 55.1914 44.5647 55.0061L46.9161 48.9876C47.0347 48.6786 47.2421 48.4113 47.5123 48.219C47.7825 48.0268 48.1037 47.918 48.4359 47.9064H48.4888C48.6551 47.9094 48.8187 47.9493 48.9678 48.0231C49.117 48.0969 49.2482 48.2028 49.3521 48.3334C49.456 48.464 49.5301 48.616 49.569 48.7787C49.608 48.9414 49.6109 49.1108 49.5776 49.2749C48.9425 52.3346 47.7226 55.2808 45.9181 58.1137C45.8349 58.2426 45.7195 58.3479 45.5831 58.4195C45.4467 58.491 45.2938 58.5263 45.1393 58.522C44.0152 58.4917 42.803 58.2372 41.5025 57.7583C36.9356 56.0722 32.6637 53.9476 30.1156 49.7588C28.9059 47.7854 28.4825 44.882 28.0212 42.349C28.0116 42.298 27.9889 42.2504 27.9555 42.2107C27.922 42.1709 27.8789 42.1405 27.8303 42.1223C27.7817 42.104 27.7292 42.0986 27.6779 42.1066C27.6266 42.1145 27.5782 42.1355 27.5373 42.1676C25.3598 43.8764 22.5597 45.0433 19.1371 45.6683C19.0087 45.6903 18.893 45.7595 18.8121 45.8628C18.7312 45.966 18.6908 46.096 18.6986 46.2278C18.875 49.3732 19.7117 52.3245 21.2088 55.0817C21.2757 55.1997 21.3807 55.2912 21.506 55.3408C21.6313 55.3904 21.7694 55.395 21.8969 55.3539L28.5505 53.1461C28.6836 53.1024 28.8239 53.0853 28.9636 53.0958C29.1032 53.1064 29.2394 53.1443 29.3644 53.2075C29.4894 53.2707 29.6007 53.3579 29.692 53.4641C29.7833 53.5704 29.8527 53.6935 29.8964 53.8266L30.0173 54.182C30.1037 54.4454 30.0933 54.7309 29.988 54.9873C29.8827 55.2437 29.6893 55.4542 29.4427 55.5807C26.5695 57.0677 23.4695 57.9826 20.1427 58.3254C19.9982 58.3411 19.8527 58.3125 19.7256 58.2436C19.5985 58.1746 19.496 58.0686 19.432 57.9398C16.1959 51.46 13.8595 43.2261 19.0691 36.9959C19.805 36.1188 20.5434 35.2266 21.2844 34.3193C21.3188 34.2787 21.3422 34.23 21.3524 34.1777C21.3625 34.1255 21.3592 34.0713 21.3426 34.0201C21.3261 33.9689 21.2969 33.9224 21.2576 33.8849C21.2184 33.8473 21.1704 33.8199 21.1181 33.8051C18.5322 33.1045 16.2009 31.8065 14.1242 29.9112C13.9121 29.7166 13.634 29.6099 13.3462 29.6127C13.0584 29.6155 12.7824 29.7276 12.5742 29.9264C10.4521 31.9729 8.65255 34.4629 7.17564 37.3966C7.07897 37.5874 7.05878 37.8079 7.11921 38.013C7.17963 38.2182 7.31611 38.3926 7.50076 38.5005L13.0051 41.729C13.3055 41.9033 13.5406 42.1706 13.6745 42.4902C13.8083 42.8097 13.8335 43.1639 13.7461 43.4983L13.731 43.5437C13.6781 43.7102 13.5913 43.8639 13.476 43.995C13.3607 44.126 13.2195 44.2316 13.0615 44.3049C12.9035 44.3782 12.7322 44.4177 12.5584 44.4207C12.3847 44.4237 12.2123 44.3902 12.0525 44.3224C8.45344 42.8052 5.82726 41.1242 4.17393 39.2793C3.99647 39.084 3.88036 38.8408 3.84003 38.58C3.7997 38.3192 3.83693 38.0523 3.9471 37.8124C5.25767 34.9242 6.97401 32.1972 9.09612 29.6315C12.2642 25.7981 18.3281 23.4617 23.1369 24.8151C23.2198 24.8384 23.3075 24.8388 23.3906 24.8162C23.4737 24.7937 23.5492 24.749 23.6089 24.6869C23.6687 24.6248 23.7105 24.5477 23.7298 24.4638C23.7492 24.3799 23.7455 24.2922 23.7191 24.2103C22.7664 21.1556 22.3026 18.3001 22.3278 15.6437C22.3305 15.3941 22.2431 15.1522 22.0817 14.963C21.9203 14.7738 21.6961 14.6502 21.4508 14.6154C18.6986 14.192 15.8934 14.1995 13.0354 14.6381C12.7608 14.6793 12.512 14.8232 12.3394 15.0407C12.1668 15.2583 12.0832 15.5332 12.1054 15.81L12.6422 22.7964C12.6505 22.8923 12.6396 22.989 12.6101 23.0807C12.5806 23.1724 12.5332 23.2573 12.4705 23.3305C12.4079 23.4037 12.3313 23.4637 12.2453 23.507C12.1592 23.5503 12.0654 23.576 11.9693 23.5827L11.1678 23.6432C10.9195 23.6649 10.6713 23.5969 10.4677 23.4515C10.2641 23.3061 10.1183 23.0926 10.0564 22.8493C9.29523 19.8955 9.09612 16.6972 9.45905 13.2544C9.48155 13.0634 9.56182 12.884 9.68896 12.7406C9.81611 12.5972 9.98398 12.4968 10.1698 12.4529C18.9783 10.3359 28.0288 10.8576 32.52 19.9156ZM26.3341 17.6947C25.975 17.8546 25.8491 18.4984 25.9839 19.4846C26.1188 20.4707 26.5033 21.7183 27.0531 22.953C27.6028 24.1877 28.2726 25.3083 28.9152 26.0684C29.5578 26.8284 30.1206 27.1656 30.4796 27.0058C30.8387 26.8459 30.9646 26.2021 30.8298 25.216C30.695 24.2298 30.3104 22.9822 29.7606 21.7475C29.2109 20.5128 28.5411 19.3922 27.8985 18.6321C27.2559 17.8721 26.6932 17.5349 26.3341 17.6947ZM39.5566 17.7365C39.2071 17.5751 38.6444 17.9127 37.9922 18.6751C37.34 19.4375 36.6519 20.5622 36.0791 21.8019C35.5063 23.0415 35.0958 24.2945 34.9379 25.2853C34.78 26.2761 34.8876 26.9234 35.2371 27.0849C35.5866 27.2464 36.1493 26.9088 36.8015 26.1464C37.4537 25.384 38.1419 24.2593 38.7147 23.0196C39.2875 21.78 39.698 20.527 39.8559 19.5362C40.0138 18.5454 39.9061 17.8981 39.5566 17.7365ZM48.2353 28.3357C48.1965 28.145 48.029 27.9825 47.7422 27.8573C47.4554 27.7322 47.055 27.6469 46.5638 27.6064C46.0726 27.5659 45.5003 27.5709 44.8796 27.6212C44.2589 27.6715 43.6018 27.7661 42.946 27.8995C42.2902 28.0329 41.6485 28.2026 41.0575 28.3988C40.4664 28.5951 39.9377 28.8141 39.5014 29.0432C39.0651 29.2724 38.7299 29.5074 38.5147 29.7346C38.2996 29.9619 38.2089 30.177 38.2477 30.3677C38.2865 30.5584 38.454 30.721 38.7408 30.8461C39.0276 30.9713 39.428 31.0565 39.9192 31.097C40.4103 31.1375 40.9826 31.1325 41.6034 31.0822C42.2241 31.0319 42.8812 30.9374 43.537 30.804C44.1928 30.6705 44.8345 30.5009 45.4255 30.3046C46.0166 30.1084 46.5453 29.8894 46.9816 29.6602C47.4179 29.431 47.7531 29.1961 47.9682 28.9688C48.1833 28.7416 48.2741 28.5265 48.2353 28.3357ZM18.0668 28.4576C17.9872 28.8261 18.4091 29.2872 19.2398 29.7396C20.0704 30.1919 21.2418 30.5984 22.4962 30.8696C23.7506 31.1408 24.9853 31.2545 25.9286 31.1858C26.8719 31.117 27.4467 30.8713 27.5264 30.5029C27.606 30.1344 27.1841 29.6733 26.3534 29.2209C25.5228 28.7686 24.3514 28.3621 23.097 28.0909C21.8426 27.8197 20.608 27.706 19.6646 27.7748C18.7213 27.8435 18.1465 28.0892 18.0668 28.4576ZM37.6315 35.1027C37.3741 35.4128 37.5287 36.0435 38.0612 36.8561C38.5937 37.6686 39.4607 38.5964 40.4712 39.4354C40.9716 39.8508 41.4922 40.232 42.0033 40.557C42.5144 40.8821 43.006 41.1447 43.4499 41.3298C43.8939 41.515 44.2816 41.6191 44.5909 41.6362C44.9001 41.6533 45.1249 41.5831 45.2524 41.4295C45.5098 41.1194 45.3553 40.4887 44.8227 39.6762C44.2902 38.8636 43.4233 37.9358 42.4127 37.0968C41.9123 36.6814 41.3917 36.3002 40.8806 35.9752C40.3696 35.6502 39.878 35.3875 39.434 35.2024C38.99 35.0172 38.6023 34.9131 38.2931 34.896C37.9838 34.8789 37.759 34.9491 37.6315 35.1027ZM28.838 35.0559C28.5976 34.7526 27.9543 34.7888 27.0498 35.1565C26.1453 35.5242 25.0536 36.1933 24.0148 37.0167C22.9761 37.84 22.0753 38.7501 21.5108 39.5467C20.9462 40.3434 20.7641 40.9613 21.0045 41.2646C21.2449 41.5679 21.8881 41.5317 22.7927 41.164C23.6972 40.7963 24.7889 40.1272 25.8277 39.3038C26.8664 38.4805 27.7672 37.5704 28.3317 36.7738C28.8963 35.9771 29.0784 35.3592 28.838 35.0559ZM33.2912 36.7411C33.0977 36.7353 32.9022 36.8614 32.7158 37.1121C32.5294 37.3627 32.3558 37.7331 32.2049 38.2021C32.054 38.671 31.9288 39.2294 31.8364 39.8452C31.7439 40.461 31.6862 41.1222 31.6663 41.7912C31.6262 43.1421 31.743 44.4423 31.991 45.4058C32.2391 46.3692 32.598 46.9171 32.9888 46.9287C33.1823 46.9345 33.3779 46.8084 33.5643 46.5577C33.7507 46.307 33.9243 45.9366 34.0752 45.4677C34.2261 44.9987 34.3513 44.4404 34.4437 43.8246C34.5361 43.2088 34.5939 42.5475 34.6137 41.8786C34.6538 40.5277 34.537 39.2275 34.289 38.264C34.041 37.3005 33.6821 36.7527 33.2912 36.7411Z" fill="#626A73"/>
<path d="M89.4086 36.3532C89.5324 36.3066 89.6655 36.2905 89.7967 36.3062C89.9279 36.3219 90.0532 36.3689 90.1617 36.4433C90.2703 36.5177 90.359 36.6171 90.4201 36.7331C90.4812 36.8491 90.5129 36.9782 90.5125 37.1093V40.8519C90.5126 41.2334 90.3822 41.6035 90.1428 41.9006C89.9035 42.1977 89.5697 42.404 89.1969 42.4851C81.9308 44.0653 74.1355 43.7402 71.784 35.3778C70.5591 31.0227 70.8616 25.6922 73.4852 21.9117C77.4623 16.188 84.6301 16.3771 90.7469 18.4185C90.8618 18.4567 90.9678 18.5178 91.0584 18.5978C91.149 18.6779 91.2223 18.7754 91.274 18.8843C91.3256 18.9932 91.3544 19.1114 91.3587 19.2315C91.363 19.3516 91.3427 19.4711 91.2989 19.5829L89.6884 23.7112C89.651 23.8057 89.5952 23.8918 89.5241 23.9644C89.4531 24.0371 89.3682 24.0948 89.2746 24.1342C89.1809 24.1737 89.0803 24.194 88.9787 24.1941C88.8771 24.1941 88.7765 24.1739 88.6828 24.1346C85.1745 22.6602 80.6077 21.9041 79.1106 26.3802C78.0974 29.4097 78.236 32.3786 79.5264 35.2871C81.0538 38.7273 86.7472 37.3663 89.4086 36.3532Z" fill="#8C97A4"/>
<path d="M208.002 32.4325C207.982 35.298 206.825 38.0382 204.784 40.0503C202.744 42.0623 199.988 43.1814 197.122 43.1614L193.902 43.1389C191.036 43.1189 188.296 41.9614 186.284 39.9211C184.272 37.8807 183.153 35.1246 183.173 32.2591L183.203 27.8436C183.223 24.9781 184.381 22.2379 186.421 20.2258C188.462 18.2138 191.218 17.0946 194.083 17.1146L197.304 17.1372C200.17 17.1572 202.91 18.3147 204.922 20.355C206.934 22.3954 208.053 25.1515 208.033 28.017L208.002 32.4325ZM195.428 22.805C194.751 22.8168 194.085 23.0211 193.467 23.4062C192.849 23.7914 192.291 24.3498 191.825 25.0496C191.359 25.7494 190.994 26.5769 190.751 27.4849C190.508 28.3928 190.392 29.3635 190.409 30.3414C190.444 32.3163 191.019 34.2008 192.009 35.5804C192.999 36.9601 194.322 37.7217 195.687 37.6979C196.364 37.6861 197.03 37.4818 197.648 37.0967C198.266 36.7116 198.824 36.1532 199.29 35.4533C199.756 34.7535 200.121 33.926 200.364 33.018C200.607 32.1101 200.723 31.1394 200.706 30.1616C200.671 28.1866 200.096 26.3021 199.106 24.9225C198.116 23.5429 196.793 22.7812 195.428 22.805Z" fill="#8C97A4"/>
<path d="M229.831 36.338C229.954 36.2917 230.087 36.2755 230.217 36.2908C230.348 36.3061 230.473 36.3525 230.581 36.426C230.69 36.4995 230.779 36.598 230.84 36.713C230.902 36.828 230.934 36.9562 230.935 37.0866L230.958 40.8368C230.96 41.2186 230.83 41.5896 230.591 41.8881C230.351 42.1866 230.017 42.3947 229.642 42.4776C222.376 44.088 214.566 43.8007 212.176 35.4383C210.929 31.0832 211.209 25.7451 213.817 21.9419C217.779 16.1956 224.954 16.3544 231.094 18.3656C231.209 18.4038 231.315 18.4648 231.405 18.5449C231.496 18.625 231.569 18.7225 231.621 18.8314C231.673 18.9403 231.702 19.0584 231.706 19.1785C231.71 19.2986 231.69 19.4182 231.646 19.53L230.051 23.6734C230.014 23.7686 229.959 23.8554 229.888 23.9289C229.817 24.0023 229.732 24.0609 229.639 24.101C229.545 24.1412 229.444 24.1622 229.342 24.1628C229.24 24.1634 229.139 24.1435 229.045 24.1044C225.529 22.6451 220.955 21.9041 219.473 26.3954C218.47 29.4349 218.621 32.4063 219.926 35.3097C221.476 38.75 227.17 37.3588 229.831 36.338Z" fill="#8C97A4"/>
<path d="M120.635 35.771C122.745 36.7539 129.474 38.8256 130.843 36.3229C130.942 36.14 131.003 35.9387 131.021 35.7315C131.039 35.5244 131.015 35.3158 130.95 35.1188C130.885 34.9217 130.78 34.7404 130.642 34.5859C130.504 34.4315 130.335 34.3073 130.147 34.221C125.172 31.9602 119.668 30.1532 120.174 24.1876C120.915 15.3563 131.916 16.8307 137.511 18.5244C137.587 18.5472 137.651 18.5988 137.689 18.668C137.727 18.7373 137.737 18.8187 137.716 18.8949L136.279 24.2632C136.27 24.2989 136.253 24.3323 136.23 24.361C136.207 24.3897 136.178 24.4131 136.145 24.4296C136.112 24.4461 136.076 24.4553 136.039 24.4566C136.002 24.4579 135.965 24.4512 135.931 24.4371C134.026 23.6659 129.24 21.9722 127.365 23.7641C127.271 23.8531 127.208 23.9681 127.179 24.1012C127.15 24.2344 127.155 24.3825 127.196 24.5354C127.236 24.6883 127.31 24.8425 127.412 24.9873C127.514 25.1322 127.642 25.2643 127.788 25.3746C128.937 26.2568 130.419 27.038 132.234 27.7185C132.95 27.9907 134.278 28.825 136.219 30.2212C136.492 30.4149 136.712 30.6692 136.861 30.9622C139.311 35.6878 137.595 41.419 132.204 42.7271C128.61 43.5991 124.799 43.3899 120.771 42.0995C120.55 42.0288 120.356 41.8889 120.219 41.7C120.082 41.511 120.008 41.2829 120.008 41.0485V36.1717C120.007 36.0972 120.025 36.0237 120.061 35.9582C120.096 35.8926 120.148 35.8372 120.21 35.7971C120.273 35.757 120.345 35.7335 120.419 35.729C120.494 35.7244 120.568 35.7389 120.635 35.771Z" fill="#8C97A4"/>
<path d="M273.239 38.2056C272.105 38.2107 271.039 38.1678 270.04 38.0771C269.878 38.0621 269.716 38.1026 269.58 38.1919C269.444 38.2812 269.343 38.414 269.292 38.5685L268.007 42.5381C267.959 42.6854 267.865 42.8137 267.738 42.9047C267.612 42.9957 267.46 43.0447 267.303 43.0446L260.718 43.09C260.649 43.0898 260.58 43.0733 260.519 43.0418C260.457 43.0103 260.404 42.9646 260.364 42.9086C260.323 42.8525 260.296 42.7877 260.286 42.7194C260.275 42.651 260.28 42.5811 260.302 42.5154L268.233 18.0254C268.278 17.8843 268.365 17.7599 268.482 17.6682C268.6 17.5766 268.742 17.5219 268.891 17.5112C270.247 17.4306 271.664 17.3877 273.14 17.3827C274.617 17.3726 276.034 17.4029 277.39 17.4734C277.539 17.4821 277.683 17.535 277.801 17.6253C277.92 17.7156 278.008 17.8392 278.055 17.98L286.213 42.3944C286.235 42.4595 286.24 42.5288 286.23 42.5965C286.22 42.6643 286.194 42.7287 286.154 42.7846C286.114 42.8405 286.062 42.8862 286.001 42.9183C285.941 42.9503 285.874 42.9677 285.805 42.969L279.212 42.9917C279.055 42.9918 278.903 42.9428 278.777 42.8518C278.651 42.7608 278.557 42.6325 278.509 42.4851L277.193 38.5307C277.141 38.3748 277.036 38.2417 276.897 38.1536C276.758 38.0655 276.593 38.0278 276.429 38.0468C275.436 38.1476 274.373 38.2006 273.239 38.2056ZM271.016 32.051C271.001 32.1145 271.001 32.1806 271.015 32.2443C271.029 32.308 271.058 32.3675 271.099 32.4185C271.14 32.4695 271.192 32.5105 271.25 32.5385C271.309 32.5666 271.374 32.5808 271.439 32.5802L275.265 32.5727C275.33 32.5721 275.393 32.557 275.451 32.5285C275.509 32.5 275.56 32.4588 275.6 32.408C275.64 32.3572 275.668 32.298 275.682 32.2349C275.696 32.1718 275.696 32.1064 275.681 32.0434L273.753 23.9154C273.731 23.8207 273.677 23.7363 273.601 23.6759C273.525 23.6155 273.431 23.5826 273.333 23.5826C273.236 23.5826 273.142 23.6155 273.065 23.6759C272.989 23.7363 272.936 23.8207 272.914 23.9154L271.016 32.051Z" fill="#8C97A4"/>
<path d="M105.657 17.3827C107.134 17.3776 108.55 17.4129 109.906 17.4885C110.056 17.4972 110.199 17.5501 110.318 17.6404C110.436 17.7307 110.525 17.8543 110.572 17.9951L118.662 42.4549C118.683 42.5206 118.689 42.5905 118.678 42.6589C118.668 42.7272 118.641 42.792 118.6 42.8481C118.56 42.9041 118.506 42.9498 118.445 42.9813C118.383 43.0128 118.315 43.0293 118.246 43.0295H111.653C111.496 43.0296 111.344 42.9806 111.218 42.8896C111.091 42.7986 110.998 42.6702 110.95 42.5229L109.642 38.561C109.591 38.405 109.488 38.2712 109.35 38.1818C109.213 38.0924 109.049 38.0528 108.886 38.0695C107.893 38.1703 106.826 38.2207 105.687 38.2207C104.553 38.2207 103.487 38.1728 102.489 38.0771C102.325 38.0608 102.16 38.1015 102.022 38.1924C101.885 38.2832 101.782 38.4187 101.733 38.5761L100.44 42.538C100.392 42.6854 100.298 42.8137 100.172 42.9047C100.045 42.9957 99.8932 43.0447 99.7367 43.0446L93.1436 43.0673C93.0744 43.0671 93.0062 43.0506 92.9447 43.0191C92.8831 42.9876 92.8299 42.9419 92.7893 42.8859C92.7488 42.8298 92.7221 42.765 92.7113 42.6967C92.7006 42.6283 92.7062 42.5584 92.7277 42.4927L100.742 18.0102C100.789 17.8705 100.876 17.7478 100.993 17.6576C101.11 17.5673 101.252 17.5138 101.4 17.5037C102.756 17.423 104.175 17.3827 105.657 17.3827ZM103.404 32.2173C103.393 32.2623 103.393 32.3091 103.404 32.354C103.414 32.399 103.435 32.441 103.464 32.4767C103.493 32.5125 103.53 32.5411 103.572 32.5603C103.614 32.5796 103.66 32.589 103.706 32.5878L107.895 32.55C107.941 32.55 107.985 32.5398 108.026 32.52C108.067 32.5003 108.104 32.4715 108.132 32.4359C108.16 32.4003 108.18 32.3587 108.19 32.3143C108.2 32.2699 108.2 32.2239 108.19 32.1795L106.012 23.5146C105.994 23.4514 105.955 23.396 105.902 23.3569C105.849 23.3178 105.784 23.2971 105.718 23.2979C105.652 23.2988 105.589 23.3212 105.537 23.3617C105.485 23.4021 105.447 23.4585 105.43 23.5222L103.404 32.2173Z" fill="#8C97A4"/>
<path d="M148.498 17.4205H142.404C142.111 17.4205 141.875 17.6574 141.875 17.9497V42.4927C141.875 42.785 142.111 43.0219 142.404 43.0219H148.498C148.79 43.0219 149.027 42.785 149.027 42.4927V17.9497C149.027 17.6574 148.79 17.4205 148.498 17.4205Z" fill="#8C97A4"/>
<path d="M257.776 18.2144V42.4852C257.776 42.6416 257.714 42.7916 257.604 42.9022C257.493 43.0128 257.343 43.0749 257.187 43.0749H250.979C250.823 43.0749 250.673 43.0128 250.562 42.9022C250.451 42.7916 250.389 42.6416 250.389 42.4852V33.2986C250.389 33.1422 250.327 32.9921 250.217 32.8815C250.106 32.7709 249.956 32.7088 249.8 32.7088H243.388C243.231 32.7088 243.081 32.7709 242.971 32.8815C242.86 32.9921 242.798 33.1422 242.798 33.2986V42.4473C242.798 42.6038 242.736 42.7538 242.625 42.8644C242.515 42.975 242.365 43.0371 242.208 43.0371H236.19C236.033 43.0371 235.883 42.975 235.773 42.8644C235.662 42.7538 235.6 42.6038 235.6 42.4473V17.9952C235.6 17.8387 235.662 17.6887 235.773 17.5781C235.883 17.4675 236.033 17.4054 236.19 17.4054H242.186C242.342 17.4054 242.492 17.4675 242.603 17.5781C242.713 17.6887 242.775 17.8387 242.775 17.9952V26.3122C242.775 26.3897 242.791 26.4664 242.82 26.5379C242.85 26.6095 242.893 26.6745 242.948 26.7292C243.003 26.784 243.068 26.8275 243.14 26.8571C243.211 26.8867 243.288 26.902 243.365 26.902H249.837C249.994 26.902 250.144 26.8398 250.254 26.7292C250.365 26.6186 250.427 26.4686 250.427 26.3122V18.2144C250.427 18.137 250.442 18.0603 250.472 17.9887C250.502 17.9172 250.545 17.8522 250.6 17.7974C250.655 17.7426 250.72 17.6992 250.791 17.6696C250.863 17.6399 250.939 17.6247 251.017 17.6247H257.187C257.264 17.6247 257.341 17.6399 257.412 17.6696C257.484 17.6992 257.549 17.7426 257.604 17.7974C257.658 17.8522 257.702 17.9172 257.732 17.9887C257.761 18.0603 257.776 18.137 257.776 18.2144Z" fill="#8C97A4"/>
<path d="M172.625 17.6474H178.53C178.565 17.6474 178.599 17.6542 178.631 17.6675C178.663 17.6808 178.693 17.7003 178.717 17.7249C178.742 17.7494 178.761 17.7786 178.774 17.8107C178.788 17.8428 178.795 17.8772 178.795 17.912V42.7498C178.795 42.82 178.767 42.8873 178.717 42.9369C178.667 42.9865 178.6 43.0144 178.53 43.0144H169.616C169.567 43.0142 169.52 43.0008 169.478 42.9754C169.437 42.9501 169.403 42.9139 169.381 42.8708L161.026 26.4786C160.999 26.4263 160.955 26.3847 160.901 26.3603C160.847 26.336 160.787 26.3303 160.73 26.3442C160.672 26.3581 160.621 26.3908 160.584 26.4371C160.548 26.4833 160.528 26.5405 160.527 26.5996V42.7498C160.527 42.82 160.499 42.8873 160.45 42.9369C160.4 42.9865 160.333 43.0144 160.263 43.0144H154.463C154.393 43.0144 154.326 42.9865 154.276 42.9369C154.227 42.8873 154.199 42.82 154.199 42.7498V17.8666C154.199 17.7964 154.227 17.7291 154.276 17.6795C154.326 17.6299 154.393 17.602 154.463 17.602H163.476C163.525 17.6022 163.572 17.6157 163.613 17.641C163.655 17.6663 163.688 17.7025 163.71 17.7456L171.861 33.7371C171.889 33.7894 171.933 33.831 171.986 33.8554C172.04 33.8797 172.101 33.8854 172.158 33.8715C172.215 33.8576 172.266 33.8249 172.303 33.7786C172.34 33.7323 172.36 33.6752 172.36 33.6161V17.912C172.36 17.8772 172.367 17.8428 172.38 17.8107C172.394 17.7786 172.413 17.7494 172.438 17.7249C172.462 17.7003 172.491 17.6808 172.524 17.6675C172.556 17.6542 172.59 17.6474 172.625 17.6474Z" fill="#8C97A4"/>
<path d="M295.037 26.0627C295.011 26.0408 294.979 26.0273 294.946 26.024C294.912 26.0207 294.878 26.0277 294.849 26.0441C294.819 26.0605 294.795 26.0856 294.78 26.1159C294.765 26.1463 294.76 26.1805 294.765 26.2139C295.634 31.5369 295.196 37.3815 295.279 42.7195C295.28 42.7589 295.273 42.7981 295.259 42.8347C295.244 42.8714 295.223 42.9048 295.195 42.933C295.168 42.9611 295.135 42.9835 295.099 42.9988C295.062 43.0141 295.023 43.022 294.984 43.022H289.223C289.14 43.022 289.062 42.9893 289.003 42.9312C288.945 42.8731 288.913 42.7942 288.913 42.712V17.98C288.913 17.8778 288.953 17.7797 289.026 17.7074C289.098 17.635 289.196 17.5944 289.298 17.5944H297.351C297.603 17.5941 297.851 17.6639 298.065 17.7961C298.28 17.9282 298.454 18.1176 298.568 18.343L306.499 33.9034C306.523 33.9485 306.561 33.9847 306.608 34.0061C306.655 34.0276 306.707 34.0331 306.756 34.0217C306.805 34.0103 306.848 33.9826 306.879 33.9433C306.909 33.904 306.925 33.8553 306.923 33.8052V18.0632C306.923 18.0076 306.934 17.9525 306.956 17.9012C306.977 17.8498 307.009 17.8031 307.049 17.7638C307.089 17.7245 307.137 17.6933 307.189 17.672C307.241 17.6507 307.297 17.6398 307.354 17.6398H312.73C312.846 17.6398 312.958 17.6852 313.04 17.766C313.122 17.8468 313.168 17.9565 313.168 18.0708V42.6666C313.168 42.7609 313.131 42.8513 313.064 42.9179C312.997 42.9845 312.907 43.022 312.813 43.022H304.821C304.692 43.0217 304.565 42.9907 304.451 42.9316C304.336 42.8724 304.238 42.7867 304.163 42.6817C303.326 41.4921 302.747 40.5823 302.424 39.9522C300.236 35.6828 297.976 31.3201 295.642 26.8642C295.465 26.5365 295.264 26.2694 295.037 26.0627Z" fill="#8C97A4"/>
</svg>
