<svg width="251" height="50" viewBox="0 0 251 50" fill="none" xmlns="http://www.w3.org/2000/svg">
<g clip-path="url(#clip0_7759_3609)">
<path d="M116.412 0.963568C113.692 0.949322 111.475 2.98332 111.462 5.50663C111.449 8.02994 113.644 10.087 116.365 10.1013C119.085 10.1155 121.302 8.08153 121.315 5.55822C121.328 3.03491 119.133 0.977814 116.412 0.963568Z" fill="#8C97A4"/>
<path d="M213.262 0.956974C210.523 0.937852 208.288 2.9738 208.27 5.5044C208.253 8.035 210.459 10.102 213.198 10.1211C215.937 10.1402 218.172 8.10425 218.189 5.57365C218.207 3.04305 216.001 0.976097 213.262 0.956974Z" fill="#8C97A4"/>
<path d="M52.6818 6.08862H74.9569C75.0178 6.08862 75.0781 6.10061 75.1343 6.12391C75.1905 6.1472 75.2416 6.18134 75.2847 6.22438C75.3277 6.26742 75.3618 6.31852 75.3851 6.37476C75.4084 6.43099 75.4204 6.49127 75.4204 6.55214V13.2863C75.4204 13.3472 75.4084 13.4075 75.3851 13.4637C75.3618 13.5199 75.3277 13.571 75.2847 13.6141C75.2416 13.6571 75.1905 13.6913 75.1343 13.7146C75.0781 13.7379 75.0178 13.7498 74.9569 13.7498H60.8131C60.6902 13.7498 60.5723 13.7987 60.4854 13.8856C60.3984 13.9725 60.3496 14.0904 60.3496 14.2134V18.5108C60.3496 18.6337 60.3984 18.7516 60.4854 18.8385C60.5723 18.9255 60.6902 18.9743 60.8131 18.9743H73.4737C73.5966 18.9743 73.7145 19.0231 73.8014 19.1101C73.8883 19.197 73.9372 19.3149 73.9372 19.4378V26.1323C73.9372 26.2552 73.8883 26.3731 73.8014 26.46C73.7145 26.547 73.5966 26.5958 73.4737 26.5958H60.78C60.6571 26.5958 60.5392 26.6446 60.4523 26.7315C60.3653 26.8185 60.3165 26.9364 60.3165 27.0593V38.5743C60.3165 38.6972 60.2677 38.8151 60.1807 38.9021C60.0938 38.989 59.9759 39.0378 59.853 39.0378H52.6818C52.5588 39.0378 52.4409 38.989 52.354 38.9021C52.2671 38.8151 52.2183 38.6972 52.2183 38.5743V6.55214C52.2183 6.49127 52.2303 6.43099 52.2535 6.37476C52.2768 6.31852 52.311 6.26742 52.354 6.22438C52.3971 6.18134 52.4482 6.1472 52.5044 6.12391C52.5606 6.10061 52.6209 6.08862 52.6818 6.08862Z" fill="#8C97A4"/>
<path d="M19.4345 35.6012L22.0832 30.582C22.136 30.4896 22.1981 30.403 22.2686 30.3238C24.0608 28.3064 26.4601 27.0152 29.4663 26.4501C29.5132 26.4416 29.5614 26.4431 29.6076 26.4546C29.6539 26.466 29.6972 26.4872 29.7348 26.5166C29.7723 26.546 29.8032 26.583 29.8254 26.6252C29.8476 26.6674 29.8606 26.7138 29.8636 26.7613C30.0799 29.7676 31.413 31.6702 33.863 32.4692C36.1342 33.2042 36.8957 34.3563 37.5513 36.3627C37.5824 36.4618 37.5783 36.5685 37.5396 36.6641C37.5009 36.7597 37.43 36.8382 37.3394 36.8858L36.3726 37.4089C36.2507 37.4733 36.1511 37.5726 36.0863 37.6941C36.0215 37.8156 35.9945 37.9539 36.0087 38.0914C36.0229 38.229 36.0776 38.3597 36.166 38.4669C36.2543 38.574 36.3723 38.6529 36.5051 38.6935C36.9465 38.8215 37.5513 38.8105 38.3194 38.6604C38.4333 38.6383 38.5402 38.5874 38.6303 38.5122C38.7205 38.4371 38.7912 38.3401 38.8359 38.23C39.6084 36.323 39.7982 34.6146 39.4053 33.1049C39.3751 32.9962 39.3893 32.8798 39.4451 32.7807C39.5008 32.6817 39.5935 32.6078 39.7033 32.5751C39.8313 32.5354 40.0211 32.5354 40.2728 32.5751C41.0475 32.6877 41.9017 32.1513 42.3519 31.6349C42.4467 31.5276 42.5167 31.4002 42.5577 31.2602C42.5987 31.1201 42.61 30.97 42.5909 30.8186C42.5718 30.6673 42.5227 30.5175 42.4465 30.378C42.3703 30.2386 42.2684 30.1121 42.1467 30.0059C40.9548 28.973 39.9924 27.887 39.2596 26.7481C39.133 26.5518 39.0495 26.3306 39.0146 26.0992C38.5842 23.093 41.4646 22.3249 43.3386 24.2253C44.5437 25.4569 45.5193 26.5252 46.2653 27.4301C46.3427 27.5229 46.396 27.6332 46.4205 27.7515C46.4451 27.8697 46.4401 27.9922 46.4061 28.1081C46.372 28.2239 46.31 28.3296 46.2254 28.4158C46.1408 28.502 46.0362 28.566 45.921 28.6022L45.5038 28.728C45.1753 28.8281 44.8208 28.798 44.5139 28.6439C44.207 28.4898 43.9711 28.2235 43.8551 27.9003C43.418 26.6951 43.418 24.9603 42.0473 24.1789C41.8466 24.0649 41.6243 23.993 41.3966 23.9686C41.169 23.9441 40.9418 23.9676 40.7317 24.0375C40.5215 24.1073 40.3338 24.2216 40.1822 24.3721C40.0306 24.5227 39.919 24.7055 39.8556 24.9073C39.3788 26.4435 41.6302 28.3108 43.2061 29.9463C43.3802 30.1247 43.4777 30.3647 43.4776 30.6151C43.4578 32.2705 42.3586 33.0188 40.9746 33.4492C40.9035 33.4709 40.8396 33.5128 40.7905 33.5701C40.7413 33.6275 40.7088 33.698 40.6965 33.7736L39.9218 38.9584C39.9028 39.0836 39.8396 39.1978 39.7437 39.2804C39.6477 39.363 39.5253 39.4085 39.3987 39.4086H35.3264C35.1897 39.4089 35.0581 39.357 34.9584 39.2634C34.8587 39.1699 34.7985 39.0418 34.7901 38.9054C34.7238 38.049 35.0836 37.3537 35.8694 36.8196C36.0173 36.7174 36.1324 36.5747 36.2006 36.4089C36.2688 36.2431 36.2872 36.0614 36.2534 35.8859C36.1519 35.3783 35.823 34.7669 35.2668 34.0518C35.0196 33.7339 34.4082 33.4293 33.4326 33.138C31.168 32.4626 29.7267 30.7674 29.1087 28.0526C29.0902 27.9684 29.0548 27.889 29.0046 27.8189C28.9545 27.7489 28.8906 27.6898 28.8169 27.6452C28.7432 27.6007 28.6613 27.5715 28.576 27.5596C28.4907 27.5476 28.4038 27.5532 28.3207 27.5758C23.7849 28.7611 22.1626 31.4495 20.5469 35.9455C20.5251 35.9978 20.516 36.0546 20.5205 36.1111L20.5933 38.7796C20.596 38.8604 20.5823 38.9409 20.5533 39.0163C20.5242 39.0917 20.4802 39.1605 20.424 39.2186C20.3678 39.2766 20.3004 39.3228 20.226 39.3543C20.1516 39.3858 20.0716 39.4021 19.9907 39.402H15.8787C15.8283 39.4021 15.7784 39.392 15.7321 39.3724C15.6857 39.3529 15.6439 39.3242 15.6092 39.2883C15.5745 39.2524 15.5476 39.2098 15.5302 39.1634C15.5128 39.1169 15.5052 39.0674 15.5079 39.018C15.594 37.1904 16.7395 36.4554 18.1896 35.7336C18.2476 35.7058 18.2967 35.6627 18.3318 35.6089C18.3669 35.5551 18.3865 35.4927 18.3885 35.4285C18.3906 35.3643 18.375 35.3007 18.3434 35.2448C18.3118 35.1889 18.2655 35.1426 18.2095 35.1112L17.8453 34.8993C17.7543 34.8472 17.6789 34.7718 17.6268 34.6808C15.9648 31.615 14.5014 30.5026 12.4619 28.5293C12.3163 28.3925 12.239 28.2159 12.2302 27.9996C12.2169 27.7965 12.1772 27.684 12.111 27.6619C12.0784 27.6494 12.0433 27.6448 12.0085 27.6482C11.9738 27.6517 11.9403 27.6632 11.9107 27.6818C11.8812 27.7004 11.8564 27.7257 11.8383 27.7556C11.8202 27.7854 11.8092 27.8191 11.8064 27.8539C11.6342 29.5424 11.5482 38.4154 7.85992 37.1705C7.42289 37.0249 7.02118 37.0491 6.65478 37.2434C6.52863 37.3106 6.42682 37.4146 6.3626 37.5417C6.29839 37.6689 6.27474 37.8133 6.29475 37.9562C6.31475 38.0991 6.37749 38.2339 6.47477 38.3429C6.57206 38.452 6.69939 38.5303 6.84019 38.5677C7.19775 38.6604 7.60829 38.6163 8.07181 38.4353C8.29689 38.3488 8.54257 38.3282 8.78032 38.3757C11.7998 38.9849 12.793 35.8595 14.4286 33.1645C14.4812 33.0767 14.5651 33.0122 14.6634 32.9839C14.7617 32.9556 14.8671 32.9657 14.9583 33.0122L14.9715 33.0188C15.0161 33.0411 15.0557 33.0722 15.088 33.1102C15.1203 33.1482 15.1445 33.1923 15.1594 33.2399C15.1742 33.2875 15.1793 33.3376 15.1743 33.3872C15.1694 33.4368 15.1544 33.4849 15.1305 33.5286C13.6207 36.2965 13.0579 37.8195 11.2237 39.1504C11.0514 39.2751 10.8429 39.3423 10.6278 39.3424H5.80721C5.67475 39.3423 5.54441 39.3096 5.42749 39.2472C5.31057 39.1848 5.2106 39.0946 5.13625 38.9844C5.06189 38.8742 5.01539 38.7472 5.00077 38.6146C4.98615 38.482 5.00385 38.3477 5.05235 38.2234L5.38343 37.389C5.53193 37.0168 5.80938 36.7106 6.16468 36.5269C6.51998 36.3431 6.9292 36.2942 7.31694 36.3892C10.7072 37.2036 10.8595 30.1384 10.7138 28.1254C10.7007 27.9067 10.6445 27.6908 10.5483 27.4897C9.01208 24.254 8.1314 22.4374 7.90627 22.0401C7.65023 21.5899 7.16023 21.2809 6.43627 21.1131C6.31326 21.084 6.19794 21.0301 6.09762 20.9548C5.9973 20.8796 5.91419 20.7847 5.85357 20.6761C5.24438 19.6078 4.21802 18.6234 2.77451 17.7228C2.61025 17.6219 2.49212 17.4603 2.44514 17.2724C2.39817 17.0845 2.42606 16.8851 2.52289 16.7163L4.86032 12.6705C4.95083 12.511 5.08934 12.3817 5.25762 12.2997C6.4142 11.7479 7.27501 11.0527 7.84005 10.2139C9.13127 8.28702 10.9323 7.31364 12.846 7.35337C17.6732 7.45932 21.3945 11.2668 23.2817 15.498C23.3074 15.5564 23.3451 15.6088 23.3924 15.6518C23.4396 15.6949 23.4955 15.7277 23.5564 15.7482C23.6173 15.7687 23.682 15.7765 23.7464 15.771C23.8108 15.7656 23.8735 15.747 23.9306 15.7165L39.3126 7.40635C39.4236 7.34487 39.5464 7.30771 39.673 7.29732C39.7995 7.28693 39.927 7.30353 40.047 7.34604C40.1671 7.38855 40.277 7.45602 40.3695 7.544C40.462 7.63199 40.5351 7.73852 40.584 7.85662C41.5176 10.0682 40.7363 11.7236 39.7894 13.5645C39.6868 13.7648 39.6632 13.9985 39.7232 14.22C40.4251 16.7097 39.6437 18.5814 37.3791 19.8351C36.9641 20.0647 35.205 20.9718 32.1017 22.5566C32.0024 22.6059 31.8911 22.6259 31.7808 22.6142C31.6706 22.6025 31.5659 22.5595 31.4792 22.4904L31.4329 22.4573C31.3986 22.4332 31.371 22.4007 31.3528 22.3628C31.3347 22.325 31.3266 22.2832 31.3292 22.2413C31.3319 22.1994 31.3452 22.1589 31.368 22.1237C31.3908 22.0885 31.4223 22.0597 31.4594 22.0401L37.2864 18.8684C37.6643 18.6626 37.9981 18.3835 38.2686 18.0471C38.539 17.7108 38.7408 17.3238 38.8623 16.9084L39.2861 15.4384C39.3413 15.2547 39.3405 15.0587 39.2839 14.8754C39.2274 14.6921 39.1175 14.5298 38.9684 14.4091C38.8194 14.2884 38.6377 14.2148 38.4467 14.1976C38.2556 14.1805 38.0638 14.2205 37.8956 14.3127L21.6395 23.0996C21.5305 23.1588 21.4026 23.1725 21.2835 23.1378C21.1644 23.1031 21.0639 23.0227 21.0038 22.9142L20.9111 22.742C20.8882 22.6982 20.8837 22.6468 20.8985 22.5987C20.9133 22.5506 20.9463 22.5094 20.9906 22.4838L38.2399 13.1605C38.7645 12.8765 39.2158 12.4745 39.5583 11.9861C39.9007 11.4976 40.1249 10.9363 40.2132 10.3463L40.3191 9.65108C40.3466 9.46189 40.3211 9.26877 40.2454 9.09322C40.1697 8.91767 40.0468 8.76658 39.8903 8.65676C39.7338 8.54694 39.5499 8.4827 39.359 8.4712C39.1682 8.4597 38.9779 8.50139 38.8094 8.59162C29.3758 13.6682 24.5376 16.2462 24.2948 16.3257C24.0034 16.4228 22.8469 17.0673 20.8251 18.2592C19.5316 19.0185 18.3684 19.6453 17.3355 20.1397C14.2564 21.6031 13.2896 23.0466 12.6937 26.1588C12.6707 26.2801 12.6736 26.4057 12.7021 26.5276C12.7306 26.6495 12.7841 26.7651 12.8592 26.8673C13.9761 28.3859 14.9826 29.6042 15.8787 30.5224C17.4546 32.1513 18.2625 33.767 18.9776 35.5747C18.9951 35.6197 19.0251 35.6586 19.0641 35.687C19.1031 35.7153 19.1494 35.7319 19.1976 35.7347C19.2457 35.7375 19.2936 35.7264 19.3356 35.7027C19.3776 35.6791 19.412 35.6438 19.4345 35.6012ZM11.1509 26.5826C11.1935 26.6428 11.2534 26.6884 11.3227 26.7132C11.3921 26.738 11.4675 26.741 11.5392 26.7216C11.6109 26.7023 11.6755 26.6615 11.7243 26.6048C11.7732 26.5481 11.8041 26.478 11.813 26.4038C12.1088 23.3887 13.4839 21.2323 15.9383 19.9345C16.9051 19.4268 18.8717 18.332 21.8382 16.6501C22.0901 16.5073 22.2767 16.2724 22.3583 15.9954C22.4399 15.7185 22.4101 15.4212 22.2752 15.1669C20.4079 11.664 17.0242 8.16783 12.8394 8.20756C10.8264 8.22522 9.44469 9.09707 8.69424 10.8231C8.63619 10.9568 8.61539 11.1037 8.63404 11.2482C8.65269 11.3928 8.7101 11.5296 8.80019 11.6442C10.2371 13.4453 9.17762 14.6438 8.8664 16.4912C8.23956 20.2258 9.00104 23.5896 11.1509 26.5826ZM7.69438 11.8097C6.20672 12.2159 5.35032 13.1031 5.12519 14.4716C5.0904 14.6715 5.00624 14.8603 4.88019 15.0212L3.6883 16.4713C3.63066 16.5433 3.58953 16.627 3.56782 16.7166C3.54612 16.8061 3.54436 16.8994 3.56268 16.9897C3.581 17.0801 3.61895 17.1653 3.67384 17.2393C3.72873 17.3134 3.79922 17.3744 3.88032 17.4182C5.20023 18.1113 6.15816 19.0803 6.75411 20.3251C6.80013 20.4216 6.87327 20.5025 6.96457 20.558C7.05587 20.6135 7.16138 20.6412 7.26818 20.6377C7.37497 20.6342 7.47843 20.5996 7.56589 20.5382C7.65334 20.4768 7.721 20.3913 7.76059 20.292C7.93717 19.8462 7.92393 19.3716 7.72086 18.8684C7.67977 18.7691 7.60983 18.6845 7.52011 18.6255C7.43039 18.5665 7.32501 18.5358 7.21762 18.5373C6.5996 18.5461 6.21996 18.3894 6.0787 18.0672C6.06177 18.0278 6.05643 17.9844 6.06329 17.9421C6.07016 17.8998 6.08895 17.8604 6.11745 17.8284C6.14596 17.7964 6.183 17.7732 6.22423 17.7616C6.26545 17.7499 6.30915 17.7503 6.35019 17.7626C7.05649 17.9921 7.4582 17.97 7.55532 17.6963C8.20424 15.8555 9.29681 13.5843 8.22411 12.0018C8.16588 11.9185 8.08362 11.8553 7.9887 11.8209C7.89379 11.7865 7.79094 11.7826 7.69438 11.8097ZM12.0713 27.2381C12.0448 27.2602 12.0271 27.2911 12.0183 27.3308C12.0169 27.3407 12.0183 27.3508 12.0224 27.3599C12.0265 27.369 12.0331 27.3767 12.0414 27.3823C12.0497 27.3878 12.0594 27.3909 12.0693 27.3912C12.0793 27.3914 12.0892 27.3889 12.0978 27.3838C12.1154 27.375 12.1331 27.3595 12.1507 27.3374C12.1628 27.3255 12.1702 27.3088 12.1712 27.2911C12.1723 27.2734 12.167 27.256 12.1564 27.2428C12.1459 27.2297 12.131 27.2218 12.115 27.2209C12.0991 27.22 12.0833 27.2262 12.0713 27.2381ZM19.2292 36.409L16.7461 37.4354C16.7234 37.4448 16.7027 37.4586 16.6854 37.4761C16.6681 37.4936 16.6544 37.5143 16.6451 37.5371C16.6359 37.5599 16.6313 37.5843 16.6316 37.6089C16.6318 37.6335 16.637 37.6578 16.6468 37.6804L16.7528 37.9386C16.8307 38.1271 16.9436 38.2988 17.085 38.4441C17.2264 38.5894 17.3936 38.7054 17.5769 38.7854C17.7602 38.8653 17.9561 38.9077 18.1532 38.9102C18.3504 38.9126 18.5451 38.875 18.726 38.7995L18.7988 38.7663C19.163 38.6147 19.4498 38.319 19.5963 37.9441C19.7428 37.5692 19.737 37.1458 19.5802 36.7666L19.4742 36.5084C19.4648 36.4856 19.451 36.465 19.4335 36.4477C19.4161 36.4303 19.3954 36.4166 19.3726 36.4074C19.3497 36.3981 19.3253 36.3935 19.3007 36.3938C19.2761 36.3941 19.2518 36.3993 19.2292 36.409Z" fill="#8C97A4"/>
<path d="M96.8081 15.6702C96.847 15.7122 96.8981 15.7405 96.9541 15.751C97.0101 15.7615 97.0682 15.7538 97.1202 15.7289C97.1722 15.704 97.2154 15.6632 97.2438 15.6123C97.2722 15.5613 97.2842 15.5028 97.2783 15.445C97.1944 14.699 97.2209 14.0567 97.3577 13.5181C97.3858 13.4061 97.4507 13.3068 97.5419 13.236C97.6331 13.1652 97.7455 13.127 97.861 13.1275H104.913C105.041 13.1275 105.164 13.1784 105.255 13.2691C105.345 13.3597 105.396 13.4827 105.396 13.6109V38.6803C105.396 38.7927 105.352 38.9005 105.272 38.98C105.193 39.0594 105.085 39.1041 104.973 39.1041H97.9537C97.833 39.1045 97.7157 39.0642 97.6208 38.9897C97.5259 38.9152 97.4589 38.8109 97.4306 38.6936L97.0134 36.9388C97.0025 36.8965 96.981 36.8576 96.9509 36.8258C96.9208 36.794 96.8832 36.7704 96.8415 36.7572C96.7998 36.7439 96.7554 36.7415 96.7125 36.7501C96.6696 36.7587 96.6296 36.7781 96.5962 36.8064L95.0004 38.2234C94.6812 38.5076 94.3123 38.7257 93.9145 38.8657C89.8091 40.3313 86.1341 39.8104 82.8895 37.303C75.1951 31.3634 76.493 15.6569 86.9088 12.9421C90.8288 11.9179 94.1286 12.8273 96.8081 15.6702ZM91.7113 20.1796C90.9739 20.1834 90.2445 20.3419 89.5648 20.646C88.8852 20.95 88.2685 21.3937 87.75 21.9516C87.2315 22.5096 86.8213 23.1709 86.5429 23.8978C86.2646 24.6247 86.1234 25.403 86.1275 26.1882C86.1316 26.9734 86.2809 27.7502 86.5669 28.4742C86.8529 29.1981 87.2699 29.8551 87.7943 30.4076C88.3186 30.9601 88.9399 31.3973 89.6227 31.6942C90.3055 31.9911 91.0365 32.1419 91.7739 32.1381C92.5113 32.1342 93.2406 31.9757 93.9203 31.6717C94.6 31.3676 95.2167 30.924 95.7352 30.366C96.2537 29.8081 96.6638 29.1467 96.9422 28.4198C97.2206 27.6929 97.3618 26.9146 97.3577 26.1294C97.3535 25.3442 97.2042 24.5675 96.9182 23.8435C96.6323 23.1195 96.2152 22.4625 95.6909 21.9101C95.1666 21.3576 94.5453 20.9204 93.8624 20.6235C93.1796 20.3265 92.4486 20.1757 91.7113 20.1796Z" fill="#8C97A4"/>
<path d="M135.518 38.72C135.519 38.7658 135.511 38.8113 135.494 38.8538C135.477 38.8964 135.452 38.9351 135.42 38.9678C135.388 39.0005 135.35 39.0264 135.307 39.0441C135.265 39.0618 135.22 39.071 135.174 39.071H127.784C127.67 39.071 127.561 39.0256 127.48 38.9449C127.399 38.8642 127.354 38.7547 127.354 38.6406V13.5247C127.354 13.4194 127.396 13.3183 127.47 13.2438C127.545 13.1693 127.646 13.1274 127.751 13.1274H135.055C135.171 13.1274 135.282 13.1735 135.364 13.2555C135.446 13.3374 135.492 13.4486 135.492 13.5645V15.9615C135.492 16.0453 135.519 16.127 135.568 16.1945C135.618 16.2619 135.688 16.3115 135.768 16.336C135.849 16.3605 135.935 16.3586 136.014 16.3305C136.093 16.3024 136.16 16.2496 136.207 16.18C138.044 13.474 140.719 12.2799 144.233 12.5977C144.349 12.6092 144.457 12.6624 144.535 12.7468C144.613 12.8313 144.657 12.941 144.656 13.0546V20.4774C144.657 20.5351 144.645 20.5922 144.621 20.6451C144.598 20.698 144.564 20.7456 144.521 20.7848C144.478 20.824 144.427 20.854 144.372 20.8729C144.317 20.8918 144.258 20.8992 144.199 20.8946C139.889 20.5569 135.975 21.6031 135.624 26.523C135.474 28.7081 135.439 32.7738 135.518 38.72Z" fill="#8C97A4"/>
<path d="M172.116 20.7092H165.163C165.071 20.7093 164.98 20.6912 164.895 20.656C164.809 20.6207 164.732 20.5691 164.667 20.5039C162.552 18.4512 160.098 18.0782 157.304 19.3849C157.192 19.4363 157.093 19.5114 157.012 19.6058C156.93 19.7002 156.869 19.8121 156.83 19.9351C156.791 20.0581 156.776 20.1897 156.786 20.3226C156.796 20.4554 156.83 20.5868 156.886 20.7092C157.103 21.1683 157.46 21.4508 157.959 21.5567C162.071 22.3977 170.342 23.6624 172.116 27.6222C174.275 32.4361 171.335 37.2566 166.587 38.7531C160.244 40.7595 149.166 39.6536 147.729 31.37C147.719 31.3131 147.722 31.2548 147.737 31.1992C147.752 31.1435 147.779 31.0918 147.817 31.0477C147.854 31.0036 147.9 30.9681 147.952 30.9437C148.005 30.9193 148.062 30.9066 148.119 30.9065H154.529C154.78 30.9063 155.028 30.9608 155.256 31.066C155.483 31.1712 155.685 31.3246 155.847 31.5157L156.84 32.6877C156.936 32.8008 157.061 32.8896 157.204 32.9459C159.522 33.8509 161.68 33.9149 163.68 33.138C163.876 33.0626 164.053 32.9431 164.196 32.7894C164.339 32.6356 164.443 32.4522 164.5 32.2544C164.557 32.0567 164.565 31.8503 164.524 31.6527C164.483 31.455 164.393 31.2718 164.263 31.1184C164.192 31.0345 163.916 30.9065 163.435 30.7343C160.204 29.5623 149.318 29.0458 148.669 22.6162C147.696 12.9354 159.177 11.3793 166.097 13.3724C169.646 14.3922 171.741 16.734 172.381 20.398C172.388 20.4358 172.386 20.4746 172.376 20.5117C172.366 20.5489 172.347 20.5835 172.322 20.6131C172.297 20.6427 172.265 20.6666 172.23 20.6832C172.194 20.6998 172.155 20.7087 172.116 20.7092Z" fill="#8C97A4"/>
<path d="M185.491 36.8262V48.3809C185.491 48.5091 185.441 48.6321 185.35 48.7227C185.259 48.8134 185.136 48.8643 185.008 48.8643H177.691C177.605 48.8643 177.523 48.8301 177.462 48.7693C177.401 48.7084 177.367 48.6259 177.367 48.5398V13.4187C177.367 13.338 177.399 13.2605 177.456 13.2034C177.513 13.1462 177.591 13.1142 177.671 13.1142H184.823C184.981 13.1142 185.132 13.1776 185.244 13.2906C185.356 13.4036 185.419 13.5569 185.419 13.7167V15.4516C185.418 15.4958 185.429 15.5393 185.452 15.5771C185.475 15.6149 185.508 15.6453 185.548 15.6648C185.588 15.6843 185.632 15.692 185.676 15.6871C185.72 15.6822 185.762 15.6648 185.796 15.637C187.632 14.2111 188.699 13.443 188.994 13.3327C192.124 12.1982 195.075 12.3174 197.847 13.6902C209.104 19.259 206.297 40.0708 192.517 39.6801C189.89 39.6051 187.683 38.6008 185.895 36.6673C185.864 36.6322 185.822 36.6076 185.776 36.5968C185.73 36.586 185.682 36.5894 185.638 36.6067C185.594 36.624 185.557 36.6543 185.531 36.6935C185.504 36.7327 185.491 36.779 185.491 36.8262ZM191.093 20.173C190.358 20.1666 189.629 20.3151 188.947 20.61C188.266 20.9048 187.645 21.3404 187.121 21.8917C186.597 22.443 186.179 23.0992 185.891 23.823C185.604 24.5468 185.452 25.3239 185.445 26.1099C185.438 26.896 185.576 27.6756 185.851 28.4043C186.126 29.133 186.532 29.7964 187.047 30.3568C187.562 30.9172 188.175 31.3634 188.851 31.6702C189.527 31.9769 190.253 32.1381 190.988 32.1445C191.723 32.1509 192.452 32.0024 193.133 31.7075C193.815 31.4127 194.435 30.9771 194.96 30.4258C195.484 29.8745 195.902 29.2183 196.19 28.4945C196.477 27.7707 196.629 26.9936 196.635 26.2076C196.642 25.4215 196.504 24.6419 196.23 23.9132C195.955 23.1845 195.548 22.5211 195.034 21.9607C194.519 21.4003 193.906 20.9541 193.23 20.6473C192.554 20.3406 191.827 20.1794 191.093 20.173Z" fill="#8C97A4"/>
<path d="M230.525 15.6304C230.535 15.666 230.554 15.6982 230.581 15.7232C230.608 15.7481 230.642 15.7647 230.678 15.7709C230.715 15.7772 230.752 15.7729 230.786 15.7586C230.82 15.7442 230.849 15.7204 230.87 15.69C231.62 14.5864 232.616 13.7918 233.856 13.3062C238.941 11.3131 244.305 13.2135 246.49 18.0606C247.139 19.4997 247.439 22.0777 247.391 25.7946C247.324 30.7388 247.327 35.0472 247.397 38.72C247.398 38.7684 247.39 38.8165 247.372 38.8614C247.354 38.9064 247.328 38.9473 247.295 38.9819C247.262 39.0164 247.222 39.0438 247.178 39.0625C247.134 39.0812 247.087 39.0909 247.04 39.0908H239.789C239.652 39.0908 239.521 39.0364 239.424 38.9396C239.327 38.8427 239.273 38.7113 239.273 38.5743C239.255 29.7632 239.239 25.1302 239.226 24.6756C239.186 23.0864 238.73 20.8284 236.935 20.4774C231.678 19.4511 230.161 21.6958 230.194 26.6753C230.234 32.4935 230.205 36.5106 230.108 38.7266C230.105 38.8262 230.063 38.9205 229.991 38.9897C229.919 39.0589 229.824 39.0975 229.724 39.0975H222.513C222.413 39.0975 222.317 39.0577 222.246 38.9869C222.176 38.9161 222.136 38.8201 222.136 38.72V13.5314C222.136 13.4225 222.179 13.3181 222.256 13.2411C222.333 13.1641 222.437 13.1208 222.546 13.1208H229.532C229.643 13.1205 229.751 13.1576 229.839 13.226C229.927 13.2944 229.989 13.3903 230.015 13.4983L230.525 15.6304Z" fill="#8C97A4"/>
<path d="M119.779 13.134H112.998C112.665 13.134 112.396 13.4038 112.396 13.7366V38.3955C112.396 38.7283 112.665 38.9981 112.998 38.9981H119.779C120.111 38.9981 120.381 38.7283 120.381 38.3955V13.7366C120.381 13.4038 120.111 13.134 119.779 13.134Z" fill="#8C97A4"/>
<path d="M216.945 13.1274H209.409C209.234 13.1274 209.091 13.2697 209.091 13.4453V38.7531C209.091 38.9287 209.234 39.071 209.409 39.071H216.945C217.12 39.071 217.262 38.9287 217.262 38.7531V13.4453C217.262 13.2697 217.12 13.1274 216.945 13.1274Z" fill="#8C97A4"/>
<path d="M33.4856 35.2437C32.7042 36.5283 31.6447 38.5412 29.9761 39.3093C29.9109 39.3441 29.8381 39.3623 29.7642 39.3623H25.0099C24.8903 39.3623 24.772 39.3368 24.6629 39.2874C24.5538 39.2381 24.4564 39.166 24.3769 39.0759C24.2975 38.9858 24.2379 38.8798 24.202 38.7649C24.1662 38.6499 24.1549 38.5285 24.1689 38.4088C24.2528 37.7378 24.6104 37.1617 25.2416 36.6805C25.4056 36.5554 25.6038 36.4817 25.8111 36.4687L27.7446 36.3428C27.9023 36.3337 28.0546 36.2817 28.1849 36.1924C28.3152 36.1031 28.4186 35.9799 28.4841 35.8361C28.5495 35.6923 28.5744 35.5334 28.5561 35.3764C28.5378 35.2195 28.477 35.0706 28.3803 34.9457L26.8176 32.9195C26.7516 32.8333 26.71 32.7312 26.6972 32.624C26.6844 32.5167 26.7008 32.4084 26.7447 32.3103C27.1111 31.4936 27.4709 30.9418 27.8241 30.6549C27.8966 30.5985 27.9865 30.569 28.0783 30.5714C28.1702 30.5738 28.2584 30.6079 28.3279 30.6681C28.3974 30.7282 28.4439 30.8105 28.4595 30.9011C28.4751 30.9917 28.4588 31.0848 28.4134 31.1647L27.8241 32.1845C27.7677 32.2803 27.7414 32.3908 27.7485 32.5018C27.7556 32.6127 27.7957 32.719 27.8638 32.8069L29.5854 35.045C29.6532 35.1303 29.6958 35.233 29.7087 35.3417C29.7215 35.4504 29.7041 35.5608 29.6583 35.6608C29.2345 36.568 28.5723 37.7334 27.3341 37.2103C26.8926 37.0205 26.4335 37.005 25.9568 37.1639C25.7891 37.223 25.647 37.338 25.554 37.4895C25.4611 37.641 25.4231 37.8199 25.4464 37.9961C25.4697 38.1723 25.5528 38.3351 25.6819 38.4573C25.811 38.5794 25.9782 38.6535 26.1554 38.667C26.5042 38.6891 27.0427 38.6096 27.7711 38.4287C27.9933 38.372 28.224 38.3652 28.4465 38.4088C30.6118 38.8326 31.8897 36.3296 32.6115 34.8265C32.6348 34.7769 32.6684 34.7327 32.71 34.6968C32.7516 34.6609 32.8003 34.634 32.8532 34.6179C32.9061 34.6017 32.9619 34.5966 33.0172 34.6029C33.0724 34.6091 33.1259 34.6267 33.1743 34.6543L33.3597 34.7603C33.4 34.7835 33.4352 34.8146 33.4633 34.8515C33.4914 34.8885 33.512 34.9307 33.5237 34.9757C33.5354 35.0206 33.538 35.0675 33.5315 35.1135C33.5249 35.1595 33.5093 35.2037 33.4856 35.2437Z" fill="#8C97A4"/>
</g>
<defs>
<clipPath id="clip0_7759_3609">
<rect width="250.959" height="49" fill="white" transform="translate(0 0.5)"/>
</clipPath>
</defs>
</svg>
