<svg width="240" height="66" viewBox="0 0 240 66" fill="none" xmlns="http://www.w3.org/2000/svg">
<path d="M48.849 11.4492C48.8867 11.4526 48.9226 11.4666 48.9527 11.4895C48.9828 11.5124 49.0058 11.5433 49.0192 11.5787C49.0326 11.614 49.0358 11.6524 49.0284 11.6895C49.021 11.7266 49.0033 11.7608 48.9773 11.7884L40.2323 20.5334C40.0207 20.7449 39.7383 20.8664 39.444 20.8725C37.6168 20.9153 34.7415 20.8909 30.8182 20.7992C24.1815 20.6525 18.7182 22.5959 16.3807 28.9759C13.8598 35.8875 18.0215 43.0467 24.8965 44.8709C26.6443 45.3353 29.5929 45.3995 33.7423 45.0634C34.7469 44.9836 35.6799 44.5122 36.3401 43.7508C37.0003 42.9894 37.3348 41.9991 37.2715 40.9934L37.2624 40.7825C37.2197 39.7823 36.7908 38.8375 36.066 38.1469C35.3412 37.4563 34.3768 37.0735 33.3757 37.0792L24.484 37.1159C24.4089 37.1152 24.3357 37.0926 24.2733 37.0508C24.2109 37.009 24.1621 36.9499 24.1329 36.8807C24.1036 36.8116 24.0953 36.7354 24.1088 36.6615C24.1223 36.5876 24.1572 36.5193 24.209 36.465L31.2032 29.48C31.5441 29.1398 32.0089 28.9486 32.4957 28.9484H41.9282C42.0077 28.948 42.0864 28.9643 42.1592 28.9962C42.232 29.0282 42.2973 29.075 42.3508 29.1338C42.4044 29.1925 42.445 29.2618 42.4701 29.3373C42.4952 29.4127 42.5042 29.4926 42.4965 29.5717C42.0107 34.2467 42.304 38.8025 44.4307 42.9734C45.3412 44.7517 46.1632 46.3314 46.8965 47.7125C46.9747 47.8567 47.0157 48.0174 47.0157 48.18V52.9375C47.0157 53.1847 46.9667 53.4293 46.8716 53.6574C46.7765 53.8855 46.6371 54.0925 46.4615 54.2663C46.2859 54.4402 46.0776 54.5776 45.8486 54.6705C45.6196 54.7634 45.3745 54.81 45.1273 54.8075C41.1429 54.7586 36.0187 54.7984 29.7548 54.9267C19.586 55.1467 12.2771 50.8109 7.82818 41.9192C6.38596 39.0347 5.77485 35.6859 5.99485 31.8725C6.48068 23.1825 11.8432 16.1059 19.8182 12.76C22.1221 11.8006 25.4801 11.3178 29.8923 11.3117C40.8068 11.3056 47.1257 11.3514 48.849 11.4492Z" fill="#8C97A4"/>
<path d="M49.1611 20.8358C49.076 20.8359 48.9927 20.8118 48.9208 20.7664C48.8489 20.721 48.7914 20.6562 48.7549 20.5793C48.7184 20.5025 48.7045 20.4169 48.7147 20.3325C48.7249 20.2481 48.7589 20.1683 48.8127 20.1025C51.5994 16.6436 54.9605 14.135 58.8961 12.5766C61.2122 11.66 65.3891 11.2261 71.4269 11.275C80.4591 11.3483 85.29 11.3666 85.9194 11.33C86.4389 11.2994 87.0377 11.3697 87.7161 11.5408C87.7418 11.5464 87.7653 11.559 87.784 11.5775C87.8028 11.5959 87.8161 11.6194 87.8226 11.6456C87.8292 11.6718 87.8287 11.6997 87.8213 11.7264C87.8138 11.7531 87.7996 11.7776 87.7802 11.7975L79.2094 20.3775C78.9157 20.6705 78.5169 20.8353 78.1002 20.8358H49.1611Z" fill="#626A73"/>
<path d="M63.1582 36.3367L69.9782 29.5167C70.3249 29.1759 70.7879 28.9821 71.2707 28.9758C78.0113 28.9025 82.1332 28.9331 83.6366 29.0675C85.036 29.1897 85.7388 30.0514 85.7449 31.6525C85.7755 38.7475 85.7877 45.5522 85.7816 52.0667C85.7755 53.9122 84.923 54.8381 83.2241 54.8442C75.7257 54.8869 69.7582 54.8717 65.3216 54.7983C60.8299 54.7158 55.7241 52.6533 52.2866 49.5642C46.5482 44.3942 44.1069 37.7606 44.9624 29.6633C44.9828 29.469 45.0739 29.2892 45.2178 29.1588C45.3618 29.0284 45.5485 28.9566 45.7416 28.9575H54.3216C54.3792 28.9567 54.4363 28.9686 54.4889 28.9923C54.5414 29.016 54.5881 29.0509 54.6257 29.0946C54.6633 29.1383 54.6908 29.1897 54.7064 29.2452C54.7219 29.3007 54.7251 29.359 54.7157 29.4158C53.4874 37.5436 56.5857 42.7197 64.0107 44.9442C64.4789 45.084 64.9637 45.155 65.4499 45.155H72.7282C72.9697 45.155 73.2076 45.1018 73.4249 44.9992C77.1374 43.2667 77.2199 39.0867 73.2874 37.2167C73.1184 37.1382 72.937 37.0975 72.7557 37.0975H63.4699C63.3824 37.0989 63.2969 37.0739 63.2242 37.0257C63.1514 36.9775 63.0948 36.9083 63.0614 36.8267C63.028 36.7452 63.0193 36.6551 63.0366 36.5679C63.0538 36.4806 63.0962 36.4001 63.1582 36.3367Z" fill="#8C97A4"/>
<path d="M95.4707 29.3791C95.4707 29.2746 95.5132 29.1744 95.5888 29.1004C95.6645 29.0265 95.7671 28.985 95.874 28.985C106.373 28.9666 111.693 28.9605 111.833 28.9666C118.736 29.04 123.301 35.585 120.422 42.1208C117.462 48.8308 110.037 47.1258 104.335 47.465C104.19 47.4737 104.045 47.4527 103.908 47.4032C103.772 47.3537 103.647 47.2768 103.541 47.1772C103.436 47.0775 103.351 46.9573 103.294 46.824C103.237 46.6906 103.207 46.5469 103.207 46.4016V43.2116C103.207 42.9175 103.324 42.6354 103.532 42.4273C103.74 42.2193 104.022 42.1025 104.317 42.1025H112.209C113.219 42.1025 114.187 41.703 114.902 40.9915C115.617 40.2801 116.02 39.3148 116.022 38.3075V37.8216C116.025 37.3566 115.935 36.8958 115.759 36.4655C115.583 36.0352 115.323 35.6439 114.995 35.3143C114.667 34.9846 114.277 34.723 113.848 34.5445C113.419 34.366 112.958 34.2741 112.493 34.2741H101.072C101.005 34.2741 100.94 34.287 100.879 34.3118C100.817 34.3367 100.762 34.3732 100.715 34.4191C100.668 34.4651 100.631 34.5197 100.606 34.5797C100.58 34.6398 100.567 34.7041 100.567 34.7691V54.1566C100.567 54.3414 100.494 54.5186 100.363 54.6493C100.233 54.7799 100.055 54.8533 99.8707 54.8533H96.2224C96.023 54.8533 95.8318 54.7741 95.6909 54.6332C95.5499 54.4922 95.4707 54.301 95.4707 54.1016V29.3791Z" fill="#8C97A4"/>
<path d="M123.778 41.8906C123.79 38.4652 125.217 35.1849 127.746 32.7716C130.274 30.3582 133.697 29.0094 137.261 29.0218C140.825 29.0343 144.239 30.407 146.75 32.8379C149.262 35.2689 150.666 38.559 150.654 41.9845C150.642 45.41 149.215 48.6902 146.687 51.1035C144.158 53.5169 140.735 54.8657 137.171 54.8533C133.607 54.8409 130.194 53.4682 127.682 51.0372C125.17 48.6062 123.766 45.3161 123.778 41.8906ZM129.178 41.8254C129.149 43.8795 129.969 45.8613 131.456 47.3348C132.943 48.8083 134.976 49.6529 137.108 49.6827C138.164 49.6974 139.212 49.5117 140.192 49.136C141.173 48.7604 142.067 48.2023 142.824 47.4935C143.58 46.7847 144.184 45.9392 144.601 45.0051C145.018 44.0711 145.24 43.0669 145.254 42.0498C145.283 39.9956 144.464 38.0138 142.977 36.5403C141.489 35.0668 139.456 34.2222 137.324 34.1925C136.269 34.1777 135.221 34.3635 134.24 34.7391C133.259 35.1147 132.365 35.6728 131.609 36.3816C130.852 37.0904 130.248 37.9359 129.831 38.87C129.414 39.804 129.192 40.8083 129.178 41.8254Z" fill="#8C97A4"/>
<path d="M157.997 29.0216H153.743C153.465 29.0216 153.239 29.2473 153.239 29.5258V54.3491C153.239 54.6276 153.465 54.8533 153.743 54.8533H157.997C158.275 54.8533 158.501 54.6276 158.501 54.3491V29.5258C158.501 29.2473 158.275 29.0216 157.997 29.0216Z" fill="#8C97A4"/>
<path d="M166.467 41.9926C166.467 42.1942 166.543 42.3715 166.696 42.5242C170.65 46.417 174.772 50.5176 179.062 54.8259C179.07 54.8317 179.075 54.8397 179.078 54.8489C179.081 54.8581 179.081 54.8679 179.078 54.8771C179.075 54.8862 179.069 54.8941 179.061 54.8998C179.054 54.9054 179.044 54.9084 179.035 54.9084H172.334C172.261 54.9084 172.189 54.8946 172.123 54.8678C172.057 54.8411 171.998 54.8019 171.949 54.7526C166.565 49.4726 162.819 45.7173 160.71 43.4867C160.356 43.114 160.179 42.619 160.179 42.0017C160.179 41.3906 160.353 40.8987 160.701 40.5259C162.803 38.2831 166.531 34.5095 171.885 29.2051C171.933 29.1541 171.992 29.1132 172.058 29.0849C172.124 29.0565 172.196 29.0413 172.27 29.0401L178.97 29.0126C178.98 29.0126 178.989 29.0156 178.997 29.0212C179.005 29.0268 179.011 29.0348 179.014 29.0439C179.017 29.053 179.017 29.0629 179.014 29.0721C179.011 29.0813 179.006 29.0893 178.998 29.0951C174.732 33.4217 170.632 37.5406 166.696 41.4517C166.543 41.6045 166.467 41.7848 166.467 41.9926Z" fill="#8C97A4"/>
<path d="M203.665 41.9559C203.665 42.9031 203.659 43.4959 203.647 43.7342C203.642 43.9571 203.55 44.1693 203.391 44.3252C203.231 44.4811 203.017 44.5684 202.794 44.5684H184.718C184.531 44.567 184.349 44.6214 184.193 44.7246C184.038 44.8278 183.917 44.9751 183.846 45.1476C183.775 45.3201 183.757 45.5098 183.795 45.6925C183.833 45.8751 183.924 46.0423 184.058 46.1726L185.753 47.8684C186.303 48.4178 186.954 48.8537 187.672 49.1509C188.389 49.4482 189.157 49.6011 189.933 49.6009H202.813C203.044 49.6009 203.265 49.6926 203.428 49.856C203.592 50.0193 203.683 50.2408 203.683 50.4717V54.0009C203.684 54.1216 203.659 54.2412 203.612 54.3525C203.565 54.4638 203.496 54.5647 203.409 54.6492C203.322 54.7337 203.218 54.8001 203.105 54.8447C202.992 54.8892 202.87 54.9108 202.748 54.9084C201.178 54.8778 198.073 54.8839 193.435 54.9267C190.233 54.9573 187.963 54.7342 186.624 54.2576C181.555 52.4609 177.751 47.3184 177.751 41.9559C177.751 36.6026 181.546 31.4601 186.624 29.6542C187.963 29.1776 190.233 28.9545 193.435 28.9851C198.073 29.0278 201.178 29.0339 202.748 29.0034C202.87 29.001 202.992 29.0226 203.105 29.0671C203.218 29.1116 203.322 29.1781 203.409 29.2626C203.496 29.3471 203.565 29.448 203.612 29.5593C203.659 29.6706 203.684 29.7902 203.683 29.9109V33.4401C203.683 33.671 203.592 33.8925 203.428 34.0558C203.265 34.2191 203.044 34.3109 202.813 34.3109H189.933C189.157 34.3107 188.389 34.4636 187.672 34.7608C186.954 35.0581 186.303 35.4939 185.753 36.0434L184.058 37.7484C183.924 37.8786 183.833 38.0458 183.795 38.2285C183.757 38.4111 183.775 38.6009 183.846 38.7733C183.917 38.9458 184.038 39.0931 184.193 39.1963C184.349 39.2995 184.531 39.354 184.718 39.3526L202.794 39.3434C203.017 39.3433 203.231 39.4306 203.391 39.5866C203.55 39.7425 203.642 39.9547 203.647 40.1776C203.653 40.4159 203.659 41.0087 203.665 41.9559Z" fill="#8C97A4"/>
<path d="M232.357 54.8991H227.178C226.455 54.899 225.763 54.6157 225.253 54.1108C219.967 48.8369 216.975 45.8028 216.279 45.0083C215.808 44.4644 215.564 44.0275 215.545 43.6975C215.54 43.491 215.577 43.2856 215.653 43.0934C215.729 42.9012 215.843 42.7261 215.989 42.5784C216.134 42.4306 216.307 42.3132 216.499 42.233C216.69 42.1529 216.896 42.1116 217.104 42.1116L224.034 42.13C224.562 42.1306 225.084 42.024 225.569 41.8166C226.054 41.6093 226.492 41.3055 226.856 40.9238C227.22 40.5421 227.501 40.0905 227.684 39.5966C227.867 39.1026 227.948 38.5767 227.92 38.0508V37.9133C227.892 36.9421 227.485 36.0202 226.787 35.3427C226.089 34.6651 225.154 34.2852 224.18 34.2833L213.061 34.265C212.999 34.265 212.937 34.2773 212.879 34.3013C212.821 34.3252 212.768 34.3603 212.724 34.4046C212.68 34.4489 212.645 34.5014 212.621 34.5592C212.597 34.6171 212.585 34.679 212.585 34.7416V54.2941C212.585 54.4424 212.526 54.5847 212.421 54.6895C212.316 54.7944 212.174 54.8533 212.025 54.8533H207.763C207.706 54.8533 207.65 54.8422 207.598 54.8205C207.546 54.7989 207.498 54.7671 207.458 54.7271C207.418 54.6871 207.386 54.6396 207.365 54.5874C207.343 54.5351 207.332 54.4791 207.332 54.4225V29.59C207.332 29.4287 207.396 29.2738 207.511 29.1589C207.626 29.044 207.783 28.9782 207.946 28.9758C216.972 28.9269 222.591 28.9575 224.804 29.0675C227.175 29.1836 229.314 30.3508 231.22 32.5691C235.501 37.5558 232.504 45.2375 226.417 46.8966C226.325 46.9213 226.241 46.9696 226.173 47.0367C226.105 47.1037 226.056 47.1871 226.031 47.2784C226.006 47.3696 226.005 47.4655 226.03 47.5562C226.054 47.6469 226.102 47.7293 226.17 47.795L232.632 54.2483C232.684 54.3026 232.719 54.3709 232.732 54.4448C232.746 54.5186 232.737 54.5948 232.708 54.664C232.679 54.7332 232.63 54.7923 232.568 54.8341C232.505 54.8758 232.432 54.8985 232.357 54.8991Z" fill="#8C97A4"/>
</svg>
