<svg width="189" height="70" viewBox="0 0 189 70" fill="none" xmlns="http://www.w3.org/2000/svg">
<path d="M50.8418 65.3334C49.9918 65.4111 49.4223 65.4167 49.1334 65.35C41.6001 63.5611 36.0473 59.8223 32.4751 54.1334C26.7362 44.9945 26.4056 35.7611 31.4834 26.4334C34.0556 21.7111 38.0612 18.075 43.5001 15.525C43.5496 15.5013 43.5937 15.4677 43.6296 15.4262C43.6656 15.3847 43.6926 15.3363 43.709 15.2839C43.7254 15.2315 43.7309 15.1764 43.725 15.1218C43.7192 15.0672 43.7022 15.0144 43.6751 14.9667L43.5584 14.7667C43.5398 14.7333 43.5101 14.7071 43.474 14.692C43.4379 14.677 43.3973 14.6739 43.3584 14.6834C39.0862 15.8945 35.364 17.8389 32.1918 20.5167C28.7362 23.4389 26.3418 26.8111 25.0084 30.6334C22.0584 39.0834 25.3168 54.1334 12.0001 55.2334C9.07786 55.4778 5.93342 54.9917 2.56675 53.775C2.31932 53.6865 2.11714 53.5034 2.00464 53.2659C1.89214 53.0284 1.87851 52.7559 1.96675 52.5084L4.07509 46.4667C4.11418 46.351 4.17776 46.245 4.26157 46.1559C4.34538 46.0668 4.4475 45.9967 4.56109 45.9501C4.67469 45.9036 4.79714 45.8817 4.92027 45.886C5.0434 45.8903 5.16437 45.9207 5.27509 45.975C6.5862 46.6195 8.16398 46.7973 10.0084 46.5084C10.2904 46.465 10.5526 46.3339 10.7584 46.1334C11.4862 45.4278 11.9556 44.3806 12.1668 42.9917C13.6445 33.1195 14.8612 24.5306 15.8168 17.225C15.833 17.0956 15.8955 16.9766 15.9922 16.8906C16.089 16.8046 16.2133 16.7576 16.3418 16.7584H25.9251C26.0107 16.7587 26.0953 16.7774 26.1731 16.8132C26.2509 16.8489 26.3201 16.9009 26.3762 16.9656C26.4322 17.0303 26.4738 17.1063 26.498 17.1884C26.5223 17.2706 26.5286 17.3569 26.5168 17.4417L25.6834 23.35C25.6795 23.3918 25.6899 23.4336 25.713 23.4685C25.7362 23.5035 25.7706 23.5295 25.8105 23.5421C25.8505 23.5548 25.8936 23.5534 25.9326 23.5381C25.9716 23.5229 26.0043 23.4948 26.0251 23.4584C32.8584 10.5 47.6501 5.1417 61.0584 10.8667C67.1195 13.4556 71.739 18.0278 74.9168 24.5834C74.9433 24.6368 74.9825 24.683 75.0309 24.7179C75.0794 24.7528 75.1356 24.7753 75.1947 24.7835C75.2539 24.7917 75.3141 24.7854 75.3702 24.765C75.4264 24.7447 75.4767 24.7109 75.5168 24.6667L75.7084 24.4584C75.7187 24.448 75.7263 24.435 75.7306 24.4206C75.735 24.4061 75.7359 24.3905 75.7334 24.375C73.0779 15.0195 67.3529 8.65837 58.5584 5.2917C58.4957 5.26534 58.4423 5.22085 58.405 5.16393C58.3677 5.10701 58.3483 5.04026 58.3492 4.97223C58.3501 4.90419 58.3713 4.83797 58.41 4.78206C58.4488 4.72614 58.5034 4.68307 58.5668 4.65837C58.9223 4.53059 59.3279 4.50837 59.7834 4.5917C71.9501 6.82503 81.0751 16.875 81.5251 29.3584C81.9418 40.8084 75.8418 50.25 65.5918 54.975C65.5606 54.9886 65.5328 55.0088 65.5101 55.0344C65.4874 55.0599 65.4704 55.0901 65.4602 55.1232C65.45 55.1562 65.4468 55.1913 65.4508 55.226C65.4548 55.2608 65.4659 55.2946 65.4834 55.325L65.6084 55.55C65.6397 55.6026 65.6869 55.6435 65.7428 55.6661C65.7986 55.6887 65.8598 55.6919 65.9168 55.675C74.9945 53.0806 81.3251 47.7167 84.9084 39.5834C85.0466 39.2739 85.1392 38.9483 85.1834 38.6167L88.2334 17.15C88.2475 17.0401 88.3018 16.939 88.386 16.8654C88.4703 16.7919 88.5789 16.7509 88.6918 16.75H98.3668C98.4216 16.7494 98.4759 16.7608 98.526 16.7835C98.5761 16.8061 98.6208 16.8395 98.6572 16.8814C98.6935 16.9232 98.7206 16.9726 98.7366 17.0261C98.7527 17.0797 98.7573 17.1361 98.7501 17.1917L96.8418 30.65C96.8339 30.7092 96.8438 30.7695 96.8704 30.823C96.8969 30.8765 96.9389 30.9208 96.9908 30.9504C97.0427 30.9799 97.1022 30.9933 97.1618 30.9888C97.2214 30.9842 97.2782 30.9621 97.3251 30.925C100.925 28.0417 104.111 24.6111 106.883 20.6334C108.078 18.9111 108.933 17.7056 109.45 17.0167C109.514 16.9289 109.598 16.8575 109.695 16.8082C109.792 16.759 109.9 16.7334 110.008 16.7334H119.975C120.09 16.7333 120.203 16.7637 120.302 16.8215C120.402 16.8794 120.484 16.9625 120.541 17.0624C120.597 17.1624 120.627 17.2756 120.625 17.3905C120.624 17.5055 120.592 17.618 120.533 17.7167C117.033 23.5667 112.82 28.725 107.892 33.1917C107.777 33.2969 107.699 33.4356 107.666 33.5891C107.633 33.7426 107.648 33.9035 107.708 34.05C110.425 40.4611 113.933 46.1806 118.233 51.2084C118.303 51.2895 118.353 51.3849 118.381 51.4877C118.409 51.5906 118.414 51.6984 118.396 51.8034C118.378 51.9085 118.337 52.0082 118.275 52.0955C118.214 52.1828 118.134 52.2554 118.042 52.3084L110.508 56.6584C110.338 56.7569 110.14 56.7941 109.946 56.7637C109.751 56.7334 109.574 56.6374 109.442 56.4917C105.375 52.0334 101.417 45.95 99.3918 40.1667C99.3689 40.1029 99.3324 40.0449 99.2848 39.9966C99.2373 39.9484 99.1798 39.9111 99.1163 39.8873C99.0529 39.8635 98.985 39.8538 98.9175 39.8589C98.8499 39.864 98.7843 39.8837 98.7251 39.9167L96.0668 41.45C95.8694 41.5646 95.7002 41.7229 95.5718 41.9134C95.4434 42.1038 95.3591 42.3214 95.3251 42.55L93.7084 53.975C93.6862 54.1431 93.603 54.2975 93.4743 54.4094C93.3455 54.5213 93.18 54.5831 93.0084 54.5834H83.4418C83.3825 54.5828 83.324 54.5695 83.2702 54.5445C83.2165 54.5195 83.1687 54.4833 83.13 54.4383C83.0914 54.3934 83.0628 54.3407 83.0461 54.2838C83.0294 54.2269 83.0251 54.1671 83.0334 54.1084L84.0751 46.775C84.0804 46.7539 84.0779 46.7322 84.068 46.7136C84.0581 46.695 84.0415 46.6805 84.021 46.6727C84.0004 46.6648 83.9772 46.6641 83.9552 46.6706C83.9332 46.6771 83.9137 46.6905 83.9001 46.7084C82.139 49.275 80.9945 50.8834 80.4668 51.5334C74.7751 58.5834 66.4001 62.0084 57.1668 61.35C49.6668 60.8111 43.3834 57.5167 38.3168 51.4667C36.9084 49.7834 35.6751 47.4084 34.3084 45.55C34.2743 45.5061 34.2262 45.4753 34.172 45.4627C34.1178 45.4502 34.061 45.4567 34.0111 45.4812C33.9612 45.5056 33.9212 45.5466 33.898 45.5971C33.8747 45.6476 33.8696 45.7045 33.8834 45.7584C35.9251 53.15 40.7251 59.7917 47.5668 63.2C49.8556 64.3389 51.0056 64.9139 51.0168 64.925C51.044 64.9621 51.0612 65.0057 51.0666 65.0513C51.0721 65.0969 51.0655 65.143 51.0477 65.1846C51.0298 65.2263 51.0013 65.262 50.9651 65.2882C50.9289 65.3143 50.8863 65.3299 50.8418 65.3334ZM61.9001 34.8084C62.239 34.7195 62.4084 34.5389 62.4084 34.2667C62.3918 31.4278 63.3695 29.0973 65.3418 27.275C65.4114 27.2092 65.4621 27.1255 65.4883 27.0332C65.5145 26.9409 65.5151 26.8435 65.4902 26.7516C65.4653 26.6596 65.4158 26.5767 65.347 26.5118C65.2782 26.4468 65.1928 26.4024 65.1001 26.3834C62.6112 25.8445 60.7251 24.4639 59.4418 22.2417C59.1584 21.7584 58.8418 21.5611 58.4918 21.65C58.1695 21.7389 58.0056 22.0611 58.0001 22.6167C57.9723 25.1834 57.0056 27.3139 55.1001 29.0084C55.0298 29.0711 54.9783 29.1519 54.9513 29.2421C54.9242 29.3323 54.9226 29.4285 54.9466 29.5203C54.9707 29.6121 55.0194 29.6959 55.0875 29.7628C55.1557 29.8298 55.2407 29.8772 55.3334 29.9C57.9445 30.5223 59.939 32.0723 61.3168 34.55C61.4501 34.7889 61.6445 34.875 61.9001 34.8084ZM47.9668 38.3334C48.3056 38.2445 48.4751 38.0639 48.4751 37.7917C48.464 34.9361 49.4501 32.5945 51.4334 30.7667C51.5021 30.7015 51.5518 30.6189 51.5773 30.5277C51.6028 30.4366 51.6032 30.3402 51.5785 30.2488C51.5537 30.1574 51.5047 30.0744 51.4366 30.0086C51.3685 29.9428 51.2839 29.8967 51.1918 29.875C48.6918 29.325 46.7973 27.9334 45.5084 25.7C45.2306 25.2167 44.914 25.0195 44.5584 25.1084C44.2362 25.1917 44.0723 25.5139 44.0668 26.075C44.0334 28.6584 43.0584 30.7973 41.1418 32.4917C41.0708 32.5555 41.0186 32.6374 40.9908 32.7286C40.9629 32.8198 40.9604 32.9169 40.9835 33.0094C41.0066 33.1019 41.0545 33.1864 41.122 33.2538C41.1896 33.3211 41.2742 33.3688 41.3668 33.3917C43.9945 34.0195 46.0001 35.5806 47.3834 38.075C47.5168 38.3139 47.7112 38.4 47.9668 38.3334ZM39.5584 41.8084C42.4834 49.1584 50.8501 53.1417 58.5168 51.2C65.8668 49.3334 71.7834 42.7084 71.2168 34.6167C71.2009 34.4068 71.1122 34.2116 70.9668 34.0667L70.6418 33.7417C70.5898 33.6909 70.5244 33.6559 70.4533 33.6408C70.3822 33.6257 70.3083 33.6311 70.2401 33.6564C70.172 33.6818 70.1125 33.726 70.0685 33.7838C70.0245 33.8417 69.9979 33.9109 69.9918 33.9834C69.6806 37.9778 68.3473 41.1611 65.9918 43.5334C59.9473 49.6334 52.9112 50.4473 44.8834 45.975C44.7732 45.9199 44.6744 45.8466 44.5918 45.7584L40.1418 41.4167C40.083 41.3584 40.0058 41.3223 39.9234 41.3144C39.841 41.3066 39.7584 41.3275 39.6897 41.3736C39.621 41.4198 39.5703 41.4883 39.5464 41.5676C39.5225 41.6468 39.5267 41.7319 39.5584 41.8084Z" fill="#8C97A4"/>
<path d="M147.075 54.5999H120.891C120.829 54.6005 120.768 54.5877 120.711 54.5624C120.654 54.537 120.603 54.4998 120.562 54.4532C120.521 54.4065 120.491 54.3516 120.473 54.2921C120.455 54.2326 120.45 54.1699 120.458 54.1083L125.708 17.1416C125.722 17.0385 125.773 16.9439 125.851 16.875C125.929 16.8061 126.029 16.7677 126.133 16.7666H151.716C151.779 16.7661 151.84 16.7789 151.897 16.8042C151.954 16.8295 152.004 16.8668 152.045 16.9134C152.087 16.9601 152.117 17.015 152.135 17.0745C152.153 17.134 152.158 17.1967 152.15 17.2583L151.066 24.8666C151.052 24.9697 151.002 25.0644 150.924 25.1332C150.846 25.2021 150.745 25.2406 150.641 25.2416H135.666C135.562 25.2427 135.462 25.2811 135.384 25.35C135.306 25.4189 135.255 25.5135 135.241 25.6166L134.466 31.0333C134.458 31.0949 134.463 31.1576 134.481 31.2171C134.499 31.2766 134.53 31.3315 134.571 31.3782C134.612 31.4248 134.662 31.462 134.719 31.4874C134.776 31.5127 134.838 31.5255 134.9 31.525H147.275C147.337 31.5244 147.398 31.5372 147.455 31.5625C147.512 31.5879 147.563 31.6251 147.604 31.6717C147.645 31.7184 147.675 31.7733 147.693 31.8328C147.711 31.8923 147.716 31.955 147.708 32.0166L146.7 39.1166C146.686 39.2197 146.635 39.3144 146.557 39.3832C146.479 39.4521 146.379 39.4906 146.275 39.4916H133.633C133.529 39.4927 133.429 39.5311 133.351 39.6C133.273 39.6689 133.222 39.7635 133.208 39.8666L132.4 45.5416C132.391 45.6032 132.396 45.6659 132.414 45.7254C132.432 45.7849 132.463 45.8399 132.504 45.8865C132.545 45.9331 132.596 45.9704 132.653 45.9957C132.709 46.021 132.771 46.0339 132.833 46.0333H148.166C148.229 46.0327 148.29 46.0455 148.347 46.0709C148.404 46.0962 148.454 46.1334 148.495 46.1801C148.537 46.2267 148.567 46.2817 148.585 46.3412C148.603 46.4007 148.608 46.4634 148.6 46.525L147.5 54.2249C147.486 54.3281 147.435 54.4227 147.357 54.4916C147.279 54.5604 147.179 54.5989 147.075 54.5999Z" fill="#8C97A4"/>
<path d="M186.025 52.8084L178.041 57.4167C177.949 57.4689 177.842 57.4882 177.738 57.4716C177.633 57.4549 177.538 57.4033 177.466 57.3251C174.022 53.4751 171.155 49.164 168.866 44.3917C168.752 44.1469 168.569 43.9413 168.341 43.8001C167.625 43.3556 166.897 43.2778 166.158 43.5667C165.976 43.6375 165.816 43.7558 165.694 43.9096C165.573 44.0634 165.494 44.247 165.466 44.4417L164.1 54.0834C164.079 54.2375 164.003 54.3791 163.885 54.4818C163.767 54.5845 163.615 54.6413 163.458 54.6417H153.816C153.757 54.6411 153.698 54.6279 153.645 54.6029C153.591 54.5779 153.543 54.5417 153.505 54.4967C153.466 54.4517 153.437 54.3991 153.421 54.3421C153.404 54.2852 153.4 54.2254 153.408 54.1667L158.641 17.2584C158.662 17.1203 158.732 16.9945 158.838 16.9053C158.944 16.8161 159.079 16.7697 159.216 16.7751C159.572 16.7862 164.891 16.8334 175.175 16.9167C181.883 16.9667 188.15 20.3751 187.941 27.7501C187.758 33.8167 184.008 37.4667 179.083 40.4251C178.988 40.4819 178.907 40.5574 178.842 40.647C178.778 40.7366 178.733 40.8384 178.71 40.9461C178.686 41.0538 178.685 41.1652 178.706 41.2733C178.727 41.3815 178.771 41.4842 178.833 41.5751L186.175 52.1334C186.212 52.186 186.237 52.2458 186.25 52.309C186.263 52.3723 186.262 52.4377 186.248 52.5011C186.234 52.5645 186.207 52.6245 186.168 52.6774C186.13 52.7303 186.081 52.7749 186.025 52.8084ZM167.366 35.2917C170.055 35.4695 171.866 35.3751 172.8 35.0084C175.994 33.7695 177.48 31.6028 177.258 28.5084C177.201 27.7113 176.874 26.9575 176.33 26.3723C175.785 25.7871 175.057 25.4058 174.266 25.2917L170.358 24.7334C170.038 24.6883 169.711 24.716 169.403 24.8146C169.095 24.9132 168.813 25.08 168.578 25.3027C168.344 25.5254 168.162 25.7982 168.047 26.1007C167.933 26.4033 167.888 26.7278 167.916 27.0501C168.066 28.7112 167.716 31.2306 166.866 34.6084C166.847 34.6868 166.844 34.7686 166.86 34.848C166.875 34.9273 166.908 35.0023 166.956 35.0675C167.003 35.1328 167.065 35.1867 167.136 35.2255C167.207 35.2642 167.286 35.2868 167.366 35.2917Z" fill="#8C97A4"/>
</svg>
