<svg width="228" height="56" viewBox="0 0 228 56" fill="none" xmlns="http://www.w3.org/2000/svg">
<path d="M34.4133 17.8689L16.213 7.66292L4.47913 1.04552C4.02743 0.794856 3.51926 0.663533 3.00267 0.663963H2.97735C2.19848 0.656253 1.4482 0.957049 0.89035 1.50066C0.332504 2.04427 0.0124171 2.78654 0 3.56535V32.1479L0.0253266 31.8423V32.1479C0.0341735 32.6647 0.177775 33.1702 0.441937 33.6144C0.706099 34.0586 1.08167 34.4262 1.53148 34.6807C1.98129 34.9353 2.48976 35.068 3.00659 35.0657C3.52342 35.0634 4.0307 34.9262 4.47825 34.6677L34.3845 17.8689L34.3338 17.8435L34.4133 17.8689Z" fill="#626A73"/>
<path d="M49.2772 9.46943L34.2856 17.8689L49.2772 26.2683C49.5006 26.399 49.7543 26.4691 50.0131 26.4718C50.2719 26.4745 50.5269 26.4096 50.753 26.2836C50.9791 26.1577 51.1685 25.9749 51.3024 25.7534C51.4364 25.532 51.5102 25.2794 51.5167 25.0206V10.7171C51.5096 10.3257 51.3475 9.95304 51.066 9.68099C50.7844 9.40893 50.4064 9.25968 50.015 9.26599C49.7542 9.25797 49.497 9.32888 49.2772 9.46943Z" fill="#8C97A4"/>
<path d="M133.118 5.60148C132.67 5.60106 132.23 5.47787 131.846 5.24525C131.468 5.01157 131.153 4.6883 130.929 4.30402C130.705 3.90881 130.59 3.46033 130.599 3.00569C130.59 2.55906 130.705 2.11871 130.929 1.73267C131.154 1.35573 131.469 1.04088 131.846 0.816769C132.225 0.583484 132.661 0.459961 133.106 0.459961C133.551 0.459961 133.987 0.583484 134.366 0.816769C134.743 1.04105 135.058 1.35588 135.282 1.73267C135.515 2.11641 135.639 2.55669 135.639 3.00569C135.635 3.46219 135.512 3.90976 135.282 4.30402C135.059 4.6882 134.744 5.01146 134.366 5.24525C133.993 5.48097 133.56 5.60461 133.118 5.60148ZM131.133 10.2107H135.079V35.0502H131.133V10.2107Z" fill="#8C97A4"/>
<path d="M142.917 35.0485L159.718 13.5426H144.726V10.2081H166.768L149.917 31.7158H166.207V35.0485H142.917Z" fill="#8C97A4"/>
<path d="M185.781 35.7652C183.457 35.8022 181.165 35.2225 179.139 34.0854C177.213 33.0114 175.612 31.4374 174.507 29.5294C173.541 27.7806 172.976 25.8389 172.852 23.8449C172.729 21.8509 173.05 19.8544 173.793 17.9998C174.431 16.4711 175.346 15.0733 176.491 13.8769C177.634 12.7053 178.99 11.7634 180.487 11.1021C182.022 10.4421 183.677 10.1042 185.348 10.1094C187.569 10.0605 189.763 10.5958 191.712 11.6618C193.534 12.6746 195.04 14.1724 196.063 15.989C197.14 17.9456 197.701 20.1443 197.692 22.3776C197.697 22.5309 197.688 22.6842 197.667 22.836C197.642 22.9635 197.616 23.1154 197.59 23.2944H176.769C176.733 24.9403 177.137 26.5659 177.94 28.0032C178.708 29.3529 179.836 30.463 181.197 31.2102C182.662 32.0134 184.313 32.4172 185.983 32.381C187.563 32.4205 189.126 32.0554 190.525 31.3203C191.924 30.5853 193.111 29.5047 193.975 28.1813L196.876 29.7337C195.78 31.5952 194.184 33.1119 192.269 34.1115C190.294 35.2353 188.053 35.8066 185.781 35.7652ZM176.972 20.3887H193.694C193.491 19.081 192.976 17.8415 192.193 16.7748C191.428 15.7355 190.424 14.8967 189.265 14.3301C188.032 13.7477 186.686 13.4436 185.323 13.4392C183.959 13.4348 182.611 13.7303 181.375 14.3048C180.213 14.8545 179.207 15.6855 178.448 16.7224C177.675 17.8122 177.17 19.0675 176.972 20.3887Z" fill="#8C97A4"/>
<path d="M206.191 35.0502V10.9214H210.136V14.1284C210.896 12.9406 211.948 11.9678 213.192 11.303C214.694 10.5018 216.38 10.1069 218.082 10.1574C219.742 10.1065 221.386 10.5021 222.841 11.303C224.183 12.0867 225.256 13.2579 225.921 14.6628C226.691 16.3098 227.066 18.1143 227.015 19.9321V35.0511H223.071V20.7205C223.199 18.7633 222.61 16.8263 221.412 15.2731C220.823 14.6343 220.1 14.134 219.294 13.8083C218.489 13.4827 217.621 13.3397 216.754 13.3897C215.513 13.3562 214.285 13.6456 213.19 14.2297C212.246 14.7576 211.463 15.5316 210.925 16.4692C210.398 17.4009 210.127 18.4551 210.139 19.5252V35.0511L206.191 35.0502Z" fill="#8C97A4"/>
<path d="M79.1076 21.687L91.1977 9.6484H86.0568L75.8238 19.9303H72.5932V0.663086H68.6484V35.0493H72.5932V23.6184H75.8238L86.2087 35.0467H91.3243L79.1076 21.687Z" fill="#8C97A4"/>
<path d="M117.513 10.2081V15.4259C116.629 13.745 115.277 12.3568 113.619 11.4296C112.269 10.6688 110.779 10.1882 109.239 10.0162C107.698 9.84431 106.139 9.98467 104.654 10.4289C103.169 10.8732 101.789 11.6123 100.596 12.6019C99.4036 13.5916 98.4225 14.8116 97.7118 16.189C96.7029 18.2318 96.1802 20.4803 96.1846 22.7587C96.189 25.0371 96.7203 27.2836 97.7372 29.3225C98.7255 31.1826 100.182 32.7529 101.962 33.8784C103.756 34.9942 105.832 35.5701 107.944 35.5374C109.886 35.5615 111.797 35.0507 113.467 34.0609C115.138 33.0742 116.523 31.6711 117.489 29.9887V35.0022H121.435V10.2081H117.513ZM108.019 31.817C103.362 31.817 99.5943 27.7701 99.5943 22.7557C99.5943 17.7414 103.362 13.6945 108.019 13.6945C112.676 13.6945 116.444 17.7676 116.444 22.7557C116.444 27.7439 112.677 31.817 108.019 31.817Z" fill="#8C97A4"/>
<path d="M151.978 49.7343H153.403V54.0126C152.127 54.9805 150.575 55.5156 148.974 55.5397C147.897 55.5481 146.836 55.2774 145.895 54.7539C144.974 54.2417 144.208 53.4923 143.675 52.5836C143.143 51.6749 142.863 50.6401 142.866 49.5868C142.858 48.5326 143.138 47.4964 143.677 46.5902C144.216 45.6841 144.992 44.9425 145.922 44.4458C146.89 43.9215 147.976 43.6512 149.077 43.66C149.886 43.6622 150.688 43.81 151.444 44.0966C152.184 44.3646 152.865 44.7708 153.453 45.2936L152.537 46.4645C152.065 46.0353 151.522 45.6909 150.933 45.4464C150.341 45.2135 149.711 45.0927 149.075 45.0902C148.263 45.0876 147.464 45.2984 146.759 45.7014C146.065 46.0792 145.49 46.6435 145.1 47.3306C144.7 48.0231 144.489 48.8088 144.489 49.6086C144.489 50.4084 144.7 51.1941 145.1 51.8866C145.508 52.5771 146.088 53.1493 146.785 53.5466C147.481 53.9438 148.269 54.1523 149.071 54.1514C149.581 54.1523 150.087 54.0752 150.573 53.9227C151.073 53.7715 151.545 53.5393 151.97 53.2355V49.7343H151.978Z" fill="#8C97A4"/>
<path d="M168.141 55.4367L166.918 52.6112H160.758L159.536 55.4367H157.833L163.024 43.7543H164.704L169.871 55.4367H168.141ZM161.37 51.1348H166.283L163.813 45.4595L161.37 51.1348Z" fill="#8C97A4"/>
<path d="M174.58 43.7543H176.465L180.743 51.9503L184.994 43.7543H186.903V55.4367H185.401L185.376 46.1213L181.227 54.2152H180.234L176.035 46.1213V55.4367H174.558L174.583 43.7543H174.58Z" fill="#8C97A4"/>
<path d="M193.262 43.7543H194.865V55.4367H193.262V43.7543Z" fill="#8C97A4"/>
<path d="M209.526 43.7543H211.104V55.4367H209.501L202.832 46.3973V55.4332H201.229V43.7509H202.857L209.552 52.8121L209.526 43.7509V43.7543Z" fill="#8C97A4"/>
<path d="M225.536 49.7343H226.961V54.0126C225.685 54.9807 224.133 55.5158 222.531 55.5397C221.454 55.5482 220.393 55.2775 219.452 54.7539C218.532 54.2417 217.765 53.4923 217.232 52.5836C216.7 51.6749 216.42 50.6401 216.423 49.5868C216.415 48.5326 216.695 47.4963 217.234 46.5901C217.773 45.6839 218.549 44.9424 219.479 44.4458C220.439 43.9216 221.516 43.6511 222.61 43.66C223.419 43.6622 224.221 43.81 224.977 44.0966C225.716 44.3646 226.398 44.7708 226.985 45.2936L226.069 46.4645C225.597 46.0353 225.055 45.6909 224.465 45.4464C223.873 45.2135 223.243 45.0927 222.607 45.0902C221.795 45.0876 220.997 45.2984 220.292 45.7014C219.598 46.0792 219.023 46.6435 218.633 47.3306C218.233 48.0231 218.022 48.8088 218.022 49.6086C218.022 50.4084 218.233 51.1941 218.633 51.8866C219.042 52.5749 219.624 53.1454 220.319 53.5424C221.015 53.9393 221.802 54.1491 222.603 54.1514C223.112 54.1523 223.619 54.0751 224.105 53.9227C224.605 53.7715 225.077 53.5393 225.502 53.2355L225.527 49.7483L225.536 49.7343Z" fill="#8C97A4"/>
</svg>
