<svg width="217" height="36" viewBox="0 0 217 36" fill="none" xmlns="http://www.w3.org/2000/svg">
<path d="M16.0384 18.9588C15.1648 19.7845 15.2809 20.5694 14.8919 21.6136C13.2676 25.9632 11.7047 30.3309 10.2033 34.7169C10.1692 34.8165 10.1048 34.9029 10.0191 34.9641C9.93346 35.0253 9.83083 35.0582 9.72557 35.0582H0.246086C0.206746 35.0582 0.167973 35.0489 0.133015 35.0308C0.098056 35.0128 0.0679351 34.9866 0.0451963 34.9545C0.0224574 34.9224 0.00776467 34.8853 0.00234411 34.8463C-0.00307645 34.8074 0.000935855 34.7677 0.014049 34.7306L10.9335 4.2925C10.971 4.18845 10.9807 4.0764 10.9615 3.96746C10.9424 3.85853 10.8951 3.75649 10.8243 3.67146L8.88614 1.27599C8.8595 1.2421 8.84284 1.20145 8.83801 1.15861C8.83318 1.11577 8.84038 1.07243 8.8588 1.03345C8.87723 0.994475 8.90615 0.961407 8.94232 0.937947C8.97849 0.914488 9.02048 0.901565 9.06358 0.900635H22.167C22.2714 0.900509 22.3727 0.937191 22.4536 1.00441C22.5345 1.07163 22.59 1.16522 22.6106 1.26917L27.033 24.4185C27.0541 24.5287 27.049 24.6423 27.0182 24.7501C26.9874 24.858 26.9317 24.9571 26.8555 25.0395L19.1163 33.468C19.1037 33.4824 19.0873 33.493 19.069 33.4985C19.0507 33.5041 19.0312 33.5044 19.0127 33.4994C18.9943 33.4944 18.9776 33.4844 18.9645 33.4704C18.9515 33.4564 18.9426 33.439 18.9389 33.4203L16.1817 19.0065C16.1783 18.9918 16.1711 18.9782 16.1609 18.967C16.1507 18.9558 16.1378 18.9474 16.1234 18.9426C16.109 18.9378 16.0937 18.9368 16.0788 18.9396C16.0639 18.9424 16.05 18.949 16.0384 18.9588Z" fill="#8C97A4"/>
<path d="M49.2677 1.95845L37.6453 34.2528C37.436 34.7988 36.9514 35.0764 36.1916 35.0855C32.3152 35.1219 29.4147 35.0809 27.4901 34.9626C27.4475 34.96 27.4061 34.9474 27.3692 34.9259C27.3323 34.9044 27.3009 34.8745 27.2777 34.8386C27.2545 34.8028 27.24 34.762 27.2354 34.7195C27.2308 34.677 27.2362 34.6341 27.2513 34.5941L32.8816 18.8973C32.8926 18.8622 32.8914 18.8245 32.8783 18.7902C32.8653 18.7559 32.841 18.727 32.8095 18.7081C32.7781 18.6892 32.7411 18.6814 32.7047 18.686C32.6682 18.6906 32.6344 18.7074 32.6086 18.7335L29.4352 22.1868C29.3945 22.2325 29.3418 22.2659 29.2831 22.2831C29.2244 22.3004 29.162 22.3009 29.1031 22.2846C29.0441 22.2682 28.9909 22.2357 28.9495 22.1907C28.9081 22.1457 28.8801 22.09 28.8687 22.0298L27.2035 13.3147C27.1655 13.1197 27.1741 12.918 27.2286 12.726C27.2831 12.534 27.382 12.3569 27.5174 12.2091L37.6521 1.17361C37.7339 1.08526 37.8332 1.0148 37.9436 0.966648C38.054 0.918495 38.1732 0.893694 38.2936 0.893799H48.9742C49.031 0.893798 49.0871 0.905023 49.1394 0.926805C49.1916 0.948588 49.2389 0.980484 49.2784 1.0206C49.3178 1.06071 49.3487 1.10821 49.3691 1.16029C49.3896 1.21237 49.3992 1.26796 49.3973 1.32375C49.3928 1.50119 49.3496 1.71276 49.2677 1.95845Z" fill="#8C97A4"/>
<path d="M78.5522 9.17214L69.7279 33.6455L69.1887 34.7306C69.1399 34.8308 69.0629 34.9153 68.9663 34.9744C68.8698 35.0336 68.7577 35.0649 68.6427 35.065H59.252C59.2194 35.0643 59.1874 35.0562 59.1586 35.0412C59.1298 35.0262 59.105 35.0048 59.0863 34.9787C59.0676 34.9527 59.0556 34.9228 59.0512 34.8915C59.0467 34.8602 59.0501 34.8284 59.0609 34.7988L63.3536 22.8283C63.3709 22.7772 63.3758 22.7227 63.3679 22.6693C63.36 22.6159 63.3396 22.5651 63.3083 22.5212C63.277 22.4772 63.2357 22.4413 63.1878 22.4164C63.1399 22.3915 63.0868 22.3783 63.0329 22.3779H55.1299C54.9224 22.3782 54.7203 22.442 54.5516 22.5606C54.383 22.6792 54.2559 22.8466 54.1881 23.0399L49.9841 34.7511C49.9465 34.8576 49.8759 34.9494 49.7827 35.0132C49.6894 35.077 49.5783 35.1095 49.4654 35.1059L39.7197 34.8876L47.2883 13.7037C47.3197 13.6104 47.3801 13.5292 47.4609 13.4717C47.5417 13.4141 47.6389 13.3831 47.7387 13.383H66.1859C66.3461 13.3828 66.5023 13.3336 66.6331 13.242C66.7638 13.1503 66.8626 13.0208 66.9161 12.8711L67.8511 10.2573C67.8656 10.2198 67.8707 10.1794 67.8659 10.1395C67.8612 10.0996 67.8467 10.0615 67.8238 10.0285C67.8009 9.99546 67.7703 9.96858 67.7346 9.95016C67.6989 9.93175 67.6592 9.92237 67.619 9.92285H53.3077C53.1451 9.92291 52.9857 9.95063 52.8368 10.0048L48.3188 11.6154C48.2809 11.6279 48.24 11.6297 48.201 11.6206C48.162 11.6115 48.1265 11.5918 48.0986 11.5639C48.0707 11.536 48.0516 11.501 48.0435 11.463C48.0353 11.425 48.0385 11.3855 48.0527 11.3492L51.2603 2.70916L51.9973 1.20091C52.0422 1.10876 52.112 1.0311 52.1989 0.976785C52.2858 0.922476 52.3863 0.893719 52.4887 0.893799H74.8259C74.9599 0.893933 75.0927 0.924655 75.2143 0.98371C75.336 1.04277 75.4435 1.12865 75.5288 1.23503L79.3097 5.90312C79.3832 5.99539 79.4323 6.1044 79.4526 6.22009C79.4729 6.33579 79.4636 6.45444 79.4257 6.56511L78.5522 9.17214Z" fill="#8C97A4"/>
<path d="M123.521 0.805054L125.698 0.859652C125.739 0.861525 125.78 0.87311 125.816 0.893476C125.852 0.913842 125.883 0.942421 125.907 0.976926C125.93 1.01143 125.945 1.0509 125.95 1.09216C125.955 1.13343 125.951 1.17534 125.937 1.21453L113.864 34.8329C110.524 35.2561 107.064 35.3084 103.483 34.9899L114.376 4.64053C114.495 4.30659 114.513 3.9452 114.428 3.60164C114.343 3.25808 114.159 2.94762 113.898 2.70914L113.605 2.43615C113.543 2.37863 113.468 2.33747 113.386 2.31633C113.305 2.2952 113.219 2.29474 113.136 2.31499C113.054 2.33524 112.978 2.37559 112.914 2.43245C112.85 2.4893 112.802 2.5609 112.772 2.6409L108.404 14.823C108.379 14.8935 108.333 14.955 108.273 14.9993C108.212 15.0437 108.14 15.069 108.065 15.0719C107.99 15.0749 107.916 15.0553 107.853 15.0158C107.789 14.9763 107.739 14.9186 107.708 14.8503C107.494 14.3771 107.146 13.8948 106.664 13.4034L104.227 10.1549C104.14 10.0425 104.028 9.95147 103.901 9.88878C103.773 9.8261 103.633 9.7934 103.49 9.79316H91.2059C91.1235 9.79292 91.0429 9.81754 90.9748 9.86381C90.9066 9.91008 90.8539 9.97584 90.8237 10.0525L87.4318 19.3614L85.1524 25.7561C85.1381 25.7975 85.1337 25.8417 85.1396 25.885C85.1455 25.9283 85.1616 25.9695 85.1863 26.005C85.2111 26.0404 85.2439 26.0692 85.2819 26.0888C85.32 26.1085 85.3622 26.1184 85.4049 26.1178H93.3011C93.5431 26.1179 93.7792 26.0432 93.9771 25.9039C94.175 25.7647 94.3251 25.5676 94.4067 25.3398L94.8366 24.1455C94.8576 24.0865 94.8642 24.0233 94.8559 23.9613C94.8477 23.8993 94.8249 23.8403 94.7894 23.7894C94.7538 23.7385 94.7067 23.6971 94.652 23.6688C94.5972 23.6405 94.5365 23.6261 94.4749 23.6268H90.1003C90.0601 23.6268 90.0205 23.6172 89.9848 23.5988C89.949 23.5804 89.9182 23.5538 89.8948 23.5211C89.8715 23.4884 89.8562 23.4505 89.8504 23.4108C89.8446 23.371 89.8484 23.3304 89.8614 23.2924L91.1854 19.3614L92.8506 14.9594C92.8846 14.8665 92.9462 14.7858 93.0276 14.7275C93.109 14.6691 93.2066 14.6359 93.3079 14.6319C97.744 14.4408 100.77 14.4066 102.385 14.5295C102.99 14.575 103.6 15.0049 104.214 15.8194L106.643 18.7813C106.71 18.8624 106.755 18.9597 106.773 19.0638C106.791 19.1678 106.781 19.2751 106.746 19.375L101.47 34.2392C101.245 34.8125 100.952 35.1469 100.269 35.14C90.7418 35.1218 81.1759 35.1036 71.5713 35.0854L80.4161 10.3323L81.938 6.38765C82.049 6.09839 82.2439 5.84888 82.4976 5.67106L88.6944 1.31691C89.0807 1.04612 89.5406 0.900775 90.0116 0.900599L123.521 0.805054Z" fill="#8C97A4"/>
<path d="M116.102 35.1263L126.196 6.94039C126.426 6.2927 126.856 5.73383 127.424 5.34341L130.755 3.05032L133.628 1.09163C133.801 0.971535 134.008 0.907247 134.222 0.907367H154.75C154.795 0.906853 154.84 0.917316 154.88 0.937858C154.921 0.958399 154.955 0.988409 154.982 1.02531C155.008 1.06221 155.025 1.10491 155.031 1.14974C155.037 1.19458 155.032 1.24021 155.016 1.28273L150.225 14.625C150.208 14.6725 150.178 14.7145 150.139 14.7468C150.1 14.779 150.053 14.8004 150.004 14.8088C149.954 14.8171 149.902 14.812 149.855 14.7941C149.808 14.7762 149.766 14.7461 149.734 14.7069L145.933 10.0183C145.869 9.93738 145.787 9.87199 145.694 9.82707C145.6 9.78216 145.498 9.75888 145.394 9.75898H135.88C135.744 9.75916 135.612 9.80062 135.502 9.87764C135.392 9.95466 135.31 10.0634 135.266 10.1889L129.642 25.8652C129.626 25.9085 129.62 25.9552 129.625 26.0012C129.631 26.0472 129.647 26.0912 129.673 26.1295C129.7 26.1677 129.735 26.1991 129.776 26.2208C129.816 26.2425 129.862 26.254 129.908 26.2543H141.319C141.586 26.2543 141.846 26.1707 142.063 26.0154L146.922 22.6099C146.956 22.5863 146.997 22.574 147.039 22.5749C147.08 22.5757 147.12 22.5895 147.154 22.6144C147.187 22.6393 147.211 22.674 147.224 22.7136C147.236 22.7532 147.236 22.7957 147.223 22.8351L143.046 34.478C142.984 34.6521 142.87 34.8026 142.72 34.909C142.569 35.0153 142.39 35.0722 142.206 35.0717L116.102 35.1263Z" fill="#8C97A4"/>
<path d="M179.838 20.8491L175.886 31.8846C175.847 31.9896 175.769 32.0753 175.668 32.1234L169.812 35.0103C169.753 35.0384 169.687 35.0524 169.621 35.0512H151.624C151.561 35.0516 151.497 35.0376 151.44 35.0105C151.382 34.9833 151.331 34.9436 151.29 34.8943L147.366 30.0487C147.32 29.9911 147.289 29.9224 147.277 29.8495C147.265 29.7766 147.272 29.7018 147.298 29.6324L150.205 21.5179C150.232 21.4428 150.279 21.3766 150.341 21.3268L154.197 18.2079C154.241 18.1722 154.278 18.1281 154.305 18.0782C154.332 18.0282 154.349 17.9735 154.355 17.917C154.36 17.8605 154.355 17.8035 154.338 17.7492C154.322 17.6949 154.295 17.6443 154.259 17.6005L152.594 15.5395C152.547 15.4818 152.517 15.4132 152.505 15.3402C152.493 15.2673 152.5 15.1926 152.525 15.1232L156.477 4.09446C156.516 3.98943 156.594 3.90373 156.695 3.8556L162.551 0.968752C162.61 0.940615 162.676 0.926606 162.742 0.927805H180.739C180.802 0.927474 180.866 0.941391 180.923 0.968544C180.981 0.995696 181.032 1.0354 181.073 1.08478L184.997 5.9303C185.043 5.98798 185.074 6.05659 185.086 6.12951C185.098 6.20243 185.091 6.2772 185.065 6.34661L182.158 14.4612C182.131 14.5363 182.084 14.6024 182.022 14.6522L178.166 17.7711C178.122 17.8068 178.085 17.8509 178.058 17.9009C178.031 17.9508 178.014 18.0056 178.008 18.062C178.003 18.1185 178.008 18.1755 178.025 18.2299C178.041 18.2842 178.068 18.3347 178.104 18.3785L179.769 20.4327C179.816 20.4904 179.846 20.559 179.858 20.632C179.87 20.7049 179.863 20.7796 179.838 20.8491ZM170.604 13.5125L171.457 13.5194C171.844 13.7787 172.114 13.74 172.269 13.4033C172.838 12.1703 173.25 11.1284 173.504 10.2776C173.521 10.2184 173.525 10.156 173.514 10.0954C173.503 10.0348 173.478 9.97775 173.442 9.9287C173.405 9.87965 173.358 9.83999 173.304 9.81289C173.249 9.78578 173.19 9.77199 173.129 9.7726H164.871C164.785 9.77295 164.702 9.79937 164.632 9.84824C164.563 9.8971 164.51 9.96602 164.482 10.0456L163.301 13.3419C163.288 13.3767 163.283 13.4144 163.288 13.4515C163.292 13.4886 163.306 13.524 163.328 13.5545C163.349 13.585 163.378 13.6096 163.412 13.6261C163.445 13.6426 163.482 13.6505 163.52 13.649L170.604 13.5125ZM163.868 26.261C165.924 26.261 167.078 26.2588 167.328 26.2542C167.469 26.2504 167.605 26.2046 167.718 26.1229C167.832 26.0413 167.917 25.9276 167.963 25.7969L169.007 22.8828C169.028 22.8263 169.036 22.7655 169.029 22.7054C169.022 22.6453 169.001 22.5876 168.967 22.537C168.933 22.4863 168.887 22.4443 168.834 22.4142C168.78 22.3842 168.72 22.367 168.659 22.3641C168.277 22.3505 166.716 22.3437 163.977 22.3437C161.921 22.3437 160.767 22.3459 160.517 22.3505C160.376 22.3543 160.24 22.4001 160.127 22.4818C160.013 22.5634 159.928 22.6771 159.882 22.8077L158.838 25.7219C158.817 25.7784 158.809 25.8392 158.816 25.8993C158.823 25.9594 158.844 26.0171 158.878 26.0677C158.912 26.1184 158.958 26.1604 159.011 26.1905C159.065 26.2205 159.125 26.2377 159.186 26.2406C159.568 26.2542 161.129 26.261 163.868 26.261Z" fill="#626A73"/>
<path d="M204.113 0.927847L212.541 0.989272C212.648 0.991256 212.753 1.01609 212.848 1.06205C212.944 1.10801 213.028 1.174 213.094 1.25543L216.8 5.8348C216.871 5.92429 216.919 6.0301 216.938 6.14231C216.957 6.25451 216.947 6.36943 216.909 6.47631L214.166 14.1131C214.063 14.4076 213.879 14.6678 213.633 14.8639L210.139 17.6893C210.026 17.7821 209.954 17.9154 209.939 18.0599C209.923 18.2045 209.966 18.3485 210.057 18.4605L211.586 20.3509C211.661 20.4424 211.711 20.5509 211.731 20.6658C211.752 20.7806 211.742 20.8979 211.702 21.0061L207.867 31.6867C207.788 31.9096 207.624 32.0933 207.409 32.1985L201.649 35.0103L183.694 35.024C183.576 35.0238 183.46 34.9973 183.354 34.9466C183.248 34.8958 183.154 34.822 183.079 34.7305L179.408 30.1989C179.322 30.0922 179.265 29.9658 179.243 29.832C179.22 29.6981 179.232 29.5613 179.278 29.4345L181.994 21.8592C182.097 21.5694 182.279 21.3139 182.52 21.1221L186.048 18.2625C186.101 18.2208 186.144 18.169 186.176 18.1102C186.209 18.0513 186.229 17.9867 186.236 17.92C186.243 17.8533 186.237 17.7859 186.217 17.7216C186.198 17.6574 186.166 17.5977 186.123 17.546L184.567 15.6146C184.495 15.5278 184.446 15.4234 184.427 15.3119C184.408 15.2004 184.419 15.0859 184.458 14.9799L188.212 4.51081C188.343 4.14316 188.615 3.83973 188.969 3.66455L194.272 1.05069C194.452 0.965251 194.647 0.920952 194.845 0.921021L204.113 0.927847ZM205.321 9.77264H196.613C196.57 9.77266 196.529 9.78567 196.494 9.80999C196.459 9.8343 196.431 9.86883 196.415 9.90913L195.193 13.3215C195.183 13.349 195.18 13.3785 195.184 13.4075C195.188 13.4364 195.199 13.464 195.216 13.488C195.232 13.512 195.254 13.5317 195.28 13.5455C195.306 13.5592 195.335 13.5667 195.364 13.5672H203.997C204.063 13.5674 204.127 13.5479 204.18 13.5113C204.234 13.4747 204.275 13.4227 204.297 13.3624L205.492 10.0115C205.502 9.98434 205.505 9.95515 205.501 9.92646C205.497 9.89777 205.486 9.87045 205.47 9.8469C205.453 9.82334 205.43 9.80426 205.404 9.79131C205.379 9.77837 205.35 9.77196 205.321 9.77264ZM200.912 22.8146C200.931 22.7622 200.936 22.706 200.929 22.6509C200.921 22.5958 200.901 22.5433 200.868 22.4979C200.836 22.4524 200.794 22.4153 200.744 22.3897C200.695 22.364 200.64 22.3506 200.585 22.3505H192.204C192.132 22.3507 192.062 22.373 192.003 22.4146C191.945 22.4561 191.9 22.5148 191.876 22.5826L190.723 25.797C190.704 25.8494 190.699 25.9056 190.706 25.9607C190.714 26.0158 190.735 26.0683 190.767 26.1137C190.799 26.1592 190.841 26.1963 190.891 26.2219C190.94 26.2476 190.995 26.261 191.051 26.2611H199.431C199.503 26.261 199.573 26.2386 199.632 26.197C199.691 26.1555 199.735 26.0968 199.759 26.029L200.912 22.8146Z" fill="#626A73"/>
</svg>
