<svg width="388" height="44" viewBox="0 0 388 44" fill="none" xmlns="http://www.w3.org/2000/svg">
<path d="M81.8402 5.06421L81.8354 5.06895C76.9319 0.356214 69.1114 0.402076 64.2668 5.2097L57.8961 11.5339L51.3787 5.06421L51.374 5.06895C46.4704 0.356214 38.6499 0.402076 33.8054 5.2097L0 38.7682C4.89238 43.6249 12.8244 43.6249 17.7167 38.7682L41.089 15.5682C41.9604 14.7032 43.3719 14.7032 44.2433 15.5682L49.0385 20.3284L30.4631 38.7682C35.3554 43.6249 43.2874 43.6249 48.1798 38.7682L71.5504 15.5682C72.4219 14.7032 73.8333 14.7032 74.7048 15.5682L88.305 29.0691L97.1641 20.2747L81.8418 5.06421H81.8402Z" fill="#8C97A4"/>
<path d="M122.122 32.4266C126.984 27.5668 126.974 19.7164 122.093 14.8693L112.26 5.10851L112.254 5.11484C107.354 0.354656 99.4964 0.383122 94.6359 5.20815L60.8306 38.7667C65.7229 43.6233 73.6549 43.6233 78.5473 38.7667L101.921 15.5635C102.793 14.6985 104.204 14.6985 105.075 15.5635L111.66 22.0997C112.531 22.9647 112.531 24.3659 111.66 25.231L108.438 28.4287C107.567 29.2937 106.156 29.2937 105.284 28.4287L100.314 23.4945L91.4545 32.289L98.0053 38.792C102.867 43.6186 110.729 43.6454 115.628 38.8805L115.631 38.8773C115.662 38.8473 115.692 38.8204 115.722 38.792H115.72L122.125 32.4313L122.122 32.4282V32.4266Z" fill="#626A73"/>
<path d="M106.861 43.0651C106.84 43.0651 106.819 43.0651 106.799 43.0651C103.307 43.0492 100.023 41.6892 97.5539 39.2379L90.5523 32.2874L100.312 22.5994L105.733 27.9811C106.034 28.28 106.434 28.4445 106.859 28.4445C107.285 28.4445 107.684 28.28 107.985 27.9811L111.207 24.7834C111.828 24.1667 111.828 23.164 111.207 22.5472L104.622 16.0111C104.321 15.7122 103.922 15.5477 103.496 15.5477C103.071 15.5477 102.671 15.7122 102.37 16.0111L78.996 39.2142C73.8631 44.3097 65.5105 44.3097 60.3776 39.2142L59.9268 38.7667L60.3776 38.3191L94.1846 4.76218C96.6538 2.31093 99.9356 0.952455 103.426 0.935059C103.448 0.935059 103.471 0.935059 103.491 0.935059C106.744 0.935059 109.824 2.10217 112.237 4.23556L112.253 4.21974L112.711 4.66097L122.543 14.4201C127.509 19.3495 127.668 27.2916 123.011 32.4124L123.027 32.4282L116.176 39.2348C116.153 39.2569 116.131 39.2775 116.109 39.298L116.08 39.3249C113.6 41.7382 110.329 43.0619 106.864 43.0619L106.861 43.0651ZM92.3541 32.289L98.454 38.3444C103.042 42.899 110.546 42.937 115.18 38.4282L115.193 38.4156C115.193 38.4156 115.199 38.4092 115.202 38.4077L115.267 38.3412L121.35 32.3032L121.667 31.9806C126.273 27.3786 126.26 19.903 121.64 15.3168L112.057 5.80594L111.806 5.56873C109.569 3.3958 106.619 2.20181 103.49 2.20181C103.471 2.20181 103.45 2.20181 103.431 2.20181C100.278 2.21762 97.3134 3.44483 95.0846 5.65729L61.7413 38.7572C63.927 40.7103 66.7245 41.7793 69.6876 41.7793C72.8642 41.7793 75.8497 40.5521 78.0959 38.3223L101.47 15.1191C102.011 14.5814 102.731 14.2857 103.498 14.2857C104.264 14.2857 104.984 14.5814 105.526 15.1191L112.11 21.6553C113.228 22.7655 113.228 24.5715 112.11 25.6817L108.889 28.8794C108.347 29.4171 107.627 29.7128 106.861 29.7128C106.094 29.7128 105.374 29.4171 104.833 28.8794L100.312 24.3928L92.3541 32.2922V32.289Z" fill="#8C97A4"/>
<path d="M147.455 31.8131V11.5084H151.868L159.264 23.5466L156.103 23.5168L163.588 11.5084H167.822V31.8131H163.036V25.4921C163.036 23.7554 163.081 22.1826 163.17 20.7961C163.26 19.4022 163.409 18.0232 163.618 16.6517L164.169 18.1574L158.541 26.886H156.625L151.115 18.2096L151.667 16.6442C151.883 17.9412 152.032 19.268 152.114 20.6321C152.204 21.9962 152.249 23.6137 152.249 25.4921V31.8131H147.462H147.455Z" fill="#8C97A4"/>
<path d="M172.929 31.8131V11.5084H187.086V15.7125H177.715V27.6091H187.377V31.8131H172.929ZM175.248 23.487V19.4842H185.782V23.487H175.248Z" fill="#8C97A4"/>
<path d="M201.072 32.1039C199.446 32.1039 197.978 31.843 196.666 31.3212C195.346 30.7994 194.22 30.0615 193.274 29.1148C192.327 28.1682 191.596 27.0501 191.097 25.7605C190.597 24.4784 190.344 23.0771 190.344 21.5714C190.344 20.0657 190.612 18.6792 191.141 17.412C191.671 16.1449 192.431 15.0417 193.415 14.0876C194.399 13.1334 195.57 12.403 196.912 11.8812C198.254 11.3594 199.722 11.0985 201.31 11.0985C202.428 11.0985 203.487 11.2476 204.486 11.5308C205.485 11.8215 206.387 12.2166 207.2 12.7235C208.012 13.2303 208.698 13.8043 209.257 14.4677L206.268 17.6282C205.783 17.1661 205.284 16.7785 204.777 16.4654C204.262 16.1598 203.718 15.9138 203.137 15.7274C202.555 15.5411 201.936 15.4516 201.28 15.4516C200.43 15.4516 199.648 15.6082 198.947 15.9138C198.239 16.2269 197.62 16.6517 197.091 17.2033C196.561 17.7549 196.151 18.4034 195.86 19.1488C195.57 19.8942 195.428 20.6993 195.428 21.5714C195.428 22.4435 195.585 23.256 195.89 24.0088C196.196 24.7617 196.621 25.4176 197.165 25.9692C197.709 26.5208 198.35 26.9532 199.096 27.2737C199.841 27.5942 200.639 27.7507 201.489 27.7507C202.085 27.7507 202.652 27.6538 203.189 27.46C203.718 27.2662 204.18 27.0053 204.568 26.6774C204.956 26.3494 205.261 25.9543 205.5 25.4996C205.731 25.0449 205.85 24.5604 205.85 24.0387V23.2858L206.491 24.2697H200.893V20.4085H210.435C210.472 20.6247 210.502 20.9154 210.524 21.2807C210.547 21.6459 210.554 22.0037 210.569 22.354C210.577 22.7044 210.584 22.9653 210.584 23.1367C210.584 24.4561 210.346 25.6562 209.876 26.7519C209.406 27.8476 208.743 28.7868 207.885 29.577C207.036 30.3671 206.029 30.9858 204.866 31.433C203.703 31.8803 202.451 32.0964 201.094 32.0964L201.072 32.1039Z" fill="#8C97A4"/>
<path d="M211.456 31.8131L219.493 11.5084H223.667L231.644 31.8131H226.657L222.825 21.5117C222.668 21.1092 222.512 20.6694 222.363 20.2072C222.206 19.7451 222.05 19.2606 221.901 18.7686C221.744 18.2767 221.595 17.7922 221.453 17.3151C221.312 16.8455 221.185 16.4057 221.088 15.9957L221.96 15.9659C221.841 16.4504 221.714 16.92 221.565 17.3896C221.423 17.8518 221.274 18.3139 221.133 18.7686C220.991 19.2233 220.827 19.678 220.656 20.1327C220.484 20.5874 220.32 21.057 220.164 21.5415L216.332 31.8131H211.456ZM215.288 27.9296L216.824 24.2175H226.165L227.671 27.9296H215.28H215.288Z" fill="#8C97A4"/>
<path d="M234.172 31.8131V11.5084H242.932C244.206 11.5084 245.347 11.7991 246.339 12.3805C247.33 12.962 248.128 13.7521 248.717 14.7584C249.306 15.7647 249.604 16.8977 249.604 18.1499C249.604 19.4022 249.306 20.6396 248.717 21.6757C248.128 22.7118 247.33 23.5243 246.339 24.128C245.34 24.7244 244.206 25.03 242.932 25.03H239.1V31.8206H234.165L234.172 31.8131ZM239.018 20.7067H242.238C242.663 20.7067 243.051 20.6023 243.401 20.3861C243.752 20.17 244.028 19.8867 244.244 19.514C244.46 19.1488 244.564 18.7239 244.564 18.2394C244.564 17.7549 244.46 17.3076 244.244 16.9648C244.028 16.6219 243.752 16.3461 243.401 16.1523C243.051 15.9585 242.663 15.8616 242.238 15.8616H239.018V20.7067Z" fill="#8C97A4"/>
<path d="M248.911 31.8131L256.947 11.5084H261.122L269.099 31.8131H264.111L260.28 21.5117C260.123 21.1092 259.966 20.6694 259.817 20.2072C259.661 19.7451 259.504 19.2606 259.355 18.7686C259.199 18.2767 259.049 17.7922 258.908 17.3151C258.766 16.8455 258.639 16.4057 258.542 15.9957L259.415 15.9659C259.295 16.4504 259.169 16.92 259.02 17.3896C258.871 17.8518 258.729 18.3139 258.587 18.7686C258.446 19.2233 258.282 19.678 258.11 20.1327C257.939 20.5874 257.775 21.057 257.618 21.5415L253.786 31.8131H248.911ZM252.742 27.9296L254.278 24.2175H263.619L265.125 27.9296H252.735H252.742Z" fill="#8C97A4"/>
<path d="M271.626 31.8131V11.5084H280.766C282.063 11.5084 283.233 11.7917 284.292 12.3507C285.343 12.9098 286.171 13.685 286.775 14.654C287.371 15.6305 287.677 16.7411 287.677 17.9785C287.677 19.2159 287.378 20.4011 286.775 21.4148C286.178 22.4285 285.351 23.2261 284.307 23.8075C283.263 24.3889 282.085 24.6796 280.766 24.6796H276.33V31.8131H271.633H271.626ZM276.323 20.9079H280.326C280.825 20.9079 281.273 20.7961 281.645 20.5725C282.018 20.3489 282.309 20.0358 282.518 19.6258C282.719 19.2233 282.823 18.7537 282.823 18.2319C282.823 17.7102 282.704 17.248 282.473 16.8529C282.242 16.4579 281.906 16.1523 281.474 15.9436C281.042 15.7274 280.512 15.623 279.894 15.623H276.323V20.9005V20.9079ZM282.876 31.8131L277.709 22.6447L282.756 21.9217L288.504 31.8131H282.876Z" fill="#8C97A4"/>
<path d="M295.825 31.8131V15.8616H289.793V11.5084H306.94V15.8616H300.76V31.8131H295.825Z" fill="#8C97A4"/>
<path d="M310.415 31.8131V11.5084H314.821L325.466 26.0139L324.505 25.8648C324.408 25.2238 324.333 24.62 324.274 24.0386C324.214 23.4572 324.162 22.8907 324.117 22.3242C324.072 21.7651 324.028 21.1912 323.998 20.6172C323.968 20.0358 323.945 19.4097 323.938 18.7314C323.931 18.053 323.923 17.3226 323.923 16.525V11.5084H328.709V31.8131H324.244L313.128 16.8455L314.612 17.0468C314.709 17.9785 314.791 18.7612 314.858 19.4097C314.925 20.0582 314.985 20.6321 315.029 21.1315C315.074 21.6384 315.111 22.0931 315.134 22.4956C315.156 22.8981 315.163 23.3007 315.178 23.7032C315.186 24.0982 315.193 24.538 315.193 25.0225V31.8131H310.407H310.415Z" fill="#8C97A4"/>
<path d="M333.831 31.8131V11.5084H347.988V15.7125H338.617V27.6091H348.278V31.8131H333.831ZM336.149 23.487V19.4842H346.683V23.487H336.149Z" fill="#8C97A4"/>
<path d="M352.542 31.8131V11.5084H361.682C362.979 11.5084 364.15 11.7917 365.209 12.3507C366.26 12.9098 367.087 13.685 367.691 14.654C368.287 15.6305 368.593 16.7411 368.593 17.9785C368.593 19.2159 368.295 20.4011 367.691 21.4148C367.095 22.4285 366.267 23.2261 365.223 23.8075C364.18 24.3889 363.002 24.6796 361.682 24.6796H357.247V31.8131H352.55H352.542ZM357.239 20.9079H361.242C361.742 20.9079 362.182 20.7961 362.562 20.5725C362.942 20.3489 363.233 20.0358 363.434 19.6258C363.636 19.2159 363.74 18.7537 363.74 18.2319C363.74 17.7102 363.621 17.248 363.389 16.8529C363.158 16.4579 362.823 16.1523 362.391 15.9436C361.958 15.7274 361.429 15.623 360.81 15.623H357.239V20.9005V20.9079ZM363.792 31.8131L358.626 22.6447L363.673 21.9217L369.421 31.8131H363.792Z" fill="#8C97A4"/>
<path d="M379.634 32.1038C378.3 32.1038 377.092 31.9473 376.019 31.6268C374.945 31.3062 373.991 30.8441 373.163 30.2329C372.328 29.6216 371.583 28.906 370.927 28.0712L373.916 24.6796C374.885 25.9766 375.855 26.8487 376.831 27.2885C377.808 27.7358 378.822 27.9594 379.865 27.9594C380.387 27.9594 380.864 27.8923 381.289 27.7581C381.714 27.624 382.042 27.4227 382.273 27.1618C382.504 26.9009 382.624 26.5729 382.624 26.1928C382.624 25.9021 382.549 25.6412 382.407 25.4101C382.258 25.179 382.065 24.9778 381.811 24.7989C381.558 24.6274 381.259 24.4635 380.909 24.3218C380.559 24.1802 380.193 24.0535 379.806 23.9417C379.418 23.8299 379.023 23.7404 378.613 23.6659C377.495 23.4125 376.511 23.1068 375.683 22.7341C374.848 22.3689 374.162 21.9142 373.611 21.385C373.059 20.8557 372.649 20.2445 372.381 19.5587C372.112 18.873 371.978 18.1052 371.978 17.2554C371.978 16.3461 372.187 15.5112 372.604 14.7435C373.022 13.9757 373.581 13.3197 374.289 12.7681C374.997 12.2165 375.81 11.7917 376.742 11.4935C377.674 11.1953 378.635 11.0463 379.642 11.0463C380.976 11.0463 382.124 11.1879 383.078 11.4637C384.033 11.7469 384.86 12.1495 385.546 12.6712C386.232 13.193 386.821 13.8192 387.298 14.5571L384.249 17.4865C383.846 16.9871 383.406 16.5697 382.929 16.2417C382.452 15.9137 381.953 15.6603 381.423 15.4889C380.894 15.3174 380.342 15.228 379.783 15.228C379.224 15.228 378.702 15.3025 378.292 15.4441C377.875 15.5932 377.554 15.7945 377.323 16.0554C377.092 16.3162 376.973 16.6293 376.973 16.9946C376.973 17.3225 377.07 17.6058 377.264 17.8369C377.457 18.0679 377.718 18.2766 378.046 18.463C378.374 18.6493 378.755 18.8059 379.18 18.9251C379.604 19.0519 380.052 19.1488 380.514 19.2308C381.58 19.4469 382.542 19.7227 383.399 20.0731C384.256 20.4234 385.002 20.8483 385.635 21.3477C386.269 21.8471 386.746 22.4434 387.089 23.1292C387.425 23.815 387.596 24.6125 387.596 25.5219C387.596 26.9307 387.253 28.1308 386.567 29.1073C385.882 30.0838 384.942 30.8292 383.749 31.3435C382.564 31.8578 381.192 32.1113 379.642 32.1113L379.634 32.1038Z" fill="#8C97A4"/>
</svg>
