<svg width="296" height="44" viewBox="0 0 296 44" fill="none" xmlns="http://www.w3.org/2000/svg">
<path d="M275.659 40.0357C272.027 40.0357 268.751 39.2549 265.832 37.6934C262.912 36.0979 260.621 33.9083 258.957 31.1247C257.294 28.3071 256.462 25.1671 256.462 21.7045C256.462 18.2419 257.294 15.1188 258.957 12.3352C260.621 9.51764 262.912 7.32808 265.832 5.76653C268.751 4.17104 272.027 3.37329 275.659 3.37329C279.292 3.37329 282.567 4.17104 285.487 5.76653C288.406 7.32808 290.698 9.50067 292.361 12.2843C294.024 15.0679 294.856 18.208 294.856 21.7045C294.856 25.201 294.024 28.3411 292.361 31.1247C290.698 33.9083 288.406 36.0979 285.487 37.6934C282.567 39.2549 279.292 40.0357 275.659 40.0357ZM275.659 34.2308C278.036 34.2308 280.174 33.7046 282.075 32.6523C283.976 31.566 285.47 30.0724 286.556 28.1713C287.642 26.2364 288.186 24.0808 288.186 21.7045C288.186 19.3282 287.642 17.1896 286.556 15.2886C285.47 13.3536 283.976 11.86 282.075 10.8076C280.174 9.72132 278.036 9.17817 275.659 9.17817C273.283 9.17817 271.144 9.72132 269.243 10.8076C267.342 11.86 265.849 13.3536 264.762 15.2886C263.676 17.1896 263.133 19.3282 263.133 21.7045C263.133 24.0808 263.676 26.2364 264.762 28.1713C265.849 30.0724 267.342 31.566 269.243 32.6523C271.144 33.7046 273.283 34.2308 275.659 34.2308Z" fill="#8C97A4"/>
<path d="M250.349 3.88257V39.5266H244.901L225.246 15.3905V39.5266H218.677V3.88257H224.126L243.781 28.0187V3.88257H250.349Z" fill="#8C97A4"/>
<path d="M204.643 3.88257H211.262V39.5266H204.643V3.88257Z" fill="#8C97A4"/>
<path d="M184.559 40.0357C181.809 40.0357 179.144 39.6453 176.564 38.8645C174.018 38.0838 171.999 37.0484 170.505 35.7584L172.796 30.6155C174.256 31.7697 176.038 32.7202 178.143 33.467C180.282 34.1799 182.42 34.5363 184.559 34.5363C187.207 34.5363 189.176 34.112 190.466 33.2633C191.789 32.4147 192.451 31.2944 192.451 29.9026C192.451 28.8842 192.078 28.0525 191.331 27.4075C190.618 26.7286 189.702 26.2024 188.581 25.829C187.461 25.4556 185.934 25.0313 183.999 24.556C181.283 23.911 179.076 23.266 177.379 22.6211C175.716 21.9761 174.273 20.9746 173.051 19.6168C171.863 18.225 171.269 16.3579 171.269 14.0156C171.269 12.0467 171.795 10.2645 172.847 8.66897C173.933 7.03953 175.546 5.74956 177.685 4.79905C179.857 3.84854 182.505 3.37329 185.628 3.37329C187.801 3.37329 189.939 3.64487 192.044 4.18801C194.149 4.73116 195.965 5.51193 197.492 6.53033L195.405 11.6733C193.843 10.7567 192.214 10.0608 190.516 9.58554C188.819 9.11028 187.173 8.87265 185.577 8.87265C182.963 8.87265 181.011 9.31396 179.721 10.1966C178.465 11.0792 177.837 12.2503 177.837 13.7101C177.837 14.7285 178.194 15.5601 178.907 16.2051C179.654 16.8501 180.587 17.3593 181.707 17.7327C182.828 18.1061 184.355 18.5305 186.29 19.0057C188.938 19.6168 191.111 20.2618 192.808 20.9407C194.505 21.5857 195.948 22.5871 197.136 23.945C198.358 25.3028 198.969 27.136 198.969 29.4443C198.969 31.4132 198.426 33.1954 197.34 34.7909C196.287 36.3864 194.675 37.6594 192.502 38.6099C190.33 39.5604 187.682 40.0357 184.559 40.0357Z" fill="#8C97A4"/>
<path d="M156.26 31.2775H138.438L134.925 39.5266H128.102L144.141 3.88257H150.659L166.75 39.5266H159.825L156.26 31.2775ZM154.071 26.0837L147.349 10.5022L140.679 26.0837H154.071Z" fill="#8C97A4"/>
<path d="M111.162 40.0357C107.564 40.0357 104.305 39.2549 101.386 37.6934C98.5001 36.0979 96.2257 33.9083 94.5623 31.1247C92.9329 28.3411 92.1182 25.201 92.1182 21.7045C92.1182 18.208 92.9499 15.0679 94.6132 12.2843C96.2766 9.50067 98.5511 7.32808 101.437 5.76653C104.356 4.17104 107.615 3.37329 111.213 3.37329C114.133 3.37329 116.797 3.88249 119.208 4.90089C121.618 5.91929 123.655 7.39597 125.318 9.33093L121.041 13.3536C118.461 10.57 115.287 9.17817 111.519 9.17817C109.075 9.17817 106.885 9.72132 104.95 10.8076C103.015 11.86 101.504 13.3366 100.418 15.2377C99.3318 17.1387 98.7887 19.2943 98.7887 21.7045C98.7887 24.1147 99.3318 26.2703 100.418 28.1713C101.504 30.0724 103.015 31.566 104.95 32.6523C106.885 33.7046 109.075 34.2308 111.519 34.2308C115.287 34.2308 118.461 32.822 121.041 30.0045L125.318 34.0781C123.655 36.013 121.601 37.4897 119.157 38.5081C116.746 39.5265 114.082 40.0357 111.162 40.0357Z" fill="#8C97A4"/>
<path d="M19.9482 0.138428C23.4527 0.138428 24.9629 3.37378 24.9629 3.37378L28.6904 10.1521L43.9404 37.8796C43.9605 37.9196 46.6521 43.2703 50.6807 43.2703H37.7402C33.7131 43.2698 31.0225 37.9225 31.001 37.8796L23.4443 24.1423L16.2705 43.2703H0L14.9619 3.37378C14.9619 3.37378 16.1745 0.13867 19.9482 0.138428ZM53.8682 29.2527L45.8184 13.6003L50.9502 0.138428H64.9678L53.8682 29.2527Z" fill="#626A73"/>
<path d="M24.8008 0.138428C28.3053 0.138428 29.8146 3.37335 29.8146 3.37335L48.793 37.8792C48.793 37.8792 51.4889 43.2707 55.5325 43.2707H67.933L84.3772 0.138428H69.2809L59.0178 27.0616L45.9892 3.37335C45.9892 3.37335 44.4799 0.138428 40.9754 0.138428H24.8008Z" fill="#8C97A4"/>
</svg>
