<svg width="200" height="74" viewBox="0 0 200 74" fill="none" xmlns="http://www.w3.org/2000/svg">
<path d="M24.6789 17.4901C25.9251 15.0647 27.0674 12.8544 28.2008 10.6388C29.2707 8.54672 30.2984 6.4317 31.4071 4.36254C33.5946 0.278912 38.4402 -0.731853 41.9549 2.12581C44.3399 4.06619 45.1384 7.6418 43.774 10.54C42.3357 13.5953 40.8427 16.6258 39.3744 19.6669C39.2492 19.9262 39.1382 20.1926 38.9619 20.5877C39.3638 20.5877 39.6705 20.5842 39.9755 20.5877C50.9622 20.7623 58.8502 25.9167 63.7487 35.6433C66.1583 40.429 62.5871 45.9979 57.3502 45.811C54.5669 45.7122 52.5152 44.3239 51.2883 41.7997C49.6279 38.3828 47.0209 36.0632 43.3387 35.0965C36.5435 33.3131 29.6656 37.7319 28.3806 44.6432C27.1308 51.3622 31.2537 57.6685 37.8673 59.1555C43.1025 60.3339 48.6549 57.605 51.1279 52.5847C51.8859 51.0465 52.8095 49.697 54.3307 48.8292C56.8196 47.4091 60.0259 47.709 62.1464 49.5665C64.5225 51.648 65.3968 54.8496 64.1136 57.642C59.9237 66.7601 52.9276 72.2849 42.8751 73.3398C33.3989 74.3346 25.7753 70.6603 19.7681 63.3379C16.5829 59.4554 13.2462 55.6964 9.9729 51.8879C7.27424 48.7462 4.53151 45.6416 1.86986 42.4682C-1.74539 38.1588 0.126573 31.8896 5.38112 30.5948C7.43817 30.0885 9.33481 30.496 11.0746 31.6867C11.3319 31.8631 11.5822 32.0466 12.0176 32.3553C11.9189 31.1769 11.8519 30.1979 11.7514 29.2224C11.3055 24.9007 10.8366 20.5824 10.403 16.2606C10.0469 12.7133 11.3531 10.0232 14.0729 8.59964C18.2963 6.38937 23.4257 9.00889 24.1255 13.7346C24.3 14.9094 24.4709 16.086 24.6754 17.4901H24.6789Z" fill="#8C97A4"/>
<path d="M82.7602 27.0454C85.2368 27.0454 87.9959 27.4354 89.9376 29.1312C90.8239 29.9051 91.3734 30.8396 91.586 31.9347C91.6504 32.2675 91.6841 32.8771 91.6871 33.7636C91.6889 34.3913 91.6899 36.2321 91.6899 39.286C91.6899 42.3394 91.6889 44.1799 91.6871 44.8076C91.6841 45.694 91.6504 46.3037 91.586 46.6365C91.3734 47.7315 90.8239 48.666 89.9376 49.4399C87.9959 51.1357 85.2368 51.5257 82.7602 51.5257C80.2836 51.5257 77.5245 51.1357 75.5828 49.4399C74.6965 48.666 74.1471 47.7315 73.9344 46.6365C73.8701 46.3037 73.8363 45.694 73.8333 44.8076C73.8315 44.1799 73.8306 42.3391 73.8306 39.2851C73.8306 36.2318 73.8315 34.3913 73.8333 33.7636C73.8363 32.8771 73.8701 32.2675 73.9344 31.9347C74.1471 30.8396 74.6965 29.9051 75.5828 29.1312C77.5245 27.4354 80.2836 27.0454 82.7602 27.0454ZM79.6157 39.2814C79.6157 41.7616 79.6163 43.4143 79.6175 44.2395C79.6181 44.6384 79.6424 44.9238 79.6904 45.0957C80.0522 46.408 81.603 46.7603 82.7593 46.7603C83.9156 46.7603 85.4664 46.408 85.8282 45.0957C85.8762 44.9238 85.9005 44.6384 85.9011 44.2395C85.9023 43.4143 85.9029 41.7616 85.9029 39.2814C85.9029 36.8013 85.9023 35.1486 85.9011 34.3233C85.9005 33.9245 85.8762 33.6391 85.8282 33.4672C85.4664 32.1549 83.9156 31.8025 82.7593 31.8016C81.603 31.8025 80.0522 32.1549 79.6904 33.4663C79.6424 33.6382 79.6181 33.9236 79.6175 34.3224C79.6163 35.1477 79.6157 36.8007 79.6157 39.2814Z" fill="#8C97A4"/>
<path d="M104.771 41.5719C104.764 41.5719 104.756 41.5749 104.751 41.5802C104.746 41.5855 104.743 41.5928 104.743 41.6003C104.746 46.0975 104.744 49.0239 104.737 50.3795C104.735 50.7172 104.609 50.9583 104.359 51.1027C104.21 51.1883 103.971 51.2314 103.64 51.232C103.115 51.2333 101.924 51.2333 100.068 51.232C99.795 51.232 99.6046 51.2113 99.4971 51.1697C99.0688 51.0054 98.9622 50.5557 98.9622 50.1079C98.9488 37.4149 98.9476 30.2189 98.9586 28.52C98.9613 28.0676 99.026 27.6061 99.4697 27.4115C99.5991 27.3552 99.853 27.3271 100.231 27.3271C101.439 27.3277 102.647 27.3274 103.855 27.3262C104.253 27.3256 104.517 27.4819 104.65 27.7951C104.711 27.9401 104.742 28.2132 104.742 28.6146C104.742 30.9956 104.743 33.8838 104.743 37.2791C104.743 37.3127 104.759 37.3296 104.793 37.3296H104.965C104.994 37.3296 105.016 37.317 105.031 37.2919C106.929 34.0599 108.71 31.0314 110.375 28.2062C110.583 27.8538 110.867 27.6036 111.227 27.4556C111.435 27.3699 111.75 27.3271 112.174 27.3271C114.51 27.3265 115.866 27.3283 116.241 27.3326C116.63 27.3369 116.802 27.5467 116.757 27.9621C116.742 28.0961 116.68 28.2518 116.569 28.4292C112.933 34.2673 110.734 37.8061 109.971 39.0456C109.96 39.0627 109.961 39.0798 109.972 39.097C110.554 39.9669 113.054 43.6626 117.472 50.1841C117.633 50.4215 117.678 50.6536 117.606 50.8806C117.531 51.1204 117.343 51.2376 117.043 51.232C117.006 51.2308 115.275 51.2311 111.85 51.233C111.338 51.233 110.841 50.7145 110.568 50.3034C110.343 49.9651 108.496 47.0689 105.026 41.615C105.009 41.5863 104.983 41.5719 104.949 41.5719H104.771Z" fill="#8C97A4"/>
<path d="M141.285 41.4663C141.28 44.0798 141.278 46.9071 141.28 49.9482C141.28 50.3508 141.25 50.6209 141.189 50.7585C141.097 50.9672 140.938 51.1079 140.713 51.1807C140.6 51.2168 140.401 51.2345 140.115 51.2339C138.266 51.2296 137.12 51.2311 136.677 51.2385C136.328 51.2434 136.079 51.2002 135.93 51.1091C135.642 50.9317 135.498 50.6368 135.498 50.2245C135.494 42.2714 135.494 34.9699 135.499 28.32C135.499 27.8777 135.658 27.5822 135.975 27.4335C136.127 27.362 136.419 27.3262 136.851 27.3262C140.94 27.3268 145.028 27.3274 149.116 27.328C149.48 27.328 149.733 27.3635 149.873 27.4345C150.265 27.6336 150.325 27.9933 150.326 28.4384C150.33 29.9421 150.327 30.8561 150.318 31.1803C150.297 31.875 149.8 32.1026 149.186 32.1007C148.927 32.1001 146.306 32.0995 141.322 32.0989C141.311 32.0989 141.301 32.1034 141.293 32.1113C141.285 32.1192 141.28 32.1299 141.28 32.1411V36.6156C141.28 36.6227 141.283 36.6294 141.288 36.6344C141.293 36.6394 141.3 36.6422 141.307 36.6422C143.818 36.6392 146.329 36.6404 148.842 36.6459C149.236 36.6465 149.504 36.7887 149.647 37.0726C149.721 37.22 149.758 37.4883 149.757 37.8774C149.757 38.2995 149.755 39.1178 149.754 40.3321C149.754 40.5774 149.731 40.7582 149.685 40.8745C149.523 41.2929 149.111 41.4012 148.685 41.4021C147.57 41.4033 145.118 41.4094 141.331 41.4205C141.3 41.4205 141.285 41.4358 141.285 41.4663Z" fill="#8C97A4"/>
<path d="M165.561 46.7631C166.721 46.764 168.328 46.3896 168.645 45.0452C168.686 44.8715 168.707 44.5894 168.707 44.1991C168.709 36.4327 168.709 31.169 168.707 28.4081C168.707 28.2013 168.744 28.0007 168.818 27.8061C168.967 27.4143 169.355 27.3271 169.789 27.328C171.933 27.3299 173.183 27.3311 173.54 27.3317C174.176 27.3323 174.493 27.6675 174.493 28.3374C174.495 33.283 174.494 38.7577 174.49 44.7617C174.489 45.6536 174.459 46.2639 174.398 46.5924C173.903 49.2618 171.376 50.7191 168.939 51.2082C167.86 51.4242 166.734 51.5321 165.56 51.5321C164.387 51.5315 163.26 51.4229 162.181 51.2064C159.745 50.7163 157.218 49.2582 156.725 46.5887C156.665 46.2602 156.634 45.65 156.633 44.758C156.632 38.7541 156.633 33.2793 156.637 28.3338C156.637 27.6639 156.955 27.3286 157.59 27.328C157.947 27.328 159.198 27.3274 161.341 27.3262C161.775 27.3253 162.163 27.4124 162.313 27.8043C162.387 27.9994 162.424 28.2004 162.423 28.4072C162.42 31.1681 162.418 36.4318 162.417 44.1982C162.417 44.5885 162.437 44.8706 162.479 45.0443C162.795 46.3887 164.401 46.7631 165.561 46.7631Z" fill="#8C97A4"/>
<path d="M188.544 40.6148C188.149 39.8183 187.81 39.0787 187.527 38.396C187.502 38.336 187.489 38.3384 187.489 38.4033C187.492 40.5255 187.493 44.4583 187.49 50.2016C187.49 50.6574 187.351 50.9605 187.071 51.111C186.913 51.196 186.636 51.2379 186.24 51.2367C184.779 51.2306 183.815 51.2303 183.351 51.2358C182.943 51.2407 182.666 51.204 182.521 51.1257C182.213 50.9599 182.06 50.6825 182.06 50.2934C182.057 44.2858 182.057 36.9981 182.058 28.4302C182.058 27.8429 182.278 27.3299 182.95 27.329C184.228 27.3266 185.481 27.3275 186.707 27.3318C186.894 27.3324 187.064 27.4036 187.216 27.5456C187.294 27.619 187.398 27.7637 187.527 27.9796C189.387 31.1052 191.248 34.2304 193.11 37.3553C193.225 37.5486 193.333 37.7459 193.433 37.9472C193.828 38.7437 194.168 39.4834 194.451 40.1661C194.476 40.2261 194.488 40.2236 194.488 40.1588C194.485 38.0365 194.485 34.1038 194.487 28.3605C194.487 27.9047 194.627 27.6016 194.906 27.4511C195.065 27.366 195.342 27.3241 195.737 27.3253C197.199 27.3315 198.162 27.3318 198.627 27.3263C199.034 27.3214 199.311 27.3581 199.457 27.4364C199.764 27.6022 199.918 27.8796 199.918 28.2687C199.92 34.2763 199.921 41.564 199.92 50.1319C199.92 50.7192 199.699 51.2321 199.028 51.2331C197.749 51.2355 196.497 51.2346 195.271 51.2303C195.083 51.2297 194.913 51.1584 194.762 51.0165C194.683 50.9431 194.58 50.7984 194.451 50.5824C192.59 47.4569 190.729 44.3317 188.868 41.2067C188.753 41.0134 188.645 40.8161 188.544 40.6148Z" fill="#8C97A4"/>
<path d="M127.596 46.2311L123.585 46.2381C123.115 46.239 122.735 46.6234 122.736 47.0967L122.742 50.3838C122.742 50.8571 123.124 51.2402 123.594 51.2393L127.605 51.2323C128.075 51.2315 128.456 50.8471 128.455 50.3737L128.449 47.0867C128.448 46.6133 128.066 46.2303 127.596 46.2311Z" fill="#8C97A4"/>
<path d="M134.734 61.9879C135.169 61.8209 135.516 61.7328 135.515 61.1427C135.515 60.8411 135.516 60.4465 135.519 59.959C135.522 59.6121 135.618 59.3496 135.996 59.3432C136.271 59.3395 136.886 59.3392 137.84 59.3423C138.06 59.3429 138.208 59.3704 138.285 59.4249C138.42 59.5197 138.488 59.6772 138.489 59.8975C138.49 59.9886 138.491 60.3425 138.492 60.9592C138.493 61.4425 138.466 61.794 138.412 62.0136C138.239 62.7177 137.816 63.2628 137.142 63.6489C136.51 64.0098 135.908 64.2255 135.333 64.2958C135.07 64.3276 134.894 64.2089 134.803 63.9398C134.53 63.1218 134.38 62.6722 134.352 62.5908C134.244 62.2705 134.441 62.0999 134.734 61.9879Z" fill="#8C97A4"/>
<path d="M78.4885 60.7224C79.1774 60.7224 79.8398 60.7955 80.4758 60.9417C81.6376 61.2097 82.7702 61.9493 83.0645 63.1524C83.1149 63.3567 83.1416 63.6895 83.1447 64.1508C83.1459 64.3325 83.1465 65.3193 83.1465 67.1111C83.1465 68.903 83.1459 69.8898 83.1447 70.0715C83.1416 70.5328 83.1149 70.8656 83.0645 71.0699C82.7702 72.273 81.6376 73.0126 80.4758 73.2805C79.8398 73.4268 79.177 73.4999 78.4876 73.4999C77.7987 73.4999 77.1363 73.4268 76.5003 73.2805C75.3385 73.0126 74.2059 72.273 73.9116 71.0699C73.8612 70.8656 73.8345 70.5328 73.8314 70.0715C73.8302 69.8898 73.8296 68.903 73.8296 67.1111C73.8296 65.3193 73.8302 64.3325 73.8314 64.1508C73.8345 63.6895 73.8612 63.3567 73.9116 63.1524C74.2059 61.9493 75.3385 61.2097 76.5003 60.9417C77.1363 60.7955 77.799 60.7224 78.4885 60.7224ZM76.8429 67.1075C76.8429 68.8945 76.8453 69.8283 76.8502 69.9091C76.9039 70.7744 77.7796 71.0139 78.4885 71.0139C79.1983 71.0139 80.074 70.7744 80.1268 69.9091C80.1317 69.8283 80.1341 68.8945 80.1341 67.1075C80.1341 65.3205 80.1317 64.3866 80.1268 64.3059C80.073 63.4405 79.1974 63.201 78.4885 63.201C77.7787 63.201 76.903 63.4405 76.8502 64.3059C76.8453 64.3866 76.8429 65.3205 76.8429 67.1075Z" fill="#8C97A4"/>
<path d="M146.694 70.724C147.007 70.4157 147.014 70.0458 146.995 69.5888C146.97 68.9841 146.301 68.7061 145.793 68.5078C144.971 68.1848 144.228 67.9022 143.566 67.6599C142.852 67.3987 142.39 67.184 142.179 67.0157C141.698 66.6315 141.37 66.1403 141.196 65.542C141.132 65.3242 141.103 65.051 141.107 64.7225C141.108 64.6344 141.11 64.3582 141.111 63.8939C141.122 61.1528 143.673 60.661 145.836 60.7261C147.516 60.7775 149.485 61.3584 149.781 63.2855C149.819 63.5369 149.838 63.9336 149.837 64.4757C149.836 64.8959 149.634 65.1043 149.232 65.1006C149.064 65.0988 148.457 65.0997 147.41 65.1033C147.108 65.1039 146.938 64.9712 146.898 64.7051C146.861 64.4692 146.909 64.0902 146.816 63.8104C146.543 62.9927 145.205 62.99 144.604 63.2735C144.067 63.5259 143.997 64.0251 144.044 64.5683C144.08 64.9941 144.413 65.1639 144.819 65.3034C146.444 65.8607 147.421 66.1935 147.749 66.3018C148.715 66.6202 149.615 67.3488 149.871 68.3665C149.927 68.5929 149.956 68.9024 149.956 69.2952C149.958 69.7975 149.958 70.1468 149.958 70.3432C149.959 73.4586 146.087 73.7293 143.917 73.3815C142.303 73.1227 140.822 72.1941 140.834 70.3689C140.838 69.6855 140.842 69.2484 140.846 69.0575C140.856 68.6501 141.106 68.5803 141.47 68.5785C142.194 68.5742 142.777 68.5724 143.219 68.573C143.691 68.5739 143.764 68.7987 143.776 69.2456C143.786 69.6402 143.791 69.8837 143.791 69.9761C143.791 70.5353 144.074 70.8824 144.641 71.0176C145.239 71.1599 146.23 71.181 146.694 70.724Z" fill="#8C97A4"/>
<path d="M89.6924 65.8898C89.693 66.1773 89.7659 66.1975 89.911 65.9503C91.0367 64.0349 91.9488 62.4868 92.6473 61.3061C92.7524 61.1287 92.8976 61.0042 93.0829 60.9326C93.1965 60.8892 93.3778 60.8674 93.6269 60.8674C94.922 60.868 95.619 60.8726 95.718 60.8812C96.0242 60.9087 96.0051 61.1923 95.8802 61.3942C95.4787 62.0451 94.3303 63.8963 92.435 66.9478C92.4261 66.9623 92.4215 66.979 92.4218 66.9961C92.4221 67.0132 92.4274 67.0299 92.4369 67.0442C94.747 70.464 96.0561 72.4091 96.3641 72.8796C96.5153 73.1099 96.3632 73.3421 96.0853 73.3457C95.086 73.358 94.2213 73.3595 93.4911 73.3503C93.1084 73.3457 92.8533 73.0631 92.6583 72.7557C91.792 71.3871 90.8781 69.951 89.9165 68.4473C89.7665 68.2124 89.6915 68.2344 89.6915 68.5134C89.6933 69.7626 89.6921 71.2058 89.6878 72.8429C89.6869 73.3054 89.3698 73.3512 88.9753 73.3531C88.3945 73.3561 87.819 73.3555 87.2486 73.3512C86.8725 73.3482 86.6839 73.1714 86.6827 72.8208C86.6742 70.6625 86.6748 66.8243 86.6845 61.3061C86.6851 61.136 86.758 61.0115 86.9032 60.9326C86.981 60.8904 87.1091 60.869 87.2877 60.8684C88.4237 60.8653 89.0342 60.8638 89.1192 60.8638C89.5068 60.865 89.6981 61.0571 89.6933 61.4401C89.689 61.7992 89.6887 63.2824 89.6924 65.8898Z" fill="#8C97A4"/>
<path d="M106.872 70.8626C108.748 70.8742 109.921 70.8767 110.393 70.87C110.807 70.8644 110.931 71.0728 110.934 71.4719C110.939 72.3498 110.939 72.8291 110.934 72.9099C110.915 73.2005 110.742 73.3458 110.415 73.3458C108.12 73.3458 106.101 73.3498 104.355 73.3577C103.871 73.3596 103.809 73.1145 103.809 72.6768C103.808 68.3369 103.808 64.5464 103.809 61.3052C103.81 61.1272 103.884 61.0018 104.031 60.929C104.112 60.8892 104.242 60.869 104.421 60.8684C105.011 60.8672 105.628 60.8666 106.272 60.8666C106.641 60.8666 106.826 61.0581 106.826 61.441C106.819 65.9259 106.819 69.0505 106.825 70.8149C106.825 70.8461 106.841 70.862 106.872 70.8626Z" fill="#8C97A4"/>
<path d="M116.663 63.4094V65.6833C116.663 65.7139 116.678 65.7295 116.708 65.7301C117.591 65.7332 118.721 65.7326 120.096 65.7283C120.333 65.7277 120.498 65.8038 120.593 65.9568C120.644 66.04 120.67 66.1987 120.672 66.433C120.677 67.0203 120.68 67.3828 120.682 67.5205C120.686 67.9255 120.483 68.1273 120.072 68.1261C119.493 68.1243 118.366 68.1234 116.689 68.1234C116.682 68.1234 116.675 68.1261 116.67 68.1309C116.665 68.1357 116.663 68.1422 116.663 68.1491V70.8213C116.663 70.8525 116.678 70.8681 116.709 70.8681C117.061 70.8699 118.395 70.8714 120.71 70.8727C120.874 70.8727 120.994 70.94 121.071 71.0745C121.116 71.1541 121.14 71.278 121.142 71.4462C121.148 71.7729 121.148 72.1898 121.143 72.697C121.138 73.1255 121.044 73.3467 120.574 73.3467C118.51 73.3479 116.445 73.3482 114.38 73.3476C113.894 73.3476 113.65 73.2962 113.65 72.7511C113.648 67.5871 113.648 63.7865 113.65 61.3492C113.65 61.0189 113.834 60.8555 114.201 60.8592C114.789 60.8653 116.884 60.8699 120.487 60.873C120.857 60.8739 120.958 61.1271 120.962 61.474C120.965 61.8637 120.965 62.2537 120.962 62.644C120.96 62.8753 120.934 63.034 120.884 63.1203C120.794 63.2763 120.63 63.3534 120.392 63.3516C120.076 63.3491 118.85 63.3506 116.715 63.3561C116.68 63.3561 116.663 63.3739 116.663 63.4094Z" fill="#8C97A4"/>
<path d="M127.855 60.8674C130.203 60.8674 131.504 60.8684 131.758 60.8702C132.082 60.8726 132.244 61.0479 132.244 61.396C132.244 62.1766 132.244 62.6431 132.244 62.7954C132.242 63.1668 132.058 63.3521 131.692 63.3515C130.932 63.3509 130.172 63.3518 129.412 63.3543C129.377 63.3543 129.36 63.3717 129.36 63.4066C129.362 66.9983 129.362 70.1599 129.359 72.8915C129.359 73.053 129.287 73.1806 129.142 73.2742C129.071 73.32 128.942 73.3442 128.756 73.3466C128.736 73.3473 128.435 73.3476 127.855 73.3476C127.274 73.3476 126.973 73.3473 126.953 73.3466C126.767 73.3442 126.638 73.32 126.567 73.2742C126.422 73.1806 126.35 73.053 126.35 72.8915C126.348 70.1599 126.348 66.9983 126.35 63.4066C126.35 63.3717 126.333 63.3543 126.298 63.3543C125.538 63.3518 124.778 63.3509 124.018 63.3515C123.652 63.3521 123.468 63.1668 123.466 62.7954C123.466 62.6431 123.466 62.1766 123.466 61.396C123.466 61.0479 123.628 60.8726 123.952 60.8702C124.206 60.8684 125.507 60.8674 127.855 60.8674Z" fill="#8C97A4"/>
<path d="M161.054 69.1548C161.034 71.118 161.029 72.3167 161.039 72.7511C161.048 73.1561 160.856 73.3583 160.464 73.3577C159.846 73.3564 159.231 73.3549 158.617 73.3531C158.307 73.3519 158.119 73.2387 158.052 73.0135C158.034 72.9554 158.025 72.7646 158.025 72.4409C158.024 68.7287 158.024 65.0168 158.025 61.3052C158.025 61.1277 158.099 61.0023 158.248 60.9289C158.327 60.8892 158.456 60.8693 158.637 60.8693C160.614 60.8668 161.883 60.8656 162.444 60.8656C163.947 60.8656 165.736 61.1381 166.673 62.4752C166.956 62.8789 167.102 63.3411 167.112 63.8618C167.124 64.5561 167.126 65.2939 167.115 66.0751C167.089 68.1243 165.031 68.9612 163.286 69.0759C162.747 69.1114 162.019 69.1215 161.102 69.1062C161.07 69.1062 161.054 69.1224 161.054 69.1548ZM161.035 63.3846L161.04 66.5945C161.04 66.5979 161.041 66.6012 161.042 66.6044C161.044 66.6075 161.046 66.6103 161.048 66.6127C161.05 66.6151 161.053 66.617 161.056 66.6183C161.059 66.6196 161.063 66.6202 161.066 66.6202L162.766 66.6175C162.948 66.6172 163.128 66.5868 163.296 66.5282C163.464 66.4696 163.617 66.3838 163.745 66.2757C163.874 66.1676 163.976 66.0394 164.045 65.8984C164.114 65.7574 164.15 65.6064 164.149 65.4539L164.148 64.5142C164.147 64.2064 164.001 63.9115 163.74 63.6943C163.48 63.4772 163.128 63.3555 162.761 63.3561L161.06 63.3589C161.054 63.3589 161.047 63.3616 161.042 63.3664C161.038 63.3712 161.035 63.3778 161.035 63.3846Z" fill="#8C97A4"/>
<path d="M173.299 70.8635C175.297 70.8739 176.462 70.876 176.795 70.8699C177.264 70.8607 177.361 71.0947 177.364 71.5205C177.367 71.7983 177.366 72.1249 177.362 72.5006C177.359 72.8722 177.406 73.1631 177.089 73.298C177.013 73.3298 176.891 73.346 176.724 73.3466C174.742 73.3485 172.761 73.3512 170.781 73.3549C170.275 73.3558 170.236 73.0961 170.236 72.6483C170.234 69.0193 170.233 65.3903 170.235 61.7612C170.235 61.2712 170.191 60.8684 170.779 60.8674C171.633 60.865 172.309 60.8662 172.806 60.8711C173.204 60.8748 173.256 61.2547 173.254 61.6245C173.244 63.7143 173.244 66.779 173.254 70.8185C173.254 70.8485 173.269 70.8635 173.299 70.8635Z" fill="#8C97A4"/>
<path d="M182.579 71.0764C182.323 71.958 182.164 72.5312 182.103 72.7961C182.019 73.1589 181.801 73.3415 181.448 73.344C180.626 73.3501 180.065 73.3532 179.764 73.3532C179.569 73.3532 179.432 73.3324 179.351 73.2908C179.19 73.2088 179.142 73.0522 179.208 72.8209C181.04 66.3851 182.128 62.5771 182.472 61.397C182.537 61.1743 182.659 61.0205 182.839 60.9354C182.939 60.8883 183.119 60.8654 183.378 60.8666C184.294 60.869 184.859 60.8687 185.071 60.8657C185.286 60.862 185.443 60.8895 185.541 60.9483C185.714 61.0498 185.823 61.182 185.869 61.3447C186.992 65.2698 188.088 69.1136 189.158 72.876C189.173 72.9308 189.176 72.9884 189.166 73.0444C189.155 73.1004 189.133 73.1532 189.099 73.1987C189.065 73.2442 189.021 73.2812 188.97 73.3067C188.92 73.3322 188.864 73.3456 188.808 73.3458C188.516 73.3464 187.823 73.347 186.729 73.3476C186.382 73.3476 186.165 73.1788 186.077 72.8411C186.018 72.6147 185.862 72.0308 185.61 71.0893C185.601 71.0544 185.578 71.037 185.542 71.037H182.632C182.605 71.037 182.587 71.0501 182.579 71.0764ZM184.086 68.6447C184.359 68.6471 184.63 68.6483 184.899 68.6483C184.924 68.6483 184.933 68.6361 184.927 68.6116C184.548 67.1183 184.289 65.6002 184.152 64.0573C184.147 64.0004 184.137 63.972 184.123 63.972C184.109 63.972 184.099 64.0001 184.093 64.0564C183.932 65.5974 183.649 67.1116 183.246 68.5988C183.24 68.6226 183.249 68.6349 183.274 68.6355C183.543 68.6398 183.814 68.6428 184.086 68.6447Z" fill="#8C97A4"/>
<path d="M194.97 66.0963C194.971 66.1001 194.973 66.1035 194.976 66.1059C194.979 66.1084 194.983 66.1097 194.987 66.1097C194.991 66.1097 194.995 66.1084 194.998 66.1059C195.001 66.1035 195.003 66.1001 195.004 66.0963C195.148 65.6142 195.257 65.2838 195.331 65.1052C195.831 63.9012 196.337 62.6908 196.849 61.474C196.99 61.1391 197.136 60.8684 197.504 60.8684C198.787 60.8659 199.476 60.8687 199.571 60.8766C199.766 60.8938 199.876 60.9815 199.901 61.14C199.916 61.2385 199.893 61.3541 199.83 61.4869C199.587 62.0063 198.487 64.3937 196.532 68.6492C196.509 68.6987 196.498 68.7526 196.498 68.807C196.501 70.0085 196.5 71.2171 196.496 72.4327C196.495 72.7759 196.493 72.957 196.489 72.9759C196.413 73.3347 196.126 73.3503 195.796 73.3494C195.171 73.3482 194.549 73.3467 193.928 73.3448C193.776 73.3442 193.657 73.2772 193.57 73.1439C193.509 73.0521 193.481 72.8817 193.484 72.6327C193.487 72.4333 193.487 71.3297 193.485 69.3218C193.485 69.1683 193.454 69.0211 193.392 68.8804C191.229 63.9606 190.131 61.4645 190.1 61.3923C189.972 61.1024 190.083 60.8702 190.417 60.8693C191.086 60.8668 191.809 60.8665 192.587 60.8684C192.802 60.8684 192.958 60.899 193.054 60.9601C193.197 61.0525 193.3 61.188 193.364 61.3667C194.164 63.6137 194.608 64.8761 194.697 65.1538C194.782 65.4181 194.873 65.7323 194.97 66.0963Z" fill="#8C97A4"/>
</svg>
