<svg width="271" height="54" viewBox="0 0 271 54" fill="none" xmlns="http://www.w3.org/2000/svg">
<path d="M39.6526 42.8289L33.0146 36.2039" stroke="#8C97A4" stroke-width="1.29268"/>
<path d="M18.8408 12.3797C16.4881 9.53152 13.3167 6.9397 9.32666 4.60425" stroke="#8C97A4" stroke-width="1.29268"/>
<path d="M39.6531 42.8289L33.0152 36.2039L33.0992 28.1376C33.1009 28.008 33.1281 27.8801 33.1791 27.7611C33.2301 27.6421 33.304 27.5345 33.3965 27.4444C33.489 27.3543 33.5983 27.2835 33.7182 27.236C33.838 27.1886 33.9659 27.1655 34.0946 27.1681C37.1152 27.2241 39.3278 27.2241 40.7325 27.1681C45.8903 26.9548 48.9087 21.0149 46.4139 16.5745C44.9187 13.9202 42.8568 12.6039 40.2284 12.6254C33.4461 12.6857 26.317 12.6039 18.8409 12.3798C16.4883 9.53158 13.3169 6.93975 9.32679 4.6043C9.32248 4.14756 9.42374 3.83731 9.63057 3.67357C9.68926 3.62739 9.75987 3.60234 9.83094 3.60248C27.5709 3.58955 37.1173 3.56585 38.4703 3.53138C49.652 3.24699 58.229 12.0243 56.1995 23.2706C55.0361 29.7147 49.219 34.7432 43.0917 36.023C42.8581 36.071 42.6438 36.1875 42.4759 36.3577C42.308 36.5279 42.1939 36.7443 42.148 36.9795C41.7516 39.0134 40.92 40.9632 39.6531 42.8289Z" fill="#8C97A4"/>
<path d="M18.8405 12.3797C18.5088 21.0105 18.4075 28.2 18.5368 33.9482C18.5928 36.2491 19.5364 38.186 21.3677 39.7588C21.5309 39.8962 21.7088 40.0133 21.8977 40.1078C26.7668 42.551 30.4725 41.2497 33.0148 36.2039L39.6527 42.8289C36.9381 46.694 33.0213 49.4539 28.2901 50.055C22.1541 50.8306 17.0157 48.7106 12.8748 43.695C10.5738 40.9071 9.41042 37.6043 9.38457 33.7866C9.32855 24.0268 9.30916 14.2994 9.3264 4.60425C13.3165 6.9397 16.4879 9.53152 18.8405 12.3797Z" fill="#8C97A4"/>
<path d="M75.3179 10.0917C79.6484 10.0529 85.0841 9.74916 88.3287 10.2598C91.2437 10.7251 95.1864 12.5801 96.5049 15.4434C98.263 19.2633 98.0303 24.3177 94.8891 27.4589C91.7996 30.5527 87.8741 31.7226 83.1127 30.9685C83.0095 30.9517 82.9038 30.9575 82.803 30.9854C82.7022 31.0134 82.6086 31.0629 82.5288 31.1304C82.4489 31.198 82.3847 31.2821 82.3404 31.3769C82.2962 31.4717 82.273 31.5749 82.2725 31.6795V41.31C82.2725 41.4437 82.2194 41.572 82.1248 41.6665C82.0303 41.761 81.9021 41.8142 81.7684 41.8142H75.3437C75.2357 41.8142 75.1321 41.7713 75.0558 41.6949C74.9794 41.6185 74.9365 41.515 74.9365 41.407V10.4731C74.9365 10.3719 74.9767 10.2749 75.0482 10.2034C75.1197 10.1319 75.2167 10.0917 75.3179 10.0917ZM82.2143 17.4665L82.2531 23.6714C82.254 23.7588 82.272 23.8452 82.3062 23.9256C82.3405 24.0061 82.3902 24.079 82.4527 24.1402C82.5151 24.2014 82.5889 24.2498 82.67 24.2824C82.7511 24.3151 82.8379 24.3315 82.9253 24.3306L86.1118 24.3112C87.1365 24.3039 88.1167 23.9165 88.8366 23.2341C89.5566 22.5518 89.9574 21.6303 89.951 20.6723V20.3621C89.9479 19.8875 89.8447 19.4182 89.6475 18.981C89.4502 18.5438 89.1627 18.1473 88.8014 17.8142C88.44 17.4811 88.0119 17.2178 87.5416 17.0395C87.0712 16.8612 86.5678 16.7713 86.0601 16.7749L82.8736 16.7943C82.7862 16.7951 82.6998 16.8132 82.6193 16.8474C82.5389 16.8817 82.466 16.9314 82.4047 16.9938C82.3435 17.0563 82.2952 17.1301 82.2625 17.2112C82.2299 17.2923 82.2135 17.3791 82.2143 17.4665Z" fill="#8C97A4"/>
<path d="M141.755 21.3446C141.8 21.3449 141.843 21.3573 141.881 21.3804C141.919 21.4035 141.95 21.4363 141.97 21.4752C141.99 21.5142 141.999 21.5576 141.995 21.6008C141.991 21.6439 141.975 21.685 141.949 21.7194L135.925 29.8569C135.765 30.0734 135.676 30.3353 135.673 30.6055C135.669 30.8758 135.751 31.1407 135.906 31.3629L142.718 41.1162C142.766 41.1842 142.794 41.2641 142.799 41.3469C142.804 41.4297 142.786 41.5123 142.747 41.5857C142.709 41.6591 142.65 41.7205 142.579 41.763C142.508 41.8056 142.426 41.8278 142.343 41.8271H135.02C134.797 41.8274 134.577 41.7718 134.381 41.6656C134.186 41.5594 134.021 41.406 133.902 41.2196L128.402 32.6749C128.367 32.6199 128.316 32.5776 128.255 32.5546C128.195 32.5316 128.128 32.529 128.066 32.5473C128.004 32.5656 127.949 32.6038 127.911 32.656C127.872 32.7082 127.852 32.7716 127.852 32.8365V41.2325C127.852 41.3851 127.792 41.5314 127.684 41.6393C127.576 41.7471 127.43 41.8077 127.277 41.8077H121.486C121.424 41.8077 121.363 41.7955 121.305 41.7718C121.248 41.7481 121.196 41.7134 121.152 41.6695C121.109 41.6257 121.074 41.5737 121.05 41.5165C121.026 41.4592 121.014 41.3979 121.014 41.3359V10.7575C121.014 10.665 121.033 10.5734 121.068 10.4879C121.104 10.4024 121.156 10.3247 121.222 10.2593C121.288 10.1939 121.367 10.142 121.453 10.1066C121.539 10.0712 121.632 10.053 121.725 10.053H127.116C127.313 10.053 127.502 10.1313 127.641 10.2707C127.781 10.4101 127.859 10.5991 127.859 10.7963V29.4755C127.858 29.5067 127.866 29.5375 127.882 29.5641C127.898 29.5908 127.922 29.6123 127.95 29.6259C127.978 29.6396 128.009 29.6449 128.04 29.6411C128.071 29.6374 128.1 29.6248 128.124 29.6048C129.501 28.5125 131.052 25.4359 132.971 21.9974C133.083 21.7994 133.246 21.6347 133.442 21.52C133.639 21.4053 133.862 21.3448 134.09 21.3446H141.755Z" fill="#8C97A4"/>
<path d="M193.805 10.0659H199.474C199.655 10.0659 199.83 10.1387 199.958 10.2684C200.087 10.3981 200.159 10.574 200.159 10.7574V41.4199C200.159 41.5262 200.117 41.6281 200.041 41.7032C199.966 41.7784 199.864 41.8206 199.758 41.8206H194.303C194.181 41.8207 194.061 41.7914 193.953 41.7351C193.845 41.6788 193.752 41.5973 193.682 41.4974L193.114 40.6766C193.042 40.5723 192.932 40.5003 192.807 40.4762C192.683 40.452 192.554 40.4775 192.448 40.5473L190.729 41.6526C190.456 41.8273 190.15 41.9419 189.83 41.9887C186.344 42.523 183.447 41.5922 181.137 39.1965C178.022 35.9648 177.647 29.9085 180.064 26.1598C182.886 21.7776 187.064 20.1682 192.597 21.3316C192.676 21.3489 192.758 21.3482 192.837 21.3293C192.916 21.3104 192.989 21.2739 193.053 21.2224C193.116 21.171 193.167 21.1059 193.202 21.032C193.237 20.958 193.256 20.8771 193.256 20.7951V10.6152C193.256 10.5431 193.27 10.4717 193.298 10.405C193.325 10.3383 193.366 10.2778 193.417 10.2268C193.468 10.1758 193.528 10.1353 193.595 10.1077C193.662 10.0801 193.733 10.0659 193.805 10.0659ZM193.165 33.9417L193.249 29.0812C193.254 28.8461 193.212 28.6124 193.126 28.3936C193.04 28.1747 192.911 27.975 192.748 27.8057C192.585 27.6364 192.39 27.501 192.174 27.4071C191.958 27.3132 191.726 27.2627 191.491 27.2585L190.147 27.2392C189.008 27.2196 187.908 27.6416 187.088 28.4124C186.269 29.1833 185.798 30.2398 185.778 31.3499V31.4145C185.759 32.525 186.194 33.5976 186.987 34.3964C187.78 35.1952 188.865 35.6547 190.005 35.6739L191.349 35.6998C191.823 35.7067 192.28 35.5255 192.621 35.196C192.961 34.8665 193.157 34.4154 193.165 33.9417Z" fill="#8C97A4"/>
<path d="M119.405 31.5884C119.41 34.4545 118.203 37.2054 116.051 39.2358C113.898 41.2663 110.975 42.4099 107.926 42.4153C106.416 42.4179 104.92 42.141 103.524 41.6003C102.128 41.0597 100.859 40.2658 99.7894 39.2642C98.7199 38.2625 97.8708 37.0727 97.2907 35.7625C96.7105 34.4524 96.4107 33.0476 96.4082 31.6285C96.4032 28.7623 97.6099 26.0114 99.7627 23.981C101.916 21.9506 104.838 20.8069 107.888 20.8016C109.398 20.799 110.893 21.0759 112.289 21.6165C113.685 22.1572 114.954 22.951 116.024 23.9527C117.093 24.9543 117.942 26.1442 118.523 27.4543C119.103 28.7644 119.403 30.1692 119.405 31.5884ZM107.646 27.2021C107.104 27.2352 106.575 27.3811 106.088 27.6315C105.602 27.8819 105.167 28.2319 104.809 28.6615C104.451 29.0911 104.177 29.5918 104.002 30.1352C103.827 30.6785 103.756 31.2538 103.791 31.8282C103.826 32.4027 103.967 32.9649 104.207 33.4829C104.446 34.0009 104.78 34.4646 105.187 34.8473C105.595 35.2301 106.069 35.5245 106.583 35.7137C107.096 35.9029 107.639 35.9833 108.181 35.9502C108.722 35.917 109.251 35.7711 109.738 35.5207C110.225 35.2703 110.659 34.9203 111.017 34.4907C111.375 34.0612 111.649 33.5604 111.824 33.017C111.999 32.4737 112.071 31.8984 112.036 31.324C112 30.7496 111.859 30.1873 111.619 29.6693C111.38 29.1513 111.047 28.6877 110.639 28.3049C110.231 27.9221 109.757 27.6277 109.244 27.4385C108.73 27.2493 108.187 27.1689 107.646 27.2021Z" fill="#8C97A4"/>
<path d="M149.098 34.2519C149.292 34.9284 149.721 35.4498 150.384 35.8161C152.5 36.9838 155.103 36.9601 158.192 35.745C158.343 35.686 158.503 35.6576 158.665 35.6615C158.826 35.6655 158.986 35.7016 159.133 35.7678C159.281 35.834 159.413 35.929 159.524 36.0471C159.634 36.1653 159.72 36.3043 159.776 36.456L160.726 39.0413C160.837 39.3476 160.828 39.6843 160.703 39.9848C160.577 40.2852 160.343 40.5275 160.047 40.6636C157.931 41.6375 155.818 42.1761 153.706 42.2795C137.606 43.0486 138.201 19.7545 153.997 21.0019C160.39 21.5061 163.524 26.6445 162.762 32.7783C162.73 33.0423 162.602 33.2856 162.402 33.4619C162.202 33.6382 161.943 33.7354 161.676 33.7349H149.492C149.429 33.7345 149.367 33.7488 149.31 33.7766C149.254 33.8045 149.205 33.845 149.166 33.8952C149.128 33.9453 149.102 34.0036 149.09 34.0655C149.078 34.1274 149.081 34.1912 149.098 34.2519ZM148.982 29.5078L156.04 29.3656C156.048 29.3648 156.056 29.3623 156.064 29.3583C156.072 29.3543 156.078 29.3488 156.084 29.3422C156.089 29.3356 156.093 29.3279 156.096 29.3198C156.098 29.3116 156.099 29.303 156.098 29.2945V29.2622C156.09 28.8997 156.003 28.5424 155.841 28.2107C155.678 27.8791 155.445 27.5796 155.152 27.3293C154.86 27.079 154.515 26.8828 154.137 26.752C153.759 26.6212 153.356 26.5583 152.95 26.5669L151.942 26.5928C151.536 26.6013 151.136 26.681 150.764 26.8276C150.392 26.9741 150.056 27.1845 149.774 27.4468C149.493 27.7091 149.272 28.0181 149.123 28.3562C148.975 28.6943 148.903 29.0549 148.911 29.4173L148.917 29.4496C148.919 29.4656 148.926 29.4804 148.938 29.4912C148.95 29.502 148.966 29.5079 148.982 29.5078Z" fill="#8C97A4"/>
<path d="M178.655 21.3251C178.759 21.3529 178.855 21.4017 178.939 21.4685C179.022 21.5353 179.091 21.6187 179.141 21.7134C179.19 21.8081 179.22 21.912 179.228 22.0187C179.235 22.1254 179.221 22.2326 179.185 22.3334L177.479 27.2327C177.434 27.3619 177.362 27.4803 177.269 27.5804C177.175 27.6804 177.062 27.76 176.936 27.8141C176.81 27.8682 176.675 27.8956 176.538 27.8945C176.401 27.8934 176.266 27.864 176.141 27.8079C174.809 27.2133 173.258 27.0065 172.308 28.2927C172.037 28.6589 171.905 29.441 171.914 30.6389C171.953 37.2402 171.981 40.7585 171.998 41.1937C172.001 41.273 171.989 41.3523 171.961 41.4267C171.933 41.5011 171.89 41.569 171.835 41.6264C171.78 41.6838 171.714 41.7294 171.641 41.7606C171.568 41.7917 171.489 41.8078 171.41 41.8077H165.664C165.539 41.8077 165.419 41.758 165.33 41.6695C165.242 41.581 165.192 41.461 165.192 41.3359V21.8228C165.192 21.6994 165.242 21.581 165.33 21.4937C165.419 21.4065 165.539 21.3574 165.664 21.3574H170.692C170.844 21.3574 170.994 21.3877 171.134 21.4465C171.273 21.5053 171.4 21.5915 171.507 21.7C171.769 21.9715 171.985 22.1374 172.153 22.1977C172.256 22.2343 172.367 22.2475 172.478 22.2363C172.588 22.2251 172.696 22.1899 172.793 22.1331C174.663 21.0429 176.617 20.7736 178.655 21.3251Z" fill="#8C97A4"/>
<path d="M224.938 31.3623C224.993 34.2279 223.837 36.9993 221.725 39.0669C219.613 41.1345 216.717 42.3289 213.675 42.3873C210.633 42.4458 207.693 41.3634 205.503 39.3784C203.313 37.3934 202.052 34.6684 201.997 31.8028C201.942 28.9372 203.098 26.1657 205.21 24.0981C207.322 22.0305 210.218 20.8361 213.26 20.7777C216.302 20.7193 219.242 21.8016 221.432 23.7866C223.622 25.7716 224.883 28.4966 224.938 31.3623ZM213.213 27.202C212.673 27.2351 212.144 27.3808 211.658 27.6308C211.172 27.8808 210.738 28.2303 210.381 28.6593C210.024 29.0882 209.75 29.5882 209.575 30.1308C209.401 30.6733 209.329 31.2478 209.364 31.8213C209.399 32.3949 209.541 32.9563 209.78 33.4736C210.019 33.9908 210.352 34.4538 210.759 34.836C211.166 35.2181 211.639 35.5121 212.152 35.7011C212.665 35.89 213.207 35.9702 213.747 35.9372C214.288 35.9041 214.816 35.7584 215.302 35.5084C215.788 35.2583 216.222 34.9089 216.58 34.4799C216.937 34.051 217.211 33.551 217.385 33.0084C217.56 32.4659 217.631 31.8914 217.596 31.3178C217.561 30.7443 217.42 30.1829 217.181 29.6656C216.942 29.1484 216.609 28.6854 216.202 28.3032C215.795 27.921 215.321 27.6271 214.809 27.4381C214.296 27.2492 213.754 27.1689 213.213 27.202Z" fill="#8C97A4"/>
<path d="M234.512 22.6695C235.929 21.6655 237.25 21.1549 238.474 21.1377C241.169 21.0989 243.166 20.989 244.808 23.374C244.883 23.4832 244.982 23.5742 245.097 23.64C245.212 23.7059 245.34 23.7449 245.472 23.7542C245.604 23.7636 245.736 23.7429 245.858 23.6939C245.981 23.6448 246.09 23.5686 246.178 23.471C248.473 20.9761 252.351 20.459 255.376 21.7323C257.722 22.7147 258.575 25.7073 258.582 28.1375C258.595 32.2095 258.601 36.5852 258.601 41.2647C258.601 41.3394 258.586 41.4134 258.558 41.4824C258.529 41.5514 258.487 41.6141 258.434 41.6669C258.382 41.7197 258.319 41.7616 258.25 41.7902C258.181 41.8188 258.107 41.8335 258.032 41.8335H252.428C252.34 41.8335 252.252 41.8159 252.17 41.7817C252.088 41.7476 252.013 41.6975 251.951 41.6344C251.888 41.5713 251.839 41.4964 251.806 41.4141C251.772 41.3318 251.755 41.2437 251.756 41.1549L251.814 30.0572C251.816 29.6799 251.74 29.3063 251.591 28.9596C251.443 28.6128 251.224 28.3004 250.95 28.0416C250.675 27.7828 250.35 27.5832 249.995 27.4551C249.64 27.3271 249.263 27.2734 248.886 27.2973L248.731 27.3102C247.986 27.3502 247.284 27.6775 246.774 28.2234C246.265 28.7693 245.986 29.4914 245.997 30.2382L246.146 41.2841C246.147 41.3526 246.134 41.4205 246.109 41.484C246.083 41.5475 246.045 41.6052 245.997 41.6539C245.949 41.7026 245.891 41.7413 245.828 41.7677C245.765 41.7941 245.697 41.8077 245.629 41.8077H239.676C239.546 41.8077 239.421 41.7559 239.329 41.6638C239.237 41.5717 239.185 41.4467 239.185 41.3165V29.831C239.185 29.4837 239.111 29.1404 238.968 28.8238C238.825 28.5072 238.617 28.2247 238.356 27.9949C238.096 27.765 237.79 27.5932 237.458 27.4908C237.126 27.3884 236.776 27.3577 236.431 27.4007L236.166 27.433C235.438 27.4777 234.755 27.8012 234.258 28.3365C233.762 28.8719 233.489 29.5781 233.497 30.3093L233.646 41.2777C233.647 41.3453 233.634 41.4124 233.609 41.4751C233.583 41.5378 233.546 41.5948 233.498 41.6429C233.451 41.691 233.394 41.7292 233.332 41.7553C233.27 41.7813 233.203 41.7948 233.135 41.7947H227.047C226.942 41.7947 226.842 41.7532 226.768 41.6793C226.694 41.6053 226.652 41.505 226.652 41.4005V21.7258C226.652 21.6783 226.662 21.6312 226.68 21.5873C226.698 21.5434 226.725 21.5035 226.758 21.4699C226.792 21.4363 226.832 21.4096 226.876 21.3914C226.92 21.3733 226.967 21.3639 227.014 21.3639H232.508C232.646 21.3638 232.781 21.3966 232.902 21.4596C233.024 21.5227 233.128 21.614 233.206 21.7258L233.775 22.5402C233.814 22.5977 233.865 22.6467 233.924 22.6844C233.982 22.7221 234.048 22.7477 234.116 22.7597C234.185 22.7718 234.255 22.77 234.323 22.7545C234.391 22.739 234.455 22.7101 234.512 22.6695Z" fill="#8C97A4"/>
<path d="M51.1322 50.3006C54.1235 50.3006 56.5485 47.8756 56.5485 44.8842C56.5485 41.8929 54.1235 39.4679 51.1322 39.4679C48.1408 39.4679 45.7158 41.8929 45.7158 44.8842C45.7158 47.8756 48.1408 50.3006 51.1322 50.3006Z" fill="#8C97A4"/>
</svg>
