<svg width="229" height="81" viewBox="0 0 229 81" fill="none" xmlns="http://www.w3.org/2000/svg">
<path d="M72.2994 45.2569H66.9868V18H74.2192C79.931 18 83.6565 20.2809 83.6565 26.4584C83.6565 32.2462 80.5107 35.0593 74.9415 35.0593H72.2994V45.2569ZM72.2994 30.6495H73.3829C76.5286 30.6495 78.2298 29.9653 78.2298 26.4204C78.2298 22.8754 76.2055 22.4098 73.2403 22.4098H72.2994V30.6495Z" fill="#8C97A4"/>
<path d="M92.8365 40.6285H100.354V45.2569H87.5239V18H92.8365V40.6285Z" fill="#8C97A4"/>
<path d="M120.645 45.2569L118.545 39.5071H109.07L106.827 45.2569H101.22L111.598 18H116.226L126.31 45.2569H120.636H120.645ZM113.67 25.2609H113.594L110.59 35.1638H117.063L113.66 25.2609H113.67Z" fill="#8C97A4"/>
<path d="M123.25 18H129.427L134.198 27.4753L139.406 18H145.621L137.02 32.7499V45.2569H131.708V32.7499L123.25 18Z" fill="#8C97A4"/>
<path d="M153.767 22.6283V28.6347H161.465V33.2631H153.767V45.2664H148.455V18H161.978V22.6283H153.767Z" fill="#8C97A4"/>
<path d="M171.956 45.2569H166.644V18H171.956V45.2569Z" fill="#8C97A4"/>
<path d="M177.268 18H181.64L195.449 36.3328H195.525V18H200.837V45.2569H196.608L182.657 26.7435H182.581V45.2569H177.268V18Z" fill="#8C97A4"/>
<path d="M223.295 45.2569L221.195 39.5071H211.72L209.477 45.2569H203.87L214.248 18H218.876L228.96 45.2569H223.286H223.295ZM216.32 25.2609H216.244L213.24 35.1638H219.712L216.31 25.2609H216.32Z" fill="#8C97A4"/>
<g filter="url(#filter0_d_7759_3647)">
<path d="M3.54173 33.0756H6.10722C6.26614 33.0756 6.38723 33.1967 6.40236 33.348C6.78832 37.7752 8.54405 41.8164 11.2382 45.0479C11.3517 45.1841 11.5636 45.1917 11.6923 45.063L13.5085 43.2467C13.6145 43.1408 13.622 42.9667 13.5237 42.8456C11.3063 40.1288 9.87598 36.7536 9.55057 33.068C9.50516 32.5459 9.48246 32.0237 9.48246 31.4864C9.48246 30.949 9.50516 30.4269 9.55057 29.9047C9.87598 26.2192 11.3063 22.8439 13.5237 20.1271C13.622 20.006 13.6145 19.8395 13.5085 19.726L11.6923 17.9097C11.5636 17.7811 11.3517 17.7886 11.2382 17.9249C8.54405 21.1563 6.78832 25.1975 6.40236 29.6247C6.38723 29.7836 6.25857 29.8971 6.10722 29.8971H3.54173C3.36767 29.8971 3.22388 29.7458 3.23902 29.5641C3.65525 24.2667 5.76667 19.446 9.03596 15.6394C9.14191 15.5183 9.13434 15.3442 9.02082 15.2307L7.21212 13.422C7.09103 13.3009 6.87913 13.3009 6.76562 13.4371C2.87577 17.9173 0.401094 23.6385 0.0454068 29.9198C0.0151356 30.442 0 30.9642 0 31.5015C0 32.0388 0.0151356 32.561 0.0454068 33.0832C0.401094 39.3569 2.87577 45.0857 6.75805 49.5431C6.87157 49.6794 7.08346 49.6794 7.20455 49.5583L9.01325 47.7496C9.12677 47.6361 9.12677 47.462 9.02839 47.3409C5.7591 43.5343 3.64011 38.706 3.23145 33.4161C3.21632 33.2421 3.3601 33.0832 3.53416 33.0832L3.54173 33.0756Z" fill="#8C97A4"/>
<path d="M29.0824 55.4534V52.888C29.0824 52.729 29.2035 52.608 29.3549 52.5928C33.782 52.2069 37.8232 50.4511 41.0547 47.757C41.1909 47.6435 41.1985 47.4316 41.0698 47.3029L39.2536 45.4866C39.1476 45.3807 38.9736 45.3731 38.8525 45.4639C36.1356 47.6813 32.7604 49.1192 29.0749 49.437C28.5527 49.4824 28.0305 49.5052 27.4932 49.5052C26.9559 49.5052 26.4337 49.4824 25.9115 49.437C22.226 49.1192 18.8508 47.6813 16.1339 45.4639C16.0128 45.3656 15.8463 45.3731 15.7328 45.4791L13.9166 47.2954C13.7879 47.424 13.7955 47.6359 13.9317 47.7494C17.1631 50.4436 21.2043 52.1993 25.6315 52.5852C25.7904 52.6004 25.904 52.729 25.904 52.8804V55.4459C25.904 55.6199 25.7526 55.7637 25.571 55.7486C20.2735 55.3324 15.4528 53.2209 11.6462 49.9517C11.5251 49.8457 11.3511 49.8533 11.2376 49.9668L9.42885 51.7755C9.30776 51.8966 9.30776 52.1085 9.44398 52.222C13.909 56.1043 19.6302 58.5789 25.904 58.9346C26.4261 58.9649 26.9559 58.98 27.4856 58.98C28.0154 58.98 28.5451 58.9649 29.0673 58.9346C35.341 58.5789 41.0698 56.1043 45.5273 52.222C45.6635 52.1085 45.6635 51.8966 45.5424 51.7755L43.7337 49.9668C43.6202 49.8533 43.4461 49.8533 43.325 49.9517C39.5184 53.2209 34.6902 55.3399 29.4003 55.7486C29.2262 55.7637 29.0673 55.6199 29.0673 55.4459L29.0824 55.4534Z" fill="#8C97A4"/>
<path d="M51.4541 29.9199H48.8886C48.7296 29.9199 48.6086 29.7988 48.5934 29.6474C48.2075 25.2203 46.4517 21.1791 43.7576 17.9476C43.6441 17.8114 43.4322 17.8038 43.3035 17.9325L41.4873 19.7488C41.3813 19.8547 41.3737 20.0288 41.4721 20.1499C43.6895 22.8667 45.1274 26.2419 45.4452 29.9275C45.4906 30.4496 45.5133 30.9718 45.5133 31.5091C45.5133 32.0464 45.4906 32.5686 45.4452 33.0908C45.1198 36.7763 43.6895 40.1516 41.4721 42.8684C41.3737 42.9895 41.3813 43.156 41.4873 43.2695L43.3035 45.0858C43.4322 45.2144 43.6441 45.2068 43.7576 45.0706C46.4517 41.8392 48.2075 37.798 48.5934 33.3708C48.6086 33.2119 48.7372 33.0984 48.8886 33.0984H51.4541C51.6281 33.0984 51.7719 33.2497 51.7568 33.4313C51.3405 38.7288 49.2291 43.5495 45.9598 47.3561C45.8539 47.4772 45.8615 47.6512 45.975 47.7648L47.7837 49.5735C47.9048 49.6946 48.1167 49.6946 48.2302 49.5583C52.12 45.1009 54.5871 39.3721 54.9428 33.0984C54.9731 32.5762 54.9882 32.0464 54.9882 31.5167C54.9882 30.9869 54.9731 30.4572 54.9428 29.935C54.5871 23.6537 52.1125 17.9325 48.2302 13.4751C48.1167 13.3388 47.9048 13.3388 47.7837 13.4599L45.975 15.2686C45.8615 15.3821 45.8615 15.5562 45.9598 15.6773C49.2291 19.4839 51.3481 24.3121 51.7568 29.602C51.7719 29.7761 51.6281 29.935 51.4541 29.935V29.9199Z" fill="#8C97A4"/>
<path d="M26.7076 4.01514C26.4427 4.0227 26.1854 4.03784 25.9206 4.05297C19.6393 4.40866 13.918 6.88333 9.46059 10.7656C9.32437 10.8791 9.32437 11.091 9.44545 11.2121L11.2542 13.0208C11.3677 13.1343 11.5417 13.1343 11.6628 13.036C15.4694 9.76667 20.2977 7.64768 25.5876 7.23902C25.7616 7.22388 25.9206 7.36767 25.9206 7.54173V10.1072C25.9206 10.2661 25.7995 10.3872 25.6481 10.4024C21.221 10.7883 17.1797 12.5441 13.9483 15.2382C13.8121 15.3517 13.8045 15.5636 13.9332 15.6923L15.7494 17.5085C15.8554 17.6145 16.0294 17.622 16.1505 17.5237C18.8674 15.3063 22.2426 13.8684 25.9281 13.5506C26.4503 13.5052 26.9725 13.4825 27.5098 13.4825C28.0471 13.4825 28.5693 13.5052 29.0915 13.5506C32.777 13.8684 36.1522 15.3063 38.8691 17.5237C38.9902 17.622 39.1566 17.6145 39.2702 17.5085L41.0864 15.6923C41.2151 15.5636 41.2075 15.3517 41.0713 15.2382C37.8398 12.5441 33.7986 10.7883 29.3715 10.4024C29.2126 10.3872 29.099 10.2586 29.099 10.1072V7.54173C29.099 7.36767 29.2504 7.22388 29.432 7.23902C34.7295 7.65525 39.5502 9.76667 43.3568 13.036C43.4779 13.1419 43.6519 13.1343 43.7654 13.0208L45.5741 11.2121C45.6952 11.091 45.6952 10.8791 45.559 10.7656C41.0789 6.87577 35.3576 4.40109 29.0839 4.04541C28.8266 4.03027 28.5693 4.0227 28.312 4.01514C28.0395 4.00757 27.7747 4 27.5022 4C27.2298 4 26.9725 4 26.7076 4.01514Z" fill="#8C97A4"/>
<path d="M14.0747 23.6992L15.225 37.5331C15.225 37.6164 15.278 37.6921 15.3461 37.745L26.5464 46.2815C26.7432 46.4329 27.0308 46.2891 27.0308 46.0394V29.8594C27.0308 29.7459 26.9702 29.6399 26.8643 29.587L14.5136 23.4041C14.3017 23.2981 14.0596 23.4646 14.0823 23.6992H14.0747ZM21.7939 40.3332C20.7344 39.7127 19.8414 38.8499 19.183 37.8132C18.4716 36.7385 17.9797 35.5277 17.7224 34.2639L16.8143 33.7795L16.731 32.3795L17.4878 32.72V31.9632L16.6629 31.5546L16.5948 30.094L17.6997 30.6389C17.8737 29.8518 18.4338 29.201 19.1905 28.9059C20.076 28.6788 21.0068 28.8529 21.7485 29.3902C22.4447 29.7837 23.0728 30.2983 23.595 30.9113V33.4541C23.1561 32.8865 22.6263 32.4022 22.0133 32.0314C21.1582 31.547 20.5376 31.547 20.1365 32.0314L22.0133 33.0908V34.3774L19.6976 33.1211C19.69 33.2422 19.69 33.3709 19.6976 33.4919C19.6976 33.613 19.6976 33.7417 19.6976 33.8628L21.9755 35.0736V36.625L20.0003 35.505C20.3408 36.5191 21.0447 37.3742 21.9755 37.904C22.4901 38.2597 23.209 38.4034 23.822 38.2899V40.9992C23.0955 40.9614 22.3917 40.7343 21.7863 40.3332H21.7939Z" fill="#8C97A4"/>
<path d="M27.9614 29.8591V46.0391C27.9614 46.2888 28.249 46.4326 28.4458 46.2812L39.6461 37.7523C39.7142 37.6993 39.7596 37.6237 39.7672 37.5404L40.9175 23.7065C40.9402 23.4719 40.6905 23.3054 40.4786 23.4113L28.1279 29.5942C28.0295 29.6472 27.9614 29.7531 27.9614 29.8667V29.8591ZM36.1422 38.1383V39.2432L34.3941 40.4237V39.1751C33.3648 39.7426 32.0934 39.5459 32.0934 39.5459V37.1545C32.8351 37.2831 33.4481 37.3058 34.4622 36.8971C36.3087 36.1706 36.4676 35.3155 36.2179 35.0128C35.9682 34.71 35.4536 34.8765 34.7346 35.0128C34.0157 35.149 33.3043 35.0884 33.3043 35.0884C33.3043 35.0884 32.2221 35.1414 32.0707 33.7338C31.8588 31.2062 34.3638 29.6472 34.3638 29.6472V28.2396L36.006 27.4147V28.6407C36.4525 28.3909 37.9358 28.3077 37.9358 28.3077L37.7542 30.4796C36.2482 30.1542 34.1065 31.1002 34.0762 32.1521C34.0459 33.1965 35.1281 32.5003 36.2255 32.3338C37.3228 32.1673 38.4428 32.1446 38.4428 33.7943C38.4655 36.8744 36.1422 38.1307 36.1422 38.1307V38.1383Z" fill="#8C97A4"/>
<path d="M27.6438 20.5509C26.5011 20.0438 25.434 20.5736 24.8967 20.8309C24.3594 21.0806 24.1929 21.1941 24.1929 21.1941L26.4329 22.1931L27.6438 21.5347C27.6438 21.5347 28.7865 21.0579 27.6438 20.5584V20.5509Z" fill="#8C97A4"/>
<path d="M31.9408 21.9129C31.2446 21.4285 29.9808 21.5723 29.2164 21.928C28.4521 22.2837 27.6348 22.6621 27.6348 22.6621L30.0867 23.7367L31.8122 22.8816C31.8122 22.8816 32.6371 22.4048 31.9408 21.9204V21.9129Z" fill="#8C97A4"/>
<path d="M27.416 16.6761L14.6415 21.9735C14.3994 22.0719 14.3918 22.4049 14.6264 22.5184L27.3554 28.7316C27.4387 28.7694 27.5371 28.7694 27.6203 28.7316L40.3569 22.4276C40.5915 22.3141 40.5764 21.9811 40.3342 21.8827L27.6355 16.6761C27.5598 16.6458 27.4765 16.6458 27.4084 16.6761H27.416ZM33.2432 23.3055L34.333 23.8731L32.9329 24.5239L31.9794 23.9941L31.3285 24.3271L32.3124 24.8493L30.9804 25.5077L29.9815 25.0309L27.6279 26.1585L26.4246 25.6515C26.4246 25.6515 27.0981 25.3261 27.5295 25.1293C27.9609 24.9326 27.5295 24.6677 27.5295 24.6677L23.0569 22.7303C23.1023 22.753 23.0645 22.7303 22.6256 22.5411C21.8385 22.2006 21.4753 22.473 21.4753 22.473L20.4763 22.9347L19.3487 22.3822L21.6493 21.2924L20.499 20.8005L21.6493 20.2481L22.7996 20.74L23.5791 20.3692L22.4288 19.8773L23.5791 19.2794C23.5791 19.2794 23.5791 19.3248 24.7597 19.847C26.1295 19.234 27.7187 18.9843 29.1112 19.2567C30.5037 19.5291 30.5491 20.1421 30.3523 20.5886C31.7523 20.1497 32.547 20.3313 33.4248 20.4676C34.3027 20.6038 35.3925 21.3151 35.0216 22.0644C34.6508 22.806 33.2432 23.2979 33.2432 23.2979V23.3055Z" fill="#8C97A4"/>
</g>
<defs>
<filter id="filter0_d_7759_3647" x="-12.6324" y="0.284598" width="80.253" height="80.2448" filterUnits="userSpaceOnUse" color-interpolation-filters="sRGB">
<feFlood flood-opacity="0" result="BackgroundImageFix"/>
<feColorMatrix in="SourceAlpha" type="matrix" values="0 0 0 0 0 0 0 0 0 0 0 0 0 0 0 0 0 0 127 0" result="hardAlpha"/>
<feOffset dy="8.91697"/>
<feGaussianBlur stdDeviation="6.31618"/>
<feComposite in2="hardAlpha" operator="out"/>
<feColorMatrix type="matrix" values="0 0 0 0 0 0 0 0 0 0 0 0 0 0 0 0 0 0 0.05 0"/>
<feBlend mode="normal" in2="BackgroundImageFix" result="effect1_dropShadow_7759_3647"/>
<feBlend mode="normal" in="SourceGraphic" in2="effect1_dropShadow_7759_3647" result="shape"/>
</filter>
</defs>
</svg>
