<svg width="229" height="100" viewBox="0 0 229 100" fill="none" xmlns="http://www.w3.org/2000/svg">
<g clip-path="url(#clip0_7759_3595)">
<path d="M72.2994 64.2569H66.9868V37H74.2192C79.931 37 83.6565 39.2809 83.6565 45.4584C83.6565 51.2462 80.5107 54.0593 74.9415 54.0593H72.2994V64.2569ZM72.2994 49.6495H73.3829C76.5286 49.6495 78.2298 48.9653 78.2298 45.4204C78.2298 41.8754 76.2055 41.4098 73.2403 41.4098H72.2994V49.6495Z" fill="#8C97A4"/>
<path d="M92.8365 59.6285H100.354V64.2569H87.5239V37H92.8365V59.6285Z" fill="#8C97A4"/>
<path d="M120.645 64.2569L118.545 58.5071H109.07L106.827 64.2569H101.22L111.598 37H116.226L126.31 64.2569H120.636H120.645ZM113.67 44.2609H113.594L110.59 54.1638H117.063L113.66 44.2609H113.67Z" fill="#8C97A4"/>
<path d="M123.25 37H129.427L134.198 46.4753L139.406 37H145.621L137.02 51.7499V64.2569H131.708V51.7499L123.25 37Z" fill="#8C97A4"/>
<path d="M153.767 41.6283V47.6347H161.465V52.2631H153.767V64.2664H148.455V37H161.978V41.6283H153.767Z" fill="#8C97A4"/>
<path d="M171.956 64.2569H166.644V37H171.956V64.2569Z" fill="#8C97A4"/>
<path d="M177.268 37H181.64L195.449 55.3328H195.525V37H200.837V64.2569H196.608L182.657 45.7435H182.581V64.2569H177.268V37Z" fill="#8C97A4"/>
<path d="M223.295 64.2569L221.195 58.5071H211.72L209.477 64.2569H203.87L214.248 37H218.876L228.96 64.2569H223.286H223.295ZM216.32 44.2609H216.244L213.24 54.1638H219.712L216.31 44.2609H216.32Z" fill="#8C97A4"/>
<g filter="url(#filter0_d_7759_3595)">
<path d="M3.54173 52.0756H6.10722C6.26614 52.0756 6.38723 52.1967 6.40236 52.348C6.78832 56.7752 8.54405 60.8164 11.2382 64.0479C11.3517 64.1841 11.5636 64.1917 11.6923 64.063L13.5085 62.2467C13.6145 62.1408 13.622 61.9667 13.5237 61.8456C11.3063 59.1288 9.87598 55.7536 9.55057 52.068C9.50516 51.5459 9.48246 51.0237 9.48246 50.4864C9.48246 49.949 9.50516 49.4269 9.55057 48.9047C9.87598 45.2192 11.3063 41.8439 13.5237 39.1271C13.622 39.006 13.6145 38.8395 13.5085 38.726L11.6923 36.9097C11.5636 36.7811 11.3517 36.7886 11.2382 36.9249C8.54405 40.1563 6.78832 44.1975 6.40236 48.6247C6.38723 48.7836 6.25857 48.8971 6.10722 48.8971H3.54173C3.36767 48.8971 3.22388 48.7458 3.23902 48.5641C3.65525 43.2667 5.76667 38.446 9.03596 34.6394C9.14191 34.5183 9.13434 34.3442 9.02082 34.2307L7.21212 32.422C7.09103 32.3009 6.87913 32.3009 6.76562 32.4371C2.87577 36.9173 0.401094 42.6385 0.0454068 48.9198C0.0151356 49.442 0 49.9642 0 50.5015C0 51.0388 0.0151356 51.561 0.0454068 52.0832C0.401094 58.3569 2.87577 64.0857 6.75805 68.5431C6.87157 68.6794 7.08346 68.6794 7.20455 68.5583L9.01325 66.7496C9.12677 66.6361 9.12677 66.462 9.02839 66.3409C5.7591 62.5343 3.64011 57.706 3.23145 52.4161C3.21632 52.2421 3.3601 52.0832 3.53416 52.0832L3.54173 52.0756Z" fill="#8C97A4"/>
<path d="M29.0824 74.4534V71.888C29.0824 71.729 29.2035 71.608 29.3549 71.5928C33.782 71.2069 37.8232 69.4511 41.0547 66.757C41.1909 66.6435 41.1985 66.4316 41.0698 66.3029L39.2536 64.4866C39.1476 64.3807 38.9736 64.3731 38.8525 64.4639C36.1356 66.6813 32.7604 68.1192 29.0749 68.437C28.5527 68.4824 28.0305 68.5052 27.4932 68.5052C26.9559 68.5052 26.4337 68.4824 25.9115 68.437C22.226 68.1192 18.8508 66.6813 16.1339 64.4639C16.0128 64.3656 15.8463 64.3731 15.7328 64.4791L13.9166 66.2954C13.7879 66.424 13.7955 66.6359 13.9317 66.7494C17.1631 69.4436 21.2043 71.1993 25.6315 71.5852C25.7904 71.6004 25.904 71.729 25.904 71.8804V74.4459C25.904 74.6199 25.7526 74.7637 25.571 74.7486C20.2735 74.3324 15.4528 72.2209 11.6462 68.9517C11.5251 68.8457 11.3511 68.8533 11.2376 68.9668L9.42885 70.7755C9.30776 70.8966 9.30776 71.1085 9.44398 71.222C13.909 75.1043 19.6302 77.5789 25.904 77.9346C26.4261 77.9649 26.9559 77.98 27.4856 77.98C28.0154 77.98 28.5451 77.9649 29.0673 77.9346C35.341 77.5789 41.0698 75.1043 45.5273 71.222C45.6635 71.1085 45.6635 70.8966 45.5424 70.7755L43.7337 68.9668C43.6202 68.8533 43.4461 68.8533 43.325 68.9517C39.5184 72.2209 34.6902 74.3399 29.4003 74.7486C29.2262 74.7637 29.0673 74.6199 29.0673 74.4459L29.0824 74.4534Z" fill="#8C97A4"/>
<path d="M51.4541 48.9199H48.8886C48.7296 48.9199 48.6086 48.7988 48.5934 48.6474C48.2075 44.2203 46.4517 40.1791 43.7576 36.9476C43.6441 36.8114 43.4322 36.8038 43.3035 36.9325L41.4873 38.7488C41.3813 38.8547 41.3737 39.0288 41.4721 39.1499C43.6895 41.8667 45.1274 45.2419 45.4452 48.9275C45.4906 49.4496 45.5133 49.9718 45.5133 50.5091C45.5133 51.0464 45.4906 51.5686 45.4452 52.0908C45.1198 55.7763 43.6895 59.1516 41.4721 61.8684C41.3737 61.9895 41.3813 62.156 41.4873 62.2695L43.3035 64.0858C43.4322 64.2144 43.6441 64.2068 43.7576 64.0706C46.4517 60.8392 48.2075 56.798 48.5934 52.3708C48.6086 52.2119 48.7372 52.0984 48.8886 52.0984H51.4541C51.6281 52.0984 51.7719 52.2497 51.7568 52.4313C51.3405 57.7288 49.2291 62.5495 45.9598 66.3561C45.8539 66.4772 45.8615 66.6512 45.975 66.7648L47.7837 68.5735C47.9048 68.6946 48.1167 68.6946 48.2302 68.5583C52.12 64.1009 54.5871 58.3721 54.9428 52.0984C54.9731 51.5762 54.9882 51.0464 54.9882 50.5167C54.9882 49.9869 54.9731 49.4572 54.9428 48.935C54.5871 42.6537 52.1125 36.9325 48.2302 32.4751C48.1167 32.3388 47.9048 32.3388 47.7837 32.4599L45.975 34.2686C45.8615 34.3821 45.8615 34.5562 45.9598 34.6773C49.2291 38.4839 51.3481 43.3121 51.7568 48.602C51.7719 48.7761 51.6281 48.935 51.4541 48.935V48.9199Z" fill="#8C97A4"/>
<path d="M26.7076 23.0151C26.4427 23.0227 26.1854 23.0378 25.9206 23.053C19.6393 23.4087 13.918 25.8833 9.46059 29.7656C9.32437 29.8791 9.32437 30.091 9.44545 30.2121L11.2542 32.0208C11.3677 32.1343 11.5417 32.1343 11.6628 32.036C15.4694 28.7667 20.2977 26.6477 25.5876 26.239C25.7616 26.2239 25.9206 26.3677 25.9206 26.5417V29.1072C25.9206 29.2661 25.7995 29.3872 25.6481 29.4024C21.221 29.7883 17.1797 31.5441 13.9483 34.2382C13.8121 34.3517 13.8045 34.5636 13.9332 34.6923L15.7494 36.5085C15.8554 36.6145 16.0294 36.622 16.1505 36.5237C18.8674 34.3063 22.2426 32.8684 25.9281 32.5506C26.4503 32.5052 26.9725 32.4825 27.5098 32.4825C28.0471 32.4825 28.5693 32.5052 29.0915 32.5506C32.777 32.8684 36.1522 34.3063 38.8691 36.5237C38.9902 36.622 39.1566 36.6145 39.2702 36.5085L41.0864 34.6923C41.2151 34.5636 41.2075 34.3517 41.0713 34.2382C37.8398 31.5441 33.7986 29.7883 29.3715 29.4024C29.2126 29.3872 29.099 29.2586 29.099 29.1072V26.5417C29.099 26.3677 29.2504 26.2239 29.432 26.239C34.7295 26.6552 39.5502 28.7667 43.3568 32.036C43.4779 32.1419 43.6519 32.1343 43.7654 32.0208L45.5741 30.2121C45.6952 30.091 45.6952 29.8791 45.559 29.7656C41.0789 25.8758 35.3576 23.4011 29.0839 23.0454C28.8266 23.0303 28.5693 23.0227 28.312 23.0151C28.0395 23.0076 27.7747 23 27.5022 23C27.2298 23 26.9725 23 26.7076 23.0151Z" fill="#8C97A4"/>
<path d="M14.0747 42.6992L15.225 56.5331C15.225 56.6164 15.278 56.6921 15.3461 56.745L26.5464 65.2815C26.7432 65.4329 27.0308 65.2891 27.0308 65.0394V48.8594C27.0308 48.7459 26.9702 48.6399 26.8643 48.587L14.5136 42.4041C14.3017 42.2981 14.0596 42.4646 14.0823 42.6992H14.0747ZM21.7939 59.3332C20.7344 58.7127 19.8414 57.8499 19.183 56.8132C18.4716 55.7385 17.9797 54.5277 17.7224 53.2639L16.8143 52.7795L16.731 51.3795L17.4878 51.72V50.9632L16.6629 50.5546L16.5948 49.094L17.6997 49.6389C17.8737 48.8518 18.4338 48.201 19.1905 47.9059C20.076 47.6788 21.0068 47.8529 21.7485 48.3902C22.4447 48.7837 23.0728 49.2983 23.595 49.9113V52.4541C23.1561 51.8865 22.6263 51.4022 22.0133 51.0314C21.1582 50.547 20.5376 50.547 20.1365 51.0314L22.0133 52.0908V53.3774L19.6976 52.1211C19.69 52.2422 19.69 52.3709 19.6976 52.4919C19.6976 52.613 19.6976 52.7417 19.6976 52.8628L21.9755 54.0736V55.625L20.0003 54.505C20.3408 55.5191 21.0447 56.3742 21.9755 56.904C22.4901 57.2597 23.209 57.4034 23.822 57.2899V59.9992C23.0955 59.9614 22.3917 59.7343 21.7863 59.3332H21.7939Z" fill="#8C97A4"/>
<path d="M27.9614 48.8591V65.0391C27.9614 65.2888 28.249 65.4326 28.4458 65.2812L39.6461 56.7523C39.7142 56.6993 39.7596 56.6237 39.7672 56.5404L40.9175 42.7065C40.9402 42.4719 40.6905 42.3054 40.4786 42.4113L28.1279 48.5942C28.0295 48.6472 27.9614 48.7531 27.9614 48.8667V48.8591ZM36.1422 57.1383V58.2432L34.3941 59.4237V58.1751C33.3648 58.7426 32.0934 58.5459 32.0934 58.5459V56.1545C32.8351 56.2831 33.4481 56.3058 34.4622 55.8971C36.3087 55.1706 36.4676 54.3155 36.2179 54.0128C35.9682 53.71 35.4536 53.8765 34.7346 54.0128C34.0157 54.149 33.3043 54.0884 33.3043 54.0884C33.3043 54.0884 32.2221 54.1414 32.0707 52.7338C31.8588 50.2062 34.3638 48.6472 34.3638 48.6472V47.2396L36.006 46.4147V47.6407C36.4525 47.3909 37.9358 47.3077 37.9358 47.3077L37.7542 49.4796C36.2482 49.1542 34.1065 50.1002 34.0762 51.1521C34.0459 52.1965 35.1281 51.5003 36.2255 51.3338C37.3228 51.1673 38.4428 51.1446 38.4428 52.7943C38.4655 55.8744 36.1422 57.1307 36.1422 57.1307V57.1383Z" fill="#8C97A4"/>
<path d="M27.6438 39.5509C26.5011 39.0438 25.434 39.5736 24.8967 39.8309C24.3594 40.0806 24.1929 40.1941 24.1929 40.1941L26.4329 41.1931L27.6438 40.5347C27.6438 40.5347 28.7865 40.0579 27.6438 39.5584V39.5509Z" fill="#8C97A4"/>
<path d="M31.9408 40.9129C31.2446 40.4285 29.9808 40.5723 29.2164 40.928C28.4521 41.2837 27.6348 41.6621 27.6348 41.6621L30.0867 42.7367L31.8122 41.8816C31.8122 41.8816 32.6371 41.4048 31.9408 40.9204V40.9129Z" fill="#8C97A4"/>
<path d="M27.416 35.6761L14.6415 40.9735C14.3994 41.0719 14.3918 41.4049 14.6264 41.5184L27.3554 47.7316C27.4387 47.7694 27.5371 47.7694 27.6203 47.7316L40.3569 41.4276C40.5915 41.3141 40.5764 40.9811 40.3342 40.8827L27.6355 35.6761C27.5598 35.6458 27.4765 35.6458 27.4084 35.6761H27.416ZM33.2432 42.3055L34.333 42.8731L32.9329 43.5239L31.9794 42.9941L31.3285 43.3271L32.3124 43.8493L30.9804 44.5077L29.9815 44.0309L27.6279 45.1585L26.4246 44.6515C26.4246 44.6515 27.0981 44.3261 27.5295 44.1293C27.9609 43.9326 27.5295 43.6677 27.5295 43.6677L23.0569 41.7303C23.1023 41.753 23.0645 41.7303 22.6256 41.5411C21.8385 41.2006 21.4753 41.473 21.4753 41.473L20.4763 41.9347L19.3487 41.3822L21.6493 40.2924L20.499 39.8005L21.6493 39.2481L22.7996 39.74L23.5791 39.3692L22.4288 38.8773L23.5791 38.2794C23.5791 38.2794 23.5791 38.3248 24.7597 38.847C26.1295 38.234 27.7187 37.9843 29.1112 38.2567C30.5037 38.5291 30.5491 39.1421 30.3523 39.5886C31.7523 39.1497 32.547 39.3313 33.4248 39.4676C34.3027 39.6038 35.3925 40.3151 35.0216 41.0644C34.6508 41.806 33.2432 42.2979 33.2432 42.2979V42.3055Z" fill="#8C97A4"/>
</g>
</g>
<defs>
<filter id="filter0_d_7759_3595" x="-12.6324" y="19.2846" width="80.253" height="80.2448" filterUnits="userSpaceOnUse" color-interpolation-filters="sRGB">
<feFlood flood-opacity="0" result="BackgroundImageFix"/>
<feColorMatrix in="SourceAlpha" type="matrix" values="0 0 0 0 0 0 0 0 0 0 0 0 0 0 0 0 0 0 127 0" result="hardAlpha"/>
<feOffset dy="8.91697"/>
<feGaussianBlur stdDeviation="6.31618"/>
<feComposite in2="hardAlpha" operator="out"/>
<feColorMatrix type="matrix" values="0 0 0 0 0 0 0 0 0 0 0 0 0 0 0 0 0 0 0.05 0"/>
<feBlend mode="normal" in2="BackgroundImageFix" result="effect1_dropShadow_7759_3595"/>
<feBlend mode="normal" in="SourceGraphic" in2="effect1_dropShadow_7759_3595" result="shape"/>
</filter>
<clipPath id="clip0_7759_3595">
<rect width="228.96" height="100" fill="white"/>
</clipPath>
</defs>
</svg>
