<svg width="279" height="50" viewBox="0 0 279 50" fill="none" xmlns="http://www.w3.org/2000/svg">
<path d="M68.3187 24.9993C68.3187 38.1359 58.0625 48.8374 45.1235 49.6104L55.6588 32.0458C56.8599 29.9886 57.5514 27.552 57.5514 24.9993C57.5514 17.3114 51.3123 11.0724 43.6245 11.0724C38.9488 11.0724 34.8171 13.393 32.2817 16.9335L31.1794 18.7775C30.2417 20.6544 29.6977 22.7618 29.6977 25.0008C29.6977 27.2399 30.2245 29.2971 31.1465 31.1583L32.2488 33.0023C34.5537 36.2778 38.2416 38.5169 42.4548 38.8634L36.578 48.6586C30.339 46.8147 25.1536 42.5513 22.0412 36.9865H22.0082L21.1192 35.5205L12.6082 49.6951H0L14.8159 25.0008L0 0.305054H12.627L21.138 14.4797L22.0271 12.9979H22.0443C26.2575 5.44178 34.3405 0.305054 43.6245 0.305054C57.255 0.305054 68.3187 11.3672 68.3187 24.9993ZM49.0074 24.9993C49.0074 22.0201 46.6037 19.6164 43.6245 19.6164C40.6453 19.6164 38.2416 22.0201 38.2416 24.9993C38.2416 27.9784 40.6453 30.3822 43.6245 30.3822C46.6037 30.3822 49.0074 27.9784 49.0074 24.9993Z" fill="#626A73"/>
<path d="M156.703 25.8462C157.117 24.2594 157.192 22.6412 156.95 21.0795H148.065C148.582 21.8525 148.745 22.798 148.507 23.7075C148.132 25.1406 146.837 26.1426 145.353 26.1426H143.999L143.975 26.2413H120.952C115.405 26.2413 114.403 30.3777 114.403 30.3777L115.405 26.1426L116.951 19.626H136.75L137.281 17.3603C137.91 14.6853 139.569 12.4917 141.783 11.1542H110.254L105.937 29.3491C106.46 29.9716 106.933 30.6474 107.346 31.3765C109.715 35.5536 109.657 40.5069 107.192 44.6291C105.903 46.7835 104.031 48.4911 101.848 49.5996H109.837L113.393 34.6128H145.352C150.686 34.6128 155.354 31.008 156.701 25.8462H156.703Z" fill="#8C97A4"/>
<path d="M220.412 40.4206C221.035 37.5794 220.592 34.6661 219.202 32.1761C219.272 32.1212 219.344 32.0695 219.413 32.013C221.497 30.3369 222.958 27.9755 223.531 25.3648C224.297 21.8666 223.449 18.2587 221.205 15.4692C218.96 12.6782 215.619 11.0789 212.037 11.0789H172.587L172.57 11.1557L165.981 39.4531H174.711L179.412 19.6448L212.039 19.5507C213.413 19.5507 214.237 20.3221 214.607 20.7816C214.977 21.241 215.553 22.2116 215.258 23.5538C214.929 25.0543 213.576 26.1441 212.037 26.1441H209.342C209.201 26.1394 209.06 26.1362 208.919 26.1362V26.1441H196.69C189.916 26.1441 188.837 30.3792 188.837 30.3792L187.832 34.6143H209.159C210.388 34.6974 211.139 35.4046 211.485 35.8358C211.838 36.2748 212.379 37.1796 212.172 38.4292L209.613 49.6012H218.303L220.406 40.4206H220.412Z" fill="#8C97A4"/>
<path d="M189.397 21.0623H180.712L176.005 41.0964H142.13L143.328 36.0491H134.623L133.882 39.1662C133.282 41.6954 133.862 44.3171 135.474 46.357C137.086 48.397 139.502 49.5667 142.102 49.5667H176.022C179.964 49.5667 183.345 46.887 184.246 43.0501L189.297 21.5546C189.336 21.3915 189.369 21.2269 189.397 21.0623Z" fill="#8C97A4"/>
<path d="M138.927 17.6895L137.255 24.8066H145.956L147.17 19.6432H169.172L170.108 15.4363L171.056 11.1729L171.06 11.1557L171.077 11.0789H153.514V11.1729H147.151C143.209 11.1729 139.828 13.8526 138.927 17.6895Z" fill="#8C97A4"/>
<path d="M268.057 27.6228C268.064 27.5727 268.069 27.5225 268.077 27.4723C266.454 26.6099 264.613 26.1442 262.675 26.1442H262.321C262.321 26.1442 262.318 26.1442 262.316 26.1442H248.317C246.605 26.1442 245.766 24.9902 245.484 24.4931C245.253 24.0855 244.836 23.129 245.178 21.9875C245.234 21.8573 245.297 21.7256 245.377 21.5908L245.677 21.0906C245.683 21.0812 245.689 21.0718 245.695 21.0624H236.716C236.303 23.6323 236.767 26.2932 238.116 28.6702C239.206 30.591 240.75 32.112 242.577 33.1343C242.569 33.1845 242.564 33.2347 242.556 33.2848C244.179 34.1472 246.02 34.6129 247.958 34.6129H248.312C248.312 34.6129 248.316 34.6129 248.317 34.6129H262.316C264.028 34.6129 264.867 35.767 265.149 36.264C265.38 36.6717 265.797 37.6282 265.455 38.7697C265.399 38.8998 265.336 39.0315 265.256 39.1664L264.957 39.6665C264.662 40.1605 264.231 40.5509 263.73 40.8033C263.295 41.015 262.812 41.1295 262.315 41.1295H232.753L230.743 49.5997H262.374C264.262 49.5997 266.097 49.1262 267.724 48.267C269.623 47.2776 271.252 45.7754 272.379 43.8923C274.576 40.22 274.626 35.8077 272.516 32.0853C271.426 30.1645 269.882 28.6436 268.055 27.6213L268.057 27.6228Z" fill="#8C97A4"/>
<path d="M218.895 11.173C221.391 12.4243 224.577 15.9899 224.904 19.6433H226.541L220.112 49.5667H228.944L235.373 19.6433L276.553 19.626L278.563 11.1558L218.895 11.173Z" fill="#8C97A4"/>
<path d="M95.8963 26.1426H75.4263C73.8442 26.1426 73.0696 25.0763 72.8093 24.6185C72.549 24.1606 72.0331 22.947 72.8438 21.5907L73.1433 21.0905C73.6842 20.1874 74.6721 19.626 75.7257 19.626H106.596L108.606 11.1558H75.7257C72.7528 11.1558 69.9148 12.3302 67.8027 14.3372C69.1951 17.5469 69.9681 21.0858 69.9681 24.8066C69.9681 27.5694 69.5416 30.2319 68.7529 32.7328C68.7529 32.7328 68.7529 32.736 68.7529 32.7375C70.7192 34.155 73.6419 34.6144 75.4263 34.6144H95.8963C97.6086 34.6144 98.449 35.7684 98.7312 36.2655C99.0135 36.7625 99.5732 38.0749 98.6936 39.5457C98.1087 40.5241 97.0378 41.131 95.8979 41.131H64.3014C61.2783 44.9553 57.2157 47.9203 52.5415 49.6012H95.8979C99.9997 49.6012 103.857 47.4139 105.963 43.8937C108.16 40.2215 108.21 35.8092 106.099 32.0868C103.989 28.366 100.175 26.1441 95.8963 26.1441V26.1426Z" fill="#8C97A4"/>
</svg>
