<svg width="146" height="64" viewBox="0 0 146 64" fill="none" xmlns="http://www.w3.org/2000/svg">
<path d="M32.2065 52.661C32.2274 52.6894 32.2413 52.7224 32.2468 52.7573C32.2523 52.7921 32.2494 52.8278 32.2382 52.8613C32.227 52.8948 32.208 52.9251 32.1826 52.9497C32.1573 52.9743 32.1264 52.9924 32.0926 53.0025C24.2821 55.3707 17.0713 54.3233 11.629 48.1295C8.05395 44.0535 7.49226 39.9168 7.51503 33.8976C7.56057 23.5545 7.55298 15.8275 7.49226 10.7166C7.49125 10.6632 7.50091 10.61 7.52068 10.5604C7.54044 10.5107 7.56991 10.4654 7.60737 10.4273C7.64483 10.3891 7.68952 10.3588 7.73883 10.3381C7.78813 10.3174 7.84107 10.3068 7.89455 10.3068H15.5912C15.7724 10.3068 15.9461 10.3787 16.0742 10.5068C16.2023 10.635 16.2743 10.8087 16.2743 10.9899V18.8915C16.2743 19.1028 16.3583 19.3056 16.5077 19.455C16.6572 19.6045 16.8599 19.6884 17.0713 19.6884H24.8135C24.9725 19.6884 25.125 19.7524 25.2375 19.8663C25.3499 19.9802 25.4131 20.1346 25.4131 20.2957V28.1138C25.4131 28.2305 25.3667 28.3425 25.2842 28.425C25.2016 28.5076 25.0896 28.554 24.9729 28.554H16.6007C16.4752 28.5539 16.3547 28.6025 16.2652 28.6891C16.1757 28.7757 16.1245 28.8935 16.1225 29.017C16.0921 30.5047 16.0921 33.0197 16.1225 36.5618C16.1756 42.3001 20.95 46.5887 26.5896 45.4577C26.6784 45.4397 26.7705 45.4472 26.8551 45.4795C26.9398 45.5117 27.0135 45.5674 27.0678 45.6399L32.2065 52.661Z" fill="#8C97A4"/>
<path d="M96.3222 19.066C98.7369 19.066 100.694 17.1086 100.694 14.6939C100.694 12.2793 98.7369 10.3219 96.3222 10.3219C93.9076 10.3219 91.9502 12.2793 91.9502 14.6939C91.9502 17.1086 93.9076 19.066 96.3222 19.066Z" fill="#8C97A4"/>
<path d="M58.7266 19.6353C60.2396 19.6353 61.6033 19.6657 62.8178 19.7264C62.8835 19.7303 62.9453 19.7591 62.9905 19.8071C63.0357 19.8551 63.0608 19.9186 63.0606 19.9845C63.1011 27.8076 63.1037 32.9437 63.0682 35.3929C63.0278 37.9382 63.339 39.7978 64.0019 40.9718C68.5485 49.0024 80.1238 45.9739 80.2073 36.9337C80.2629 31.1145 80.2655 25.5786 80.2149 20.326C80.2139 20.2337 80.2312 20.1421 80.2658 20.0565C80.3005 19.9709 80.3517 19.893 80.4167 19.8273C80.4816 19.7617 80.559 19.7096 80.6442 19.674C80.7294 19.6384 80.8208 19.6201 80.9132 19.6201H88.2151C88.3909 19.6201 88.5597 19.6903 88.6848 19.8153C88.8098 19.9404 88.8811 20.1102 88.8831 20.2881C88.8881 31.1575 88.8881 36.706 88.8831 36.9337C88.6553 46.5735 81.8544 53.883 72.1615 54.179C67.0532 54.3308 62.4762 52.6458 59.0757 48.8506C59.0251 48.7899 58.9214 48.7595 58.7645 48.7595C58.6127 48.7595 58.5115 48.7899 58.4609 48.8506C55.068 52.6534 50.4986 54.3536 45.3903 54.217C35.6974 53.9437 28.8737 46.657 28.6232 37.0172C28.6131 36.7895 28.5979 31.241 28.5776 20.3716C28.5796 20.195 28.6498 20.0263 28.7732 19.9015C28.8966 19.7766 29.0635 19.7056 29.238 19.7036L36.5399 19.6808C36.6329 19.6798 36.7252 19.6974 36.8113 19.7325C36.8974 19.7676 36.9756 19.8196 37.0413 19.8853C37.1071 19.9511 37.159 20.0293 37.1942 20.1154C37.2293 20.2015 37.2468 20.2938 37.2458 20.3867C37.2053 25.6393 37.2205 31.1752 37.2914 36.9945C37.4052 46.0346 48.9881 49.0328 53.512 40.987C54.1698 39.813 54.4759 37.9534 54.4304 35.4081C54.3899 32.9589 54.3773 27.8228 54.3925 19.9996C54.3923 19.9337 54.4174 19.8703 54.4626 19.8223C54.5078 19.7743 54.5696 19.7454 54.6353 19.7416C55.8549 19.6758 57.2186 19.6404 58.7266 19.6353Z" fill="#8C97A4"/>
<path d="M120.907 19.696C128.96 19.696 135.541 25.1915 137.636 32.4403C138.173 34.3075 138.4 37.8421 138.319 43.044C138.279 45.3009 138.276 48.8633 138.312 53.7312C138.312 53.844 138.267 53.9521 138.187 54.0318C138.107 54.1115 137.999 54.1563 137.887 54.1563H129.955C129.896 54.1563 129.838 54.1447 129.784 54.1221C129.731 54.0995 129.682 54.0664 129.641 54.0247C129.6 53.983 129.567 53.9336 129.546 53.8793C129.524 53.825 129.513 53.7669 129.514 53.7085C129.525 44.7113 129.509 39.1324 129.469 36.9717C129.385 32.2201 125.932 28.5085 120.915 28.516C115.905 28.516 112.451 32.2353 112.368 36.9869C112.332 39.1476 112.327 44.7265 112.353 53.7236C112.354 53.7821 112.343 53.8402 112.321 53.8944C112.3 53.9487 112.267 53.9982 112.226 54.0398C112.185 54.0815 112.137 54.1147 112.083 54.1372C112.029 54.1598 111.971 54.1715 111.912 54.1715L103.98 54.1791C103.868 54.1791 103.76 54.1343 103.68 54.0546C103.6 53.9748 103.555 53.8667 103.555 53.754C103.581 48.886 103.573 45.3236 103.533 43.0668C103.447 37.8648 103.669 34.3303 104.201 32.463C106.288 25.2066 112.861 19.7036 120.907 19.696Z" fill="#8C97A4"/>
<path d="M96.3602 21.29C97.6657 21.29 98.9333 20.9357 100.163 20.2273C100.222 20.1924 100.289 20.1738 100.357 20.1732C100.426 20.1727 100.493 20.1903 100.552 20.2242C100.612 20.2582 100.661 20.3072 100.695 20.3664C100.73 20.4256 100.748 20.4929 100.747 20.5613V53.8678C100.748 53.9579 100.715 54.0453 100.655 54.1137C100.595 54.1821 100.512 54.2269 100.421 54.2397C100.133 54.2802 98.7764 54.3004 96.3526 54.3004C93.9338 54.3004 92.5802 54.2802 92.2917 54.2397C92.2007 54.2269 92.1174 54.1821 92.0574 54.1137C91.9974 54.0453 91.9647 53.9579 91.9653 53.8678L91.9729 20.5613C91.9728 20.4929 91.9907 20.4256 92.025 20.3664C92.0592 20.3072 92.1086 20.2582 92.168 20.2242C92.2274 20.1903 92.2947 20.1727 92.3631 20.1732C92.4315 20.1738 92.4985 20.1924 92.5574 20.2273C93.787 20.9357 95.0546 21.29 96.3602 21.29Z" fill="#8C97A4"/>
</svg>
