<svg width="263" height="54" viewBox="0 0 263 54" fill="none" xmlns="http://www.w3.org/2000/svg">
<path fill-rule="evenodd" clip-rule="evenodd" d="M53.9392 29.6996L53.9372 30.8179L53.9338 31.6758L53.9291 32.3989L53.923 33.0358L53.9156 33.6113L53.9068 34.1402L53.8967 34.6323L53.8852 35.0942L53.8724 35.5307L53.8582 35.9455L53.8427 36.3415L53.8258 36.7209L53.8075 37.0856L53.7879 37.4371L53.767 37.7766L53.7447 38.1052L53.721 38.4238L53.696 38.7333L53.6696 39.0342L53.6418 39.3271L53.6127 39.6127L53.5822 39.8913L53.5503 40.1634L53.5171 40.4294L53.4825 40.6895L53.4465 40.9441L53.4092 41.1934L53.3705 41.4378L53.3304 41.6773L53.2889 41.9123L53.246 42.1429L53.2018 42.3693L53.1561 42.5917L53.1091 42.8102L53.0606 43.0249L53.0108 43.2359L52.9596 43.4435L52.9069 43.6477L52.8529 43.8486L52.7974 44.0462L52.7406 44.2408L52.6823 44.4323L52.6226 44.6209L52.5615 44.8067L52.4989 44.9896L52.4349 45.1698L52.3695 45.3473L52.3026 45.5222L52.2343 45.6946L52.1645 45.8645L52.0932 46.0319L52.0205 46.1969L51.9464 46.3595L51.8707 46.5199L51.7936 46.6779L51.715 46.8337L51.6349 46.9874L51.5533 47.1388L51.4702 47.2882L51.3856 47.4354L51.2994 47.5806L51.2118 47.7237L51.1226 47.8648L51.0318 48.0039L50.9395 48.1411L50.8457 48.2764L50.7503 48.4097L50.6533 48.5411L50.5547 48.6707L50.4545 48.7984L50.3527 48.9243L50.2493 49.0484L50.1442 49.1707L50.0375 49.2912L49.9292 49.41L49.8192 49.527L49.7075 49.6423L49.5941 49.7559L49.479 49.8678L49.3621 49.978L49.2436 50.0866L49.1233 50.1934L49.0012 50.2987L48.8773 50.4023L48.7516 50.5043L48.6241 50.6046L48.4948 50.7034L48.3635 50.8006L48.2304 50.8962L48.0954 50.9902L47.9585 51.0827L47.8196 51.1736L47.6787 51.263L47.5358 51.3508L47.3909 51.4371L47.2439 51.5219L47.0948 51.6052L46.9436 51.687L46.7903 51.7672L46.6347 51.846L46.4769 51.9233L46.3168 51.9991L46.1545 52.0734L45.9897 52.1463L45.8226 52.2176L45.653 52.2876L45.481 52.356L45.3063 52.4231L45.1291 52.4887L44.9492 52.5528L44.7666 52.6155L44.5812 52.6768L44.393 52.7367L44.2018 52.7951L44.0076 52.8521L43.8103 52.9077L43.6098 52.9619L43.406 53.0147L43.1988 53.066L42.9881 53.116L42.7738 53.1646L42.5558 53.2118L42.3338 53.2575L42.1079 53.3019L41.8777 53.3449L41.6432 53.3866L41.4042 53.4268L41.1604 53.4656L40.9116 53.5031L40.6575 53.5392L40.398 53.5739L40.1327 53.6073L39.8613 53.6393L39.5833 53.6699L39.2985 53.6991L39.0063 53.727L38.7062 53.7535L38.3977 53.7787L38.08 53.8025L37.7523 53.8249L37.4139 53.846L37.0636 53.8657L36.7003 53.8841L36.3223 53.9011L35.9279 53.9167L35.5149 53.931L35.0805 53.944L34.6211 53.9556L34.1319 53.9658L33.6064 53.9747L33.0354 53.9822L32.4045 53.9884L31.69 53.9932L30.8462 53.9967L29.7587 53.9989L24.366 53.9991L23.2154 53.9972L22.3436 53.9939L21.6125 53.9893L20.9702 53.9833L20.3908 53.976L19.8588 53.9673L19.3643 53.9573L18.9005 53.9459L18.4624 53.9332L18.0462 53.9191L17.649 53.9037L17.2685 53.8869L16.9029 53.8687L16.5506 53.8492L16.2104 53.8284L15.8811 53.8062L15.5619 53.7826L15.252 53.7576L14.9506 53.7313L14.6572 53.7037L14.3712 53.6746L14.0922 53.6443L13.8197 53.6125L13.5535 53.5793L13.293 53.5448L13.0382 53.509L12.7885 53.4717L12.5439 53.4331L12.3041 53.393L12.0689 53.3517L11.8381 53.3089L11.6115 53.2647L11.3889 53.2191L11.1703 53.1722L10.9554 53.1238L10.7441 53.0741L10.5364 53.0229L10.3321 52.9704L10.1311 52.9164L9.93326 52.861L9.73856 52.8043L9.54689 52.7461L9.35817 52.6864L9.17231 52.6254L8.98927 52.5629L8.80896 52.499L8.63132 52.4336L8.45629 52.3668L8.28382 52.2986L8.11385 52.2289L7.94634 52.1577L7.78124 52.0851L7.61849 52.011L7.45806 51.9354L7.29991 51.8584L7.14399 51.7799L6.99027 51.6998L6.83872 51.6183L6.68931 51.5353L6.54199 51.4507L6.39674 51.3647L6.25353 51.2771L6.11233 51.188L5.97312 51.0973L5.83587 51.0051L5.70055 50.9113L5.56714 50.8159L5.43563 50.719L5.30598 50.6205L5.17818 50.5204L5.05221 50.4186L4.92805 50.3153L4.80568 50.2103L4.68508 50.1037L4.56624 49.9954L4.44914 49.8855L4.33377 49.7738L4.22011 49.6605L4.10814 49.5455L3.99786 49.4287L3.88924 49.3103L3.78229 49.19L3.67698 49.068L3.5733 48.9442L3.47124 48.8186L3.3708 48.6912L3.27195 48.5619L3.17469 48.4308L3.07902 48.2977L2.98491 48.1628L2.89237 48.0259L2.80138 47.8871L2.71194 47.7463L2.62403 47.6035L2.53765 47.4587L2.45279 47.3118L2.36945 47.1628L2.28761 47.0116L2.20727 46.8584L2.12843 46.7029L2.05107 46.5452L1.97519 46.3852L1.90079 46.2229L1.82786 46.0583L1.75639 45.8913L1.68638 45.7218L1.61782 45.5499L1.55071 45.3753L1.48505 45.1982L1.42082 45.0185L1.35803 44.836L1.29667 44.6507L1.23674 44.4626L1.17823 44.2715L1.12113 44.0774L1.06545 43.8802L1.01119 43.6799L0.958328 43.4763L0.906873 43.2692L0.856819 43.0587L0.808163 42.8446L0.760903 42.6267L0.715035 42.405L0.670557 42.1793L0.627466 41.9493L0.58576 41.715L0.545436 41.4762L0.506492 41.2327L0.468926 40.9841L0.432735 40.7304L0.397918 40.4712L0.364473 40.2062L0.332398 39.9351L0.30169 39.6575L0.27235 39.3731L0.244374 39.0813L0.217761 38.7817L0.192511 38.4737L0.168621 38.1566L0.146091 37.8296L0.124919 37.4919L0.105104 37.1424L0.0866453 36.7799L0.0695418 36.403L0.0537925 36.0098L0.0393967 35.5981L0.0263537 35.1653L0.0146628 34.7078L0.00432343 34.2209L-0.00466495 33.6983L-0.0123028 33.1311L-0.0185905 32.5053L-0.0235283 31.7983L-0.0271165 30.967L-0.0293554 29.9067L-0.0297852 24.524L-0.0279761 23.3365L-0.0248177 22.4492L-0.0203098 21.7089L-0.0144521 21.0603L-0.00724439 20.4762L0.00131376 19.9406L0.0112227 19.4431L0.0224831 18.9768L0.0350953 18.5366L0.0490601 18.1185L0.0643782 17.7197L0.0810503 17.3377L0.0990773 16.9708L0.11846 16.6173L0.1392 16.276L0.161297 15.9457L0.184754 15.6255L0.209571 15.3147L0.235749 15.0125L0.26329 14.7183L0.292196 14.4316L0.322468 14.1519L0.354107 13.8787L0.387116 13.6119L0.421496 13.3508L0.457249 13.0954L0.494377 12.8452L0.532882 12.6001L0.572766 12.3598L0.614031 12.1241L0.656681 11.8928L0.700717 11.6657L0.746142 11.4427L0.792958 11.2236L0.841169 11.0083L0.890777 10.7967L0.941786 10.5886L0.994197 10.3839L1.04802 10.1825L1.10324 9.9843L1.15989 9.78925L1.21795 9.59723L1.27743 9.40817L1.33833 9.22199L1.40067 9.03862L1.46444 8.85799L1.52964 8.68004L1.59629 8.50471L1.66438 8.33195L1.73393 8.16169L1.80493 7.99389L1.8774 7.8285L1.95133 7.66548L2.02674 7.50478L2.10362 7.34636L2.18199 7.19018L2.26186 7.0362L2.34322 6.8844L2.42608 6.73473L2.51045 6.58716L2.59635 6.44167L2.68377 6.29822L2.77272 6.15678L2.86322 6.01733L2.95527 5.87985L3.04887 5.7443L3.14405 5.61067L3.2408 5.47894L3.33914 5.34907L3.43907 5.22105L3.54061 5.09487L3.64378 4.97049L3.74857 4.84791L3.855 4.72711L3.96308 4.60806L4.07283 4.49076L4.18426 4.37519L4.29738 4.26132L4.4122 4.14916L4.52875 4.03869L4.64704 3.92988L4.76707 3.82273L4.88887 3.71723L5.01246 3.61337L5.13786 3.51112L5.26507 3.41049L5.39413 3.31147L5.52505 3.21403L5.65785 3.11818L5.79255 3.0239L5.92919 2.93118L6.06777 2.84001L6.20833 2.7504L6.3509 2.66232L6.4955 2.57577L6.64215 2.49074L6.7909 2.40723L6.94177 2.32523L7.09479 2.24473L7.25 2.16572L7.40744 2.0882L7.56714 2.01216L7.72914 1.9376L7.89349 1.86451L8.06023 1.79289L8.22941 1.72273L8.40108 1.65401L8.57528 1.58675L8.75208 1.52094L8.93154 1.45656L9.11371 1.39362L9.29866 1.33212L9.48646 1.27203L9.67718 1.21338L9.87091 1.15614L10.0677 1.10032L10.2677 1.04591L10.471 0.992907L10.6776 0.941311L10.8877 0.891118L11.1014 0.842324L11.3189 0.794927L11.5402 0.748923L11.7655 0.704309L11.9949 0.661084L12.2287 0.619245L12.4671 0.578788L12.7101 0.539713L12.9581 0.502016L13.2113 0.465696L13.4699 0.43075L13.7343 0.397177L14.0047 0.364975L14.2816 0.334142L14.5653 0.304676L14.8563 0.276576L15.1551 0.24984L15.4622 0.224467L15.7784 0.200456L16.1044 0.177805L16.441 0.156513L16.7893 0.136579L17.1505 0.118002L17.5261 0.100781L17.9177 0.0849153L18.3276 0.0704037L18.7584 0.0572457L19.2135 0.0454406L19.6976 0.0349879L20.2167 0.0258869L20.7797 0.0181372L21.3998 0.0117385L22.0987 0.00669036L22.9172 0.00299261L23.9513 0.000645031L29.309 0L30.5358 0.00170252L31.4385 0.00475514L32.1876 0.00915803L32.8418 0.0149114L33.4301 0.0220156L33.9688 0.0304708L34.4687 0.0402777L34.9371 0.0514365L35.379 0.063948L35.7985 0.0778128L36.1985 0.0930315L36.5815 0.109605L36.9494 0.127534L37.3037 0.146819L37.6458 0.167462L37.9767 0.189464L38.2975 0.212825L38.6089 0.237547L38.9116 0.263632L39.2062 0.29108L39.4934 0.319893L39.7735 0.350072L40.0469 0.38162L40.3141 0.414538L40.5755 0.448828L40.8312 0.484491L41.0817 0.52153L41.327 0.559946L41.5676 0.599742L41.8035 0.640921L42.035 0.683484L42.2623 0.727433L42.4855 0.772773L42.7048 0.819504L42.9202 0.86763L43.1321 0.917154L43.3403 0.968079L43.5452 1.02041L43.7467 1.07414L43.9451 1.12929L44.1403 1.18585L44.3324 1.24383L44.5216 1.30323L44.7079 1.36406L44.8914 1.42631L45.0721 1.49L45.2502 1.55513L45.4256 1.6217L45.5985 1.68971L45.7689 1.75918L45.9368 1.83011L46.1022 1.9025L46.2654 1.97636L46.4262 2.05169L46.5847 2.1285L46.7409 2.20679L46.895 2.28658L47.0469 2.36786L47.1967 2.45065L47.3443 2.53495L47.4899 2.62078L47.6334 2.70812L47.7749 2.797L47.9145 2.88743L48.052 2.9794L48.1876 3.07293L48.3214 3.16804L48.4532 3.26471L48.5831 3.36298L48.7112 3.46284L48.8375 3.56431L48.9619 3.6674L49.0846 3.77212L49.2054 3.87848L49.3246 3.98649L49.4419 4.09617L49.5576 4.20752L49.6715 4.32057L49.7838 4.43533L49.8943 4.5518L50.0032 4.67001L50.1104 4.78997L50.216 4.9117L50.3199 5.03522L50.4222 5.16053L50.5229 5.28767L50.622 5.41665L50.7195 5.54749L50.8155 5.68022L50.9098 5.81485L51.0026 5.9514L51.0938 6.08991L51.1835 6.23039L51.2717 6.37287L51.3583 6.51739L51.4434 6.66396L51.527 6.81262L51.6091 6.9634L51.6896 7.11634L51.7687 7.27146L51.8463 7.4288L51.9224 7.58841L51.9971 7.75032L52.0702 7.91457L52.1419 8.08121L52.2122 8.25029L52.281 8.42185L52.3483 8.59595L52.4142 8.77264L52.4787 8.95198L52.5417 9.13403L52.6033 9.31886L52.6634 9.50653L52.7222 9.69713L52.7795 9.89072L52.8354 10.0874L52.8899 10.2872L52.943 10.4903L52.9946 10.6968L53.0449 10.9068L53.0938 11.1203L53.1413 11.3376L53.1874 11.5587L53.2321 11.7838L53.2754 12.013L53.3173 12.2466L53.3578 12.4847L53.397 12.7275L53.4348 12.9752L53.4712 13.2281L53.5062 13.4864L53.5399 13.7505L53.5722 14.0206L53.6031 14.2971L53.6327 14.5804L53.6609 14.8709L53.6877 15.1692L53.7132 15.4759L53.7373 15.7915L53.76 16.1168L53.7814 16.4528L53.8014 16.8003L53.8201 17.1607L53.8374 17.5352L53.8534 17.9257L53.868 18.3342L53.8813 18.7635L53.8932 19.2168L53.9037 19.6986L53.9129 20.215L53.9208 20.7744L53.9273 21.3896L53.9324 22.0815L53.9363 22.8886L53.9387 23.8993L53.9392 29.6996ZM19.2508 13.9008H20.5362V10.0796C20.5362 9.79321 20.6499 9.51851 20.8524 9.31597C21.0548 9.11343 21.3293 8.99965 21.6156 8.99965H23.6686C23.9549 8.99965 24.2295 9.11343 24.4319 9.31597C24.6343 9.51851 24.748 9.79321 24.748 10.0796V13.9008H35.1077C37.8019 13.9008 39.6476 14.3298 40.6452 15.1882C41.6424 16.0462 42.1414 17.5612 42.1414 19.7328V20.3842L36.496 21.5937V18.7089H18.1097V24.3858H35.5086C38.244 24.3858 40.0845 24.8251 41.0307 25.7036C41.9769 26.5831 42.4498 28.2528 42.4498 30.7136V34.4054C42.4498 36.8662 41.9666 38.5411 40.9999 39.4304C40.0331 40.3196 38.2029 40.7645 35.5086 40.7645H33.1721V43.9197C33.1721 44.2061 33.0584 44.4808 32.8559 44.6833C32.6535 44.8859 32.379 44.9997 32.0927 44.9997H30.0397C29.7534 44.9997 29.4788 44.8859 29.2764 44.6833C29.074 44.4808 28.9603 44.2061 28.9603 43.9197V40.7645H18.171C15.4151 40.7645 13.5484 40.3196 12.5718 39.4304C11.5947 38.5411 11.1064 36.8662 11.1064 34.4054V33.6609L16.9061 32.5749V35.7391H36.5576V29.5972H19.2508C16.5154 29.5972 14.6646 29.1476 13.6979 28.2476C12.7311 27.3481 12.2479 25.6784 12.2479 23.2376V20.2291C12.2479 17.8094 12.7311 16.1499 13.6979 15.2504C14.6646 14.3508 16.5154 13.9008 19.2508 13.9008Z" fill="#8C97A4"/>
<path fill-rule="evenodd" clip-rule="evenodd" d="M1.47069 7.37113C9.30764e-05 10.2589 9.31323e-05 14.0393 9.31323e-05 21.6V32.4C9.31323e-05 39.9607 9.30764e-05 43.7411 1.47069 46.6289C2.76427 49.1691 4.82836 51.2343 7.36714 52.5286C10.2534 54 14.0316 54 21.5881 54H32.3822C39.9387 54 43.717 54 46.6032 52.5286C49.1419 51.2343 51.206 49.1691 52.4996 46.6289C53.9702 43.7411 53.9702 39.9607 53.9702 32.4V21.6C53.9702 14.0393 53.9702 10.2589 52.4996 7.37113C51.206 4.83094 49.1419 2.7657 46.6032 1.47141C43.717 0 39.9387 0 32.3822 0H21.5881C14.0316 0 10.2534 0 7.36714 1.47141C4.82836 2.7657 2.76427 4.83094 1.47069 7.37113ZM24.4319 9.31597C24.6343 9.51851 24.748 9.79321 24.748 10.0796V13.9008H35.1077C37.8019 13.9008 39.6476 14.3298 40.6452 15.1882C41.6424 16.0462 42.1414 17.5612 42.1414 19.7328V20.3842L36.496 21.5937V18.7089H18.1097V24.3858H35.5086C38.244 24.3858 40.0845 24.8251 41.0307 25.7036C41.9769 26.5831 42.4498 28.2528 42.4498 30.7136V34.4054C42.4498 36.8662 41.9666 38.5411 40.9999 39.4304C40.0331 40.3196 38.2029 40.7645 35.5086 40.7645H33.1721V43.9197C33.1721 44.2061 33.0584 44.4808 32.8559 44.6833C32.6535 44.8859 32.379 44.9997 32.0927 44.9997H30.0397C29.7534 44.9997 29.4788 44.8859 29.2764 44.6833C29.074 44.4808 28.9603 44.2061 28.9603 43.9197V40.7645H18.171C15.4151 40.7645 13.5484 40.3196 12.5718 39.4304C11.5947 38.5411 11.1064 36.8662 11.1064 34.4054V33.6609L16.9061 32.5749V35.7391H36.5576V29.5972H19.2508C16.5154 29.5972 14.6646 29.1476 13.6979 28.2476C12.7311 27.3481 12.2479 25.6784 12.2479 23.2376V20.2291C12.2479 17.8094 12.7311 16.1499 13.6979 15.2504C14.6646 14.3508 16.5154 13.9008 19.2508 13.9008H20.5362V10.0796C20.5362 9.79321 20.6499 9.51851 20.8524 9.31597C21.0548 9.11343 21.3293 8.99965 21.6156 8.99965H23.6686C23.9549 8.99965 24.2295 9.11343 24.4319 9.31597Z" fill="#8C97A4"/>
<path d="M90.0697 41.195L98.155 21.6169L106.113 41.1946H110.696L121.774 13.4914H115.694L108.595 32.8136L100.892 13.4918H96.2771L88.5104 32.8136L81.2843 13.4918H74.25L85.4547 41.195H90.0697ZM159.398 41.195V36.0125H136.257V29.1988H149.531V24.4322H136.257V18.3861H159.048V13.4918H129.477V41.195H159.398ZM175.791 41.195V13.4918H169.107V41.195H175.791ZM212.525 41.195C215.305 41.195 217.194 40.7363 218.191 39.8192C219.188 38.9021 219.687 37.1749 219.687 34.6372V30.8301C219.687 28.2923 219.199 26.5704 218.223 25.6635C217.247 24.7575 215.347 24.3045 212.525 24.3045H194.572V18.4502H213.543V21.4251L219.369 20.1779V19.5061C219.369 17.2666 218.854 15.7043 217.825 14.8195C216.795 13.9342 214.891 13.4918 212.111 13.4918H195.75C192.928 13.4918 191.017 13.9559 190.02 14.8836C189.023 15.8112 188.524 17.5225 188.524 20.0179V23.1204C188.524 25.6374 189.023 27.3593 190.02 28.287C191.017 29.2151 192.928 29.6788 195.75 29.6788H213.607V36.0125H193.331V32.7495L187.347 33.8695V34.6372C187.347 37.1749 187.851 38.9021 188.858 39.8192C189.867 40.7363 191.793 41.195 194.636 41.195H212.525ZM255.752 41.195C258.532 41.195 260.42 40.7363 261.418 39.8192C262.415 38.9021 262.914 37.1749 262.914 34.6372V30.8301C262.914 28.2923 262.426 26.5704 261.45 25.6635C260.473 24.7575 258.574 24.3045 255.752 24.3045H237.799V18.4502H256.771V21.4251L262.596 20.1779V19.5061C262.596 17.2666 262.081 15.7043 261.052 14.8195C260.023 13.9342 258.118 13.4918 255.338 13.4918H238.977C236.154 13.4918 234.245 13.9559 233.247 14.8836C232.25 15.8112 231.751 17.5225 231.751 20.0179V23.1204C231.751 25.6374 232.25 27.3593 233.247 28.287C234.245 29.2151 236.154 29.6788 238.977 29.6788H256.834V36.0125H236.557V32.7495L230.573 33.8695V34.6372C230.573 37.1749 231.077 38.9021 232.085 39.8192C233.093 40.7363 235.019 41.195 237.863 41.195H255.752Z" fill="#8C97A4"/>
<path fill-rule="evenodd" clip-rule="evenodd" d="M196.842 9.55125V16.0592C196.842 16.3546 196.96 16.6378 197.169 16.8467C197.378 17.0556 197.661 17.1729 197.956 17.1729H200.075C200.37 17.1729 200.654 17.0556 200.863 16.8467C201.071 16.6378 201.189 16.3546 201.189 16.0592V9.55125C201.189 9.25587 201.071 8.97258 200.863 8.76371C200.654 8.55484 200.37 8.4375 200.075 8.4375H197.956C197.661 8.4375 197.378 8.55484 197.169 8.76371C196.96 8.97258 196.842 9.25587 196.842 9.55125ZM240.303 9.55125V16.0592C240.303 16.3546 240.42 16.6378 240.629 16.8467C240.838 17.0556 241.121 17.1729 241.417 17.1729H243.535C243.831 17.1729 244.114 17.0556 244.323 16.8467C244.532 16.6378 244.649 16.3546 244.649 16.0592V9.55125C244.649 9.25587 244.532 8.97258 244.323 8.76371C244.114 8.55484 243.831 8.4375 243.535 8.4375H241.417C241.121 8.4375 240.838 8.55484 240.629 8.76371C240.42 8.97258 240.303 9.25587 240.303 9.55125ZM205.535 37.384V44.4488C205.535 44.7441 205.652 45.0274 205.861 45.2363C206.07 45.4452 206.353 45.5625 206.648 45.5625H208.767C209.063 45.5625 209.346 45.4452 209.555 45.2363C209.764 45.0274 209.881 44.7441 209.881 44.4488V37.9408C209.881 37.6454 209.764 37.3622 209.555 37.1533C209.346 36.9444 209.063 36.8271 208.767 36.8271H206.091C205.944 36.8271 205.802 36.8857 205.698 36.9902C205.593 37.0946 205.535 37.2363 205.535 37.384ZM248.995 37.384V44.4488C248.995 44.7441 249.113 45.0274 249.321 45.2363C249.53 45.4452 249.814 45.5625 250.109 45.5625H252.227C252.523 45.5625 252.806 45.4452 253.015 45.2363C253.224 45.0274 253.341 44.7441 253.341 44.4488V37.9408C253.341 37.6454 253.224 37.3622 253.015 37.1533C252.806 36.9444 252.523 36.8271 252.227 36.8271H249.552C249.404 36.8271 249.263 36.8857 249.158 36.9902C249.054 37.0946 248.995 37.2363 248.995 37.384Z" fill="#8C97A4"/>
</svg>
