<svg width="106" height="48" viewBox="0 0 106 48" fill="none" xmlns="http://www.w3.org/2000/svg">
<path d="M27.7729 11.6182H32.5637V40.2855H27.7729V11.6182Z" fill="white"/>
<path d="M49.2271 31.2008C49.2271 35.6422 45.4779 36.046 44.2281 36.046C41.312 36.046 40.8954 33.4215 40.8954 32.0083V20.9048H36.1047V31.8064C36.1047 34.4309 36.9379 36.8535 38.6042 38.2667C40.0623 39.6798 41.9369 40.2855 44.2281 40.2855C45.8944 40.2855 47.9774 39.8817 49.2271 38.6704V40.2855H54.0178V20.9048H49.2271V31.2008Z" fill="white"/>
<path d="M63.3912 13.8389H58.6005V20.9047H55.0596V25.3462H58.6005V40.2854H63.3912V25.3462H66.9322V20.9047H63.3912V13.8389Z" fill="white"/>
<path d="M81.9285 34.4309C80.887 35.2384 79.429 35.844 77.9709 35.844C74.6383 35.844 72.3471 33.4214 72.3471 30.1913C72.3471 26.9612 74.6383 24.7405 77.9709 24.7405C79.429 24.7405 80.887 25.1443 81.9285 26.1537L82.5534 26.7593L85.886 23.7311L85.0529 23.1254C83.1782 21.5104 80.6787 20.501 77.9709 20.501C72.1388 20.501 67.7646 24.7405 67.7646 30.3932C67.7646 36.0459 72.1388 40.2854 77.9709 40.2854C80.6787 40.2854 83.1782 39.276 85.0529 37.661L85.886 37.0553L82.5534 33.8252L81.9285 34.4309Z" fill="white"/>
<path d="M102.758 22.5198C101.3 21.1066 99.8421 20.501 97.5509 20.501C95.8845 20.501 94.2182 20.9048 92.9684 22.116V11.6182H88.1777V40.2855H92.9684V29.5857C92.9684 25.1443 96.0928 24.7405 97.3426 24.7405C100.259 24.7405 100.05 27.365 100.05 28.7782V40.0836H104.841V28.98C104.841 26.3556 104.216 23.933 102.758 22.5198Z" fill="white"/>
<path d="M77.7629 33.6238C79.6034 33.6238 81.0955 32.1776 81.0955 30.3937C81.0955 28.6097 79.6034 27.1636 77.7629 27.1636C75.9223 27.1636 74.4302 28.6097 74.4302 30.3937C74.4302 32.1776 75.9223 33.6238 77.7629 33.6238Z" fill="#EF4335"/>
<path d="M21.1077 33.2195C19.4413 34.8345 16.9418 35.8439 14.234 35.8439C9.02674 35.8439 5.27749 31.8063 5.27749 26.3555C5.27749 20.9046 9.02674 16.867 14.4423 16.867C16.9418 16.867 19.4413 17.8764 21.316 19.6933L21.9408 20.299L25.0652 17.2708L24.4403 16.6651C21.7325 14.0406 18.1916 12.6275 14.4423 12.6275C6.52724 12.4256 0.695068 18.4821 0.695068 26.3555C0.695068 34.2289 6.52724 40.2853 14.234 40.2853C17.9833 40.2853 21.7325 38.8722 24.2321 36.2477L24.8569 35.6421L21.7325 32.6138L21.1077 33.2195Z" fill="white"/>
</svg>
