<svg  viewBox="0 0 195 26" fill="none" xmlns="http://www.w3.org/2000/svg">
<path d="M12.4104 26C13.7871 26 15.68 25.8942 17.0912 25.7883L18.0893 18.3446C16.6782 18.4858 14.8196 18.6269 13.4085 18.6269C9.10625 18.6269 7.17885 17.498 7.76396 13.0176C8.38347 8.53731 10.655 7.37314 14.9573 7.37314C16.3684 7.37314 18.0549 7.47897 19.466 7.62008L20.4985 0.176393C19.1218 0.0705575 17.3321 0 15.9554 0C7.04118 0 1.39667 4.23338 0.192051 13.0176C-1.01257 21.8019 3.49615 26 12.4104 26Z" fill="#FF1923"/>
<path d="M21.8008 25.4708H38.1836L39.1473 18.4152H30.1987L32.6423 0.564452H25.2081L21.8008 25.4708Z" fill="#FF1923"/>
<path d="M41.7337 25.4708H49.168L52.5753 0.564452H45.1411L41.7337 25.4708Z" fill="#FF1923"/>
<path d="M67.2972 26C68.674 26 70.5669 25.8942 71.9781 25.7883L72.9762 18.3446C71.565 18.4858 69.7065 18.6269 68.2954 18.6269C63.9931 18.6269 62.0658 17.498 62.6509 13.0176C63.2704 8.53731 65.5419 7.37314 69.8442 7.37314C71.2553 7.37314 72.9418 7.47897 74.3529 7.62008L75.3854 0.176393C74.0087 0.0705575 72.219 0 70.8423 0C61.9281 0 56.2836 4.23338 55.079 13.0176C53.8743 21.8019 58.3831 26 67.2972 26Z" fill="#FF1923"/>
<path d="M92.0724 25.4708H100.574L93.2082 12.6296L103.981 0.564452H95.4797L87.7013 9.48982H86.2902L87.5292 0.564452H80.095L76.6877 25.4708H84.1219L85.3953 16.0516H86.8753L92.0724 25.4708Z" fill="#FF1923"/>
<path d="M121.247 0.564452H111.954L99.701 25.4708H107.652L109.648 21.0963H117.908L118.734 25.4708H126.719L121.247 0.564452ZM115.533 8.3962L116.703 14.6404H112.642L115.533 8.3962Z" fill="#FF1923"/>
<path d="M152.01 18.2388C152.319 15.7341 151.528 13.9349 149.704 12.7354C151.149 11.5712 152.01 9.94844 152.319 7.86703C153.008 2.85753 149.153 0.564452 141.925 0.564452H132.495L129.087 25.4708H139.619C146.847 25.4708 151.321 23.1777 152.01 18.2388ZM144.472 17.4274C144.266 18.9091 143.267 19.1208 140.548 19.1208H137.382L137.829 15.7693H141.03C143.749 15.7693 144.679 15.981 144.472 17.4274ZM144.713 8.60787C144.506 10.0543 143.508 10.3012 140.789 10.3012H138.587L139.068 6.91452H141.271C143.99 6.91452 144.919 7.12619 144.713 8.60787Z" fill="#FF1923"/>
<path d="M155.001 25.4708H171.384L172.348 18.4152H163.399L165.843 0.564452H158.409L155.001 25.4708Z" fill="#FF1923"/>
<path d="M174.866 25.4708H191.937L192.901 18.4152H183.264L183.573 16.0163H188.185L189.046 9.66622H184.468L184.744 7.62008H194.036L195 0.564452H178.273L174.866 25.4708Z" fill="#FF1923"/>
</svg>
