<svg width="28" height="28" viewBox="0 0 28 28" fill="none" xmlns="http://www.w3.org/2000/svg">
<path d="M13.5532 2.29384C13.7374 1.92532 14.2633 1.92532 14.4476 2.29384L18.0807 9.56007C18.1555 9.7096 18.3 9.81187 18.4659 9.8326L25.6554 10.7313C26.0552 10.7813 26.2347 11.2595 25.9665 11.5602L20.9922 17.1382C20.8912 17.2515 20.8471 17.4045 20.8724 17.5542L22.2364 25.6286C22.3045 26.032 21.8857 26.3421 21.5198 26.1591L14.224 22.5112C14.0832 22.4408 13.9175 22.4408 13.7768 22.5112L6.48261 26.1583C6.11636 26.3414 5.69731 26.0307 5.76611 25.6271L7.1419 17.555C7.16748 17.4049 7.12327 17.2513 7.02178 17.1377L2.03604 11.5605C1.76731 11.2599 1.94668 10.7811 2.3468 10.7311L9.53486 9.8326C9.70075 9.81187 9.8453 9.7096 9.92006 9.56007L13.5532 2.29384Z" fill="#FF1923"/>
</svg>
