<svg width="40" height="40" viewBox="0 0 40 40" fill="none" xmlns="http://www.w3.org/2000/svg">
<path d="M28.4483 27.0528C26.7241 28.4181 24.3104 29.4422 21.8966 29.4422C16.3793 29.4422 12.5862 25.346 12.5862 19.8845C12.5862 14.423 16.3793 10.6682 21.8966 10.6682C24.3104 10.6682 26.7241 11.3509 28.4483 13.0576L29.4828 14.0817L35 8.96151L33.6207 7.93747C30.5172 5.20672 26.3793 3.5 21.8966 3.5C12.2414 3.5 5 10.6682 5 20.2259C5 29.7835 12.2414 36.9518 21.8966 36.9518C26.3793 36.9518 30.5172 35.245 33.6207 32.5143L35 31.4902L29.4828 26.0287L28.4483 27.0528Z" fill="white"/>
<path d="M21.5517 25.6867C24.5988 25.6867 27.0689 23.2415 27.0689 20.2252C27.0689 17.2089 24.5988 14.7637 21.5517 14.7637C18.5046 14.7637 16.0344 17.2089 16.0344 20.2252C16.0344 23.2415 18.5046 25.6867 21.5517 25.6867Z" fill="#EF4335"/>
</svg>
